<svg xmlns="http://www.w3.org/2000/svg" xmlns:xlink="http://www.w3.org/1999/xlink" viewBox="0 0 141.73 141.73"><defs><style>.cls-1{fill:none;}.cls-2{clip-path:url(#clip-path);}.cls-3{fill:#dbb12a;}.cls-4{fill:#fff;}.cls-5{fill:#332f2f;}</style><clipPath id="clip-path"><ellipse class="cls-1" cx="71.24" cy="55.72" rx="35.91" ry="36.72"/></clipPath></defs><title>logosigPlan de travail 1</title><g id="Background"><g class="cls-2"><path class="cls-3" d="M63.66,26.55A12.77,12.77,0,1,0,50.89,39.32,12.79,12.79,0,0,0,63.66,26.55ZM50.89,38.72A12.17,12.17,0,1,1,63.06,26.55,12.18,12.18,0,0,1,50.89,38.72Z"/><path class="cls-3" d="M50.89,19.36a7.19,7.19,0,1,0,7.19,7.19A7.2,7.2,0,0,0,50.89,19.36Zm0,13.78a6.59,6.59,0,1,1,6.59-6.59A6.59,6.59,0,0,1,50.89,33.14Z"/><path class="cls-3" d="M50.89,16.4A10.15,10.15,0,1,0,61,26.55,10.16,10.16,0,0,0,50.89,16.4Zm0,19.71a9.56,9.56,0,1,1,9.55-9.56A9.56,9.56,0,0,1,50.89,36.11Z"/><path class="cls-3" d="M60.77,39.75a16.49,16.49,0,1,0-12.23,3.12,16,16,0,0,0,2.38.17A16.37,16.37,0,0,0,60.77,39.75Zm-22.6-3.68a15.89,15.89,0,1,1,10.45,6.21A15.9,15.9,0,0,1,38.17,36.07Z"/><path class="cls-3" d="M71.32,26.55A20.43,20.43,0,1,0,50.89,47,20.46,20.46,0,0,0,71.32,26.55Zm-40.26,0A19.83,19.83,0,1,1,50.89,46.38,19.85,19.85,0,0,1,31.06,26.55Z"/><path class="cls-3" d="M77.08,26.55A26.19,26.19,0,1,0,50.89,52.74,26.22,26.22,0,0,0,77.08,26.55Zm-51.79,0a25.6,25.6,0,1,1,25.6,25.6A25.63,25.63,0,0,1,25.29,26.55Z"/><path class="cls-3" d="M50.89,21.89a4.66,4.66,0,1,0,4.66,4.66A4.66,4.66,0,0,0,50.89,21.89Zm0,8.73A4.07,4.07,0,1,1,55,26.55,4.07,4.07,0,0,1,50.89,30.62Z"/><path class="cls-3" d="M107.07,39.28a12.77,12.77,0,1,0,12.77,12.77A12.79,12.79,0,0,0,107.07,39.28Zm0,25a12.18,12.18,0,1,1,12.17-12.18A12.19,12.19,0,0,1,107.07,64.23Z"/><path class="cls-3" d="M107.07,44.87a7.19,7.19,0,1,0,7.19,7.18A7.2,7.2,0,0,0,107.07,44.87Zm0,13.77a6.59,6.59,0,1,1,6.59-6.59A6.59,6.59,0,0,1,107.07,58.64Z"/><path class="cls-3" d="M107.07,41.9a10.15,10.15,0,1,0,10.15,10.15A10.16,10.16,0,0,0,107.07,41.9Zm0,19.71a9.56,9.56,0,1,1,9.55-9.56A9.56,9.56,0,0,1,107.07,61.61Z"/><path class="cls-3" d="M120.27,42.18A16.47,16.47,0,1,0,117,65.26,16.51,16.51,0,0,0,120.27,42.18Zm-3.68,22.6a15.89,15.89,0,1,1,3.2-22.25A15.91,15.91,0,0,1,116.59,64.78Z"/><path class="cls-3" d="M107.07,31.62A20.43,20.43,0,1,0,127.5,52.05,20.45,20.45,0,0,0,107.07,31.62Zm0,40.27A19.84,19.84,0,1,1,126.9,52.05,19.85,19.85,0,0,1,107.07,71.89Z"/><path class="cls-3" d="M107.07,25.86a26.2,26.2,0,1,0,26.19,26.19A26.22,26.22,0,0,0,107.07,25.86Zm0,51.79a25.6,25.6,0,1,1,25.59-25.6A25.63,25.63,0,0,1,107.07,77.65Z"/><path class="cls-3" d="M107.07,47.39a4.66,4.66,0,1,0,4.66,4.66A4.66,4.66,0,0,0,107.07,47.39Zm0,8.73a4.07,4.07,0,1,1,4.06-4.07A4.07,4.07,0,0,1,107.07,56.12Z"/><path class="cls-3" d="M54.59,75A12.77,12.77,0,1,0,67.36,87.8,12.79,12.79,0,0,0,54.59,75Zm0,24.94A12.17,12.17,0,1,1,66.76,87.8,12.18,12.18,0,0,1,54.59,100Z"/><path class="cls-3" d="M54.59,80.61a7.19,7.19,0,1,0,7.19,7.19A7.2,7.2,0,0,0,54.59,80.61Zm0,13.78a6.59,6.59,0,1,1,6.59-6.59A6.6,6.6,0,0,1,54.59,94.39Z"/><path class="cls-3" d="M54.59,77.65A10.15,10.15,0,1,0,64.74,87.8,10.16,10.16,0,0,0,54.59,77.65Zm0,19.7a9.55,9.55,0,1,1,9.56-9.55A9.56,9.56,0,0,1,54.59,97.35Z"/><path class="cls-3" d="M44.72,74.6a16.49,16.49,0,1,0,23.07,3.32A16.51,16.51,0,0,0,44.72,74.6Zm19.39,25.92a15.89,15.89,0,1,1,3.21-22.24A15.91,15.91,0,0,1,64.11,100.52Z"/><path class="cls-3" d="M54.59,67.37A20.43,20.43,0,1,0,75,87.8,20.45,20.45,0,0,0,54.59,67.37Zm0,40.26A19.83,19.83,0,1,1,74.42,87.8,19.86,19.86,0,0,1,54.59,107.63Z"/><path class="cls-3" d="M54.59,61.61A26.19,26.19,0,1,0,80.78,87.8,26.22,26.22,0,0,0,54.59,61.61Zm0,51.78A25.6,25.6,0,1,1,80.19,87.8,25.62,25.62,0,0,1,54.59,113.39Z"/><path class="cls-3" d="M54.59,83.14a4.66,4.66,0,1,0,4.66,4.66A4.66,4.66,0,0,0,54.59,83.14Zm0,8.72a4.06,4.06,0,1,1,4.07-4.06A4.06,4.06,0,0,1,54.59,91.86Z"/><path class="cls-3" d="M107.27,18.53A33.27,33.27,0,0,0,83.6,28.4c0-.61.05-1.23.05-1.85A33.36,33.36,0,1,0,39.1,58,33.36,33.36,0,1,0,88,87.49a32.9,32.9,0,0,0-1.34-9.37,33.36,33.36,0,1,0,20.6-59.59Zm-89.74,8a32.77,32.77,0,0,1,65.53,0c0,.85,0,1.68-.1,2.51A33.25,33.25,0,0,0,74,49.12a33,33,0,0,1-9,6.67A33.44,33.44,0,0,0,39.83,57.6,32.82,32.82,0,0,1,17.53,26.55ZM82.87,30A32.7,32.7,0,0,1,74.69,48.4,32.63,32.63,0,0,1,82.87,30ZM75.25,61.26a33.33,33.33,0,0,0-9.4-5.2A33.79,33.79,0,0,0,74,50c0,.61,0,1.23,0,1.85A33,33,0,0,0,75.25,61.26Zm-11-5.09a32.72,32.72,0,0,1-23.64,1.7,32.72,32.72,0,0,1,23.64-1.7ZM87.42,87.49A32.77,32.77,0,1,1,39.88,58.25a33.37,33.37,0,0,0,25.23-1.82,32.93,32.93,0,0,1,10.45,5.85A33.57,33.57,0,0,0,85.84,77.44,32.73,32.73,0,0,1,87.42,87.49Zm-11-24.43a32.77,32.77,0,0,1,9,13.26A32.84,32.84,0,0,1,76.46,63.06Zm30.81,21.59a32.57,32.57,0,0,1-20.91-7.56A33.57,33.57,0,0,0,76.08,61.93a32.66,32.66,0,0,1-1.58-10c0-.85,0-1.68.1-2.51a33.25,33.25,0,0,0,8.94-20.06,32.76,32.76,0,1,1,23.73,55.33Z"/></g><path class="cls-4" d="M55.75,47.67l15.49-8.94,16.28,9.61s15.18-8.66,19.23.66c0,0-1.48,9-19.89,18.74s-15.25,8.81-15.25,8.81L55.14,67S34.54,54.26,36.13,48C36.13,48,36,40.09,55.75,47.67Z"/></g><g id="Sigscan"><path class="cls-5" d="M23.9,104.21v4.24A15.26,15.26,0,0,0,21,107.34a10.55,10.55,0,0,0-2.68-.38,4.65,4.65,0,0,0-2.46.51,1.75,1.75,0,0,0-.8,1.58,1.55,1.55,0,0,0,.54,1.26,5,5,0,0,0,2,.77l2,.44a8.19,8.19,0,0,1,4.28,2,5.53,5.53,0,0,1,1.26,3.89,6.38,6.38,0,0,1-1.76,4.93Q21.55,124,17.92,124a16.85,16.85,0,0,1-3.45-.36A19.06,19.06,0,0,1,11,122.56V118.2a16.4,16.4,0,0,0,3.34,1.54,10.29,10.29,0,0,0,3.11.52,4,4,0,0,0,2.33-.57,1.83,1.83,0,0,0,.81-1.61,1.88,1.88,0,0,0-.55-1.45,5.27,5.27,0,0,0-2.2-.91l-1.8-.44a7.51,7.51,0,0,1-3.95-2,5.54,5.54,0,0,1-1.25-3.8,5.94,5.94,0,0,1,1.74-4.6,7.07,7.07,0,0,1,5-1.61,18.94,18.94,0,0,1,3.06.25A24.67,24.67,0,0,1,23.9,104.21Z"/><path class="cls-5" d="M29.16,103.58h4.65v20H29.16Z"/><path class="cls-5" d="M54.56,122.12a15.44,15.44,0,0,1-3.62,1.41,15.94,15.94,0,0,1-3.86.47A9.29,9.29,0,0,1,40,121.2a10.58,10.58,0,0,1-2.63-7.58A10.57,10.57,0,0,1,40,106a9.75,9.75,0,0,1,7.35-2.77,15.53,15.53,0,0,1,3.45.37,13.09,13.09,0,0,1,3.11,1.12v4.14a13,13,0,0,0-3-1.42,10,10,0,0,0-3-.47,5.4,5.4,0,0,0-4.28,1.72,7.31,7.31,0,0,0-1.5,4.94,7.45,7.45,0,0,0,1.45,4.91,5.08,5.08,0,0,0,4.12,1.73,9.51,9.51,0,0,0,1.35-.1,4.75,4.75,0,0,0,1.1-.32V116H47.31v-3.46h7.25Z"/><path class="cls-5" d="M71.18,104.21v4.24a15.26,15.26,0,0,0-2.89-1.11,10.49,10.49,0,0,0-2.68-.38,4.65,4.65,0,0,0-2.46.51,1.75,1.75,0,0,0-.8,1.58,1.55,1.55,0,0,0,.54,1.26,5,5,0,0,0,2,.77l2,.44a8.19,8.19,0,0,1,4.28,2,5.53,5.53,0,0,1,1.26,3.89,6.38,6.38,0,0,1-1.76,4.93Q68.83,124,65.2,124a16.75,16.75,0,0,1-3.44-.36,19.15,19.15,0,0,1-3.46-1.08V118.2a16.4,16.4,0,0,0,3.34,1.54,10.34,10.34,0,0,0,3.11.52,4,4,0,0,0,2.33-.57,1.83,1.83,0,0,0,.81-1.61,1.88,1.88,0,0,0-.55-1.45,5.27,5.27,0,0,0-2.2-.91l-1.79-.44a7.5,7.5,0,0,1-4-2,5.54,5.54,0,0,1-1.25-3.8,5.94,5.94,0,0,1,1.74-4.6,7.09,7.09,0,0,1,5-1.61,18.91,18.91,0,0,1,3.05.25A24.67,24.67,0,0,1,71.18,104.21Z"/><path class="cls-5" d="M90.74,122.51a11.44,11.44,0,0,1-2.67,1.11,11.07,11.07,0,0,1-2.89.38A9.3,9.3,0,0,1,78,121.2a10.58,10.58,0,0,1-2.63-7.58A10.64,10.64,0,0,1,78,106a9.33,9.33,0,0,1,7.14-2.79,10.8,10.8,0,0,1,5.56,1.49v4.14a9.83,9.83,0,0,0-2.55-1.43,7.56,7.56,0,0,0-2.64-.46,4.76,4.76,0,0,0-3.92,1.77,9.1,9.1,0,0,0,0,9.76,4.76,4.76,0,0,0,3.92,1.77,7.8,7.8,0,0,0,2.64-.46,9.6,9.6,0,0,0,2.55-1.44Z"/><path class="cls-5" d="M105.53,120H98.26l-1.16,3.65H92.43l6.69-20h5.54l6.68,20h-4.68Zm-6.12-3.72h4.94l-2.46-8Z"/><path class="cls-5" d="M113.71,103.58h5.2l6.56,13.74V103.58h4.4v20h-5.19l-6.55-13.74v13.74h-4.42Z"/></g><g id="Logo"><polygon class="cls-3" points="55.89 48.66 63.42 43.42 71.2 48.19 78.05 44.06 87.51 49 87.51 68.3 71.4 76.9 55.29 67.6 55.89 48.66"/><path class="cls-5" d="M106.68,48.49a6,6,0,0,0-3.54-3.38c-5-1.91-13.21,1.37-15.56,2.41l-6.49-3.75,9.24-5.58A1.36,1.36,0,0,0,90,35.51a1.16,1.16,0,0,0-.42.08h0a1.48,1.48,0,0,0-.5.3L78.47,42.26,71.4,38.18l-7.22,4.16L54.06,36.15a1.35,1.35,0,0,0-1-.44,1.37,1.37,0,0,0-1.37,1.37,1.39,1.39,0,0,0,.39,1h0a1.51,1.51,0,0,0,.53.32l8.95,5.48-6.36,3.67c-2.35-1-10.55-4.32-15.56-2.41a6,6,0,0,0-3.54,3.38c-3.34,8,16.17,19,18.52,20.26l15.44,8.91v7.18l1.36,1.22,1.28-1.22V77.66l15.44-8.91C90.51,67.46,110,56.45,106.68,48.49ZM71.4,41.23l4.48,2.59-4.67,2.82-4.46-2.73Zm-7.26,4.19,7.06,4.32,7.3-4.41L84.86,49,71.4,56.75,57.94,49ZM71.4,59.81l14.78-8.52v6.25L70.82,66.82l-14.2-8.67V51.29ZM54,65.32c-7.91-4.67-17-12-15.41-15.81a3.38,3.38,0,0,1,2-1.92c3.59-1.37,10.28.92,13.37,2.27ZM71.4,75.37,56.62,66.84V61.25l14.19,8.67,15.37-9.29v6.21ZM88.83,65.32V49.86c3.1-1.35,9.78-3.65,13.37-2.27a3.38,3.38,0,0,1,2,1.92C105.85,53.34,96.74,60.65,88.83,65.32Z"/></g></svg>