<?xml version="1.0" encoding="utf-8"?>
<!-- Generator: Adobe Illustrator 23.0.6, SVG Export Plug-In . SVG Version: 6.00 Build 0)  -->
<svg version="1.1" id="Calque_1" xmlns="http://www.w3.org/2000/svg" xmlns:xlink="http://www.w3.org/1999/xlink" x="0px" y="0px"
	 viewBox="0 0 1280 1024" style="enable-background:new 0 0 1280 1024;" xml:space="preserve">
<style type="text/css">
	.st0{fill:#FFFFFF;}
	.st1{clip-path:url(#SVGID_2_);}
	.st2{fill:#DBB12A;}
	.st3{fill:#332F2F;}
	.st4{clip-path:url(#SVGID_4_);}
	.st5{clip-path:url(#SVGID_6_);}
</style>
<g>
	<ellipse class="st0" cx="841" cy="334" rx="36" ry="37"/>
	<g>
		<g>
			<defs>
				<ellipse id="SVGID_1_" cx="840.7" cy="334.2" rx="35.9" ry="36.7"/>
			</defs>
			<clipPath id="SVGID_2_">
				<use xlink:href="#SVGID_1_"  style="overflow:visible;"/>
			</clipPath>
			<g class="st1">
				<path class="st2" d="M833.1,305c0-7-5.7-12.8-12.8-12.8c-7,0-12.8,5.7-12.8,12.8c0,7,5.7,12.8,12.8,12.8
					C827.4,317.8,833.1,312.1,833.1,305z M820.4,317.2c-6.7,0-12.2-5.5-12.2-12.2c0-6.7,5.5-12.2,12.2-12.2
					c6.7,0,12.2,5.5,12.2,12.2C832.6,311.8,827.1,317.2,820.4,317.2z"/>
				<path class="st2" d="M820.4,297.9c-4,0-7.2,3.2-7.2,7.2c0,4,3.2,7.2,7.2,7.2c4,0,7.2-3.2,7.2-7.2
					C827.6,301.1,824.3,297.9,820.4,297.9z M820.4,311.6c-3.6,0-6.6-3-6.6-6.6c0-3.6,3-6.6,6.6-6.6c3.6,0,6.6,3,6.6,6.6
					C827,308.7,824,311.6,820.4,311.6z"/>
				<path class="st2" d="M820.4,294.9c-5.6,0-10.2,4.6-10.2,10.1c0,5.6,4.6,10.2,10.2,10.2c5.6,0,10.1-4.6,10.1-10.2
					C830.5,299.4,826,294.9,820.4,294.9z M820.4,314.6c-5.3,0-9.6-4.3-9.6-9.6c0-5.3,4.3-9.6,9.6-9.6c5.3,0,9.6,4.3,9.6,9.6
					C829.9,310.3,825.6,314.6,820.4,314.6z"/>
				<path class="st2" d="M830.3,318.2c7.3-5.4,8.8-15.8,3.3-23.1c-5.4-7.3-15.8-8.8-23.1-3.3c-7.3,5.4-8.8,15.8-3.3,23.1
					c2.6,3.5,6.5,5.8,10.8,6.4c0.8,0.1,1.6,0.2,2.4,0.2C823.9,321.5,827.4,320.4,830.3,318.2z M807.7,314.6c-5.2-7-3.8-17,3.2-22.2
					c2.8-2.1,6.2-3.2,9.5-3.2c4.8,0,9.6,2.2,12.7,6.4c5.2,7,3.8,17-3.2,22.2c-3.4,2.5-7.6,3.6-11.8,3
					C813.9,320.2,810.2,318,807.7,314.6z"/>
				<path class="st2" d="M840.8,305c0-11.3-9.2-20.4-20.4-20.4c-11.3,0-20.4,9.2-20.4,20.4c0,11.3,9.2,20.4,20.4,20.4
					C831.6,325.5,840.8,316.3,840.8,305z M800.5,305c0-10.9,8.9-19.8,19.8-19.8c10.9,0,19.8,8.9,19.8,19.8
					c0,10.9-8.9,19.8-19.8,19.8C809.4,324.9,800.5,316,800.5,305z"/>
				<path class="st2" d="M846.6,305c0-14.4-11.7-26.2-26.2-26.2c-14.4,0-26.2,11.7-26.2,26.2c0,14.4,11.7,26.2,26.2,26.2
					C834.8,331.2,846.6,319.5,846.6,305z M794.8,305c0-14.1,11.5-25.6,25.6-25.6c14.1,0,25.6,11.5,25.6,25.6
					c0,14.1-11.5,25.6-25.6,25.6C806.3,330.6,794.8,319.2,794.8,305z"/>
				<path class="st2" d="M820.4,300.4c-2.6,0-4.7,2.1-4.7,4.7c0,2.6,2.1,4.7,4.7,4.7c2.6,0,4.7-2.1,4.7-4.7
					C825,302.5,822.9,300.4,820.4,300.4z M820.4,309.1c-2.2,0-4.1-1.8-4.1-4.1c0-2.2,1.8-4.1,4.1-4.1c2.2,0,4.1,1.8,4.1,4.1
					C824.4,307.3,822.6,309.1,820.4,309.1z"/>
				<path class="st2" d="M876.6,317.8c-7,0-12.8,5.7-12.8,12.8s5.7,12.8,12.8,12.8c7,0,12.8-5.7,12.8-12.8S883.6,317.8,876.6,317.8z
					 M876.6,342.7c-6.7,0-12.2-5.5-12.2-12.2s5.5-12.2,12.2-12.2c6.7,0,12.2,5.5,12.2,12.2S883.3,342.7,876.6,342.7z"/>
				<path class="st2" d="M876.6,323.4c-4,0-7.2,3.2-7.2,7.2s3.2,7.2,7.2,7.2c4,0,7.2-3.2,7.2-7.2S880.5,323.4,876.6,323.4z
					 M876.6,337.1c-3.6,0-6.6-3-6.6-6.6c0-3.6,3-6.6,6.6-6.6c3.6,0,6.6,3,6.6,6.6C883.1,334.2,880.2,337.1,876.6,337.1z"/>
				<path class="st2" d="M876.6,320.4c-5.6,0-10.1,4.6-10.1,10.1s4.6,10.1,10.1,10.1c5.6,0,10.2-4.6,10.2-10.1
					S882.2,320.4,876.6,320.4z M876.6,340.1c-5.3,0-9.6-4.3-9.6-9.6s4.3-9.6,9.6-9.6c5.3,0,9.6,4.3,9.6,9.6S881.8,340.1,876.6,340.1
					z"/>
				<path class="st2" d="M889.8,320.7c-5.4-7.3-15.8-8.8-23.1-3.3c-7.3,5.4-8.8,15.8-3.3,23.1c3.2,4.3,8.2,6.6,13.2,6.6
					c3.4,0,6.9-1.1,9.9-3.3C893.7,338.3,895.2,327.9,889.8,320.7z M886.1,343.3c-7,5.2-17,3.8-22.2-3.2c-5.2-7-3.8-17,3.2-22.2
					c2.8-2.1,6.2-3.2,9.5-3.2c4.8,0,9.6,2.2,12.7,6.4C894.5,328,893.1,338,886.1,343.3z"/>
				<path class="st2" d="M876.6,310.1c-11.3,0-20.4,9.2-20.4,20.4s9.2,20.4,20.4,20.4c11.3,0,20.4-9.2,20.4-20.4
					S887.8,310.1,876.6,310.1z M876.6,350.4c-10.9,0-19.8-8.9-19.8-19.8s8.9-19.8,19.8-19.8c10.9,0,19.8,8.9,19.8,19.8
					S887.5,350.4,876.6,350.4z"/>
				<path class="st2" d="M876.6,304.4c-14.4,0-26.2,11.7-26.2,26.2s11.7,26.2,26.2,26.2c14.4,0,26.2-11.7,26.2-26.2
					S891,304.4,876.6,304.4z M876.6,356.1c-14.1,0-25.6-11.5-25.6-25.6s11.5-25.6,25.6-25.6c14.1,0,25.6,11.5,25.6,25.6
					S890.7,356.1,876.6,356.1z"/>
				<path class="st2" d="M876.6,325.9c-2.6,0-4.7,2.1-4.7,4.7s2.1,4.7,4.7,4.7s4.7-2.1,4.7-4.7S879.1,325.9,876.6,325.9z
					 M876.6,334.6c-2.2,0-4.1-1.8-4.1-4.1s1.8-4.1,4.1-4.1c2.2,0,4.1,1.8,4.1,4.1S878.8,334.6,876.6,334.6z"/>
				<path class="st2" d="M824.1,353.5c-7,0-12.8,5.7-12.8,12.8c0,7,5.7,12.8,12.8,12.8s12.8-5.7,12.8-12.8
					C836.8,359.2,831.1,353.5,824.1,353.5z M824.1,378.5c-6.7,0-12.2-5.5-12.2-12.2c0-6.7,5.5-12.2,12.2-12.2
					c6.7,0,12.2,5.5,12.2,12.2C836.3,373,830.8,378.5,824.1,378.5z"/>
				<path class="st2" d="M824.1,359.1c-4,0-7.2,3.2-7.2,7.2s3.2,7.2,7.2,7.2c4,0,7.2-3.2,7.2-7.2S828,359.1,824.1,359.1z
					 M824.1,372.9c-3.6,0-6.6-3-6.6-6.6c0-3.6,3-6.6,6.6-6.6s6.6,3,6.6,6.6C830.7,369.9,827.7,372.9,824.1,372.9z"/>
				<path class="st2" d="M824.1,356.1c-5.6,0-10.1,4.6-10.1,10.1c0,5.6,4.6,10.2,10.1,10.2s10.1-4.6,10.1-10.2
					C834.2,360.7,829.7,356.1,824.1,356.1z M824.1,375.8c-5.3,0-9.6-4.3-9.6-9.6s4.3-9.6,9.6-9.6c5.3,0,9.6,4.3,9.6,9.6
					S829.3,375.8,824.1,375.8z"/>
				<path class="st2" d="M814.2,353.1c-7.3,5.4-8.8,15.8-3.3,23.1c3.2,4.3,8.2,6.6,13.2,6.6c3.4,0,6.9-1.1,9.9-3.3
					c7.3-5.4,8.8-15.8,3.3-23.1C831.8,349.1,821.5,347.6,814.2,353.1z M833.6,379c-7,5.2-17,3.8-22.2-3.2c-5.2-7-3.8-17,3.2-22.2
					c2.8-2.1,6.2-3.2,9.5-3.2c4.8,0,9.6,2.2,12.7,6.4C842.1,363.8,840.6,373.8,833.6,379z"/>
				<path class="st2" d="M824.1,345.9c-11.3,0-20.4,9.2-20.4,20.4c0,11.3,9.2,20.4,20.4,20.4c11.3,0,20.4-9.2,20.4-20.4
					C844.5,355,835.3,345.9,824.1,345.9z M824.1,386.1c-10.9,0-19.8-8.9-19.8-19.8s8.9-19.8,19.8-19.8c10.9,0,19.8,8.9,19.8,19.8
					S835,386.1,824.1,386.1z"/>
				<path class="st2" d="M824.1,340.1c-14.4,0-26.2,11.7-26.2,26.2s11.7,26.2,26.2,26.2c14.4,0,26.2-11.7,26.2-26.2
					S838.5,340.1,824.1,340.1z M824.1,391.9c-14.1,0-25.6-11.5-25.6-25.6s11.5-25.6,25.6-25.6c14.1,0,25.6,11.5,25.6,25.6
					S838.2,391.9,824.1,391.9z"/>
				<path class="st2" d="M824.1,361.6c-2.6,0-4.7,2.1-4.7,4.7c0,2.6,2.1,4.7,4.7,4.7s4.7-2.1,4.7-4.7
					C828.7,363.7,826.7,361.6,824.1,361.6z M824.1,370.4c-2.2,0-4.1-1.8-4.1-4.1c0-2.2,1.8-4.1,4.1-4.1c2.2,0,4.1,1.8,4.1,4.1
					C828.1,368.5,826.3,370.4,824.1,370.4z"/>
				<path class="st2" d="M876.8,297c-9.2,0-17.6,3.8-23.7,9.9c0-0.6,0.1-1.2,0.1-1.8c0-18.4-15-33.4-33.4-33.4
					c-18.4,0-33.4,15-33.4,33.4c0,14.5,9.3,26.8,22.2,31.4c-10.6,5.6-17.8,16.7-17.8,29.5c0,18.4,15,33.4,33.4,33.4
					c18.4,0,33.4-15,33.4-33.4c0-3.3-0.5-6.4-1.3-9.4c5.7,4.5,12.8,7.1,20.6,7.1c18.4,0,33.4-15,33.4-33.4
					C910.1,312,895.2,297,876.8,297z M787,305c0-18.1,14.7-32.8,32.8-32.8c18.1,0,32.8,14.7,32.8,32.8c0,0.8,0,1.7-0.1,2.5
					c-5,5.3-8.3,12.3-8.9,20.1c-2.6,2.7-5.6,5-9,6.7c-3.3-1.1-6.8-1.7-10.4-1.7c-5.3,0-10.4,1.3-14.8,3.5
					C796.4,331.7,787,319.5,787,305z M852.4,308.5c-0.7,7-3.7,13.4-8.2,18.4C844.9,319.9,847.9,313.5,852.4,308.5z M844.7,339.7
					c-2.8-2.2-6-4-9.4-5.2c3-1.6,5.7-3.6,8.1-6c0,0.6-0.1,1.2-0.1,1.8C843.4,333.6,843.9,336.8,844.7,339.7z M833.8,334.7
					c-4.2,2-9,3.1-14,3.1c-3.4,0-6.6-0.5-9.6-1.4c4.2-2,9-3.1,14-3.1C827.5,333.2,830.7,333.7,833.8,334.7z M856.9,366
					c0,18.1-14.7,32.8-32.8,32.8c-18.1,0-32.8-14.7-32.8-32.8c0-12.8,7.3-23.8,18-29.2c3.3,1.1,6.8,1.7,10.4,1.7
					c5.3,0,10.4-1.3,14.8-3.5c3.9,1.3,7.4,3.3,10.4,5.8c2,6,5.6,11.2,10.3,15.2C856.4,359.1,856.9,362.5,856.9,366z M846,341.5
					c4,3.6,7.1,8.1,9,13.3C850.9,351.2,847.8,346.7,846,341.5z M876.8,363.1c-7.9,0-15.2-2.8-20.9-7.6c-2-6-5.6-11.2-10.3-15.2
					c-1-3.2-1.6-6.5-1.6-10c0-0.8,0-1.7,0.1-2.5c5-5.3,8.3-12.3,8.9-20.1c6-6.3,14.4-10.2,23.7-10.2c18.1,0,32.8,14.7,32.8,32.8
					C909.5,348.4,894.8,363.1,876.8,363.1z"/>
			</g>
		</g>
		<g>
			<g>
				<path class="st0" d="M825.2,326.2l15.5-8.9l16.3,9.6c0,0,15.2-8.7,19.2,0.7c0,0-1.5,9-19.9,18.7c-18.4,9.7-15.3,8.8-15.3,8.8
					l-16.5-9.5c0,0-20.6-12.8-19-19.1C805.6,326.4,805.4,318.6,825.2,326.2z"/>
			</g>
		</g>
	</g>
	<g>
		<path class="st0" d="M903.4,316.7v4.2c-1-0.5-1.9-0.9-2.9-1.1c-0.9-0.3-1.8-0.4-2.7-0.4c-1.1,0-1.9,0.2-2.5,0.5
			c-0.5,0.3-0.8,0.9-0.8,1.6c0,0.5,0.2,1,0.5,1.3c0.4,0.3,1,0.6,2,0.8l2,0.4c2,0.4,3.4,1.1,4.3,2c0.8,0.9,1.3,2.2,1.3,3.9
			c0,2.2-0.6,3.9-1.8,4.9c-1.2,1.1-3,1.6-5.4,1.6c-1.1,0-2.3-0.1-3.4-0.4c-1.1-0.2-2.3-0.6-3.5-1.1v-4.4c1.2,0.7,2.3,1.2,3.3,1.5
			c1.1,0.3,2.1,0.5,3.1,0.5c1,0,1.8-0.2,2.3-0.6c0.5-0.4,0.8-0.9,0.8-1.6c0-0.6-0.2-1.1-0.6-1.4c-0.4-0.3-1.1-0.6-2.2-0.9l-1.8-0.4
			c-1.8-0.4-3.1-1.1-4-2.1c-0.8-0.9-1.3-2.2-1.3-3.8c0-2,0.6-3.5,1.7-4.6c1.2-1.1,2.8-1.6,5-1.6c1,0,2,0.1,3.1,0.2
			C901.2,316.1,902.3,316.4,903.4,316.7z"/>
		<path class="st0" d="M908.6,316.1h4.7v20h-4.7V316.1z"/>
		<path class="st0" d="M934,334.6c-1.2,0.6-2.4,1.1-3.6,1.4c-1.2,0.3-2.5,0.5-3.9,0.5c-3,0-5.4-0.9-7.1-2.8
			c-1.8-1.9-2.6-4.4-2.6-7.6c0-3.2,0.9-5.8,2.7-7.6c1.8-1.9,4.2-2.8,7.3-2.8c1.2,0,2.3,0.1,3.4,0.4c1.1,0.3,2.1,0.6,3.1,1.1v4.1
			c-1-0.6-2-1.1-3-1.4c-1-0.3-2-0.5-3-0.5c-1.9,0-3.3,0.6-4.3,1.7c-1,1.1-1.5,2.8-1.5,4.9c0,2.1,0.5,3.8,1.4,4.9
			c1,1.2,2.3,1.7,4.1,1.7c0.5,0,0.9,0,1.3-0.1c0.4-0.1,0.8-0.2,1.1-0.3v-3.9h-2.8V325h7.2V334.6z"/>
		<path class="st0" d="M950.7,316.7v4.2c-1-0.5-1.9-0.9-2.9-1.1c-0.9-0.3-1.8-0.4-2.7-0.4c-1.1,0-1.9,0.2-2.5,0.5
			c-0.5,0.3-0.8,0.9-0.8,1.6c0,0.5,0.2,1,0.5,1.3c0.4,0.3,1,0.6,2,0.8l2,0.4c2,0.4,3.4,1.1,4.3,2c0.8,0.9,1.3,2.2,1.3,3.9
			c0,2.2-0.6,3.9-1.8,4.9c-1.2,1.1-3,1.6-5.4,1.6c-1.1,0-2.3-0.1-3.4-0.4c-1.1-0.2-2.3-0.6-3.5-1.1v-4.4c1.2,0.7,2.3,1.2,3.3,1.5
			c1.1,0.3,2.1,0.5,3.1,0.5c1,0,1.8-0.2,2.3-0.6c0.5-0.4,0.8-0.9,0.8-1.6c0-0.6-0.2-1.1-0.6-1.4c-0.4-0.3-1.1-0.6-2.2-0.9l-1.8-0.4
			c-1.8-0.4-3.1-1.1-4-2.1c-0.8-0.9-1.3-2.2-1.3-3.8c0-2,0.6-3.5,1.7-4.6c1.2-1.1,2.8-1.6,5-1.6c1,0,2,0.1,3.1,0.2
			S949.6,316.4,950.7,316.7z"/>
		<path class="st0" d="M970.2,335c-0.9,0.5-1.8,0.9-2.7,1.1c-0.9,0.3-1.9,0.4-2.9,0.4c-3,0-5.4-0.9-7.1-2.8
			c-1.8-1.9-2.6-4.4-2.6-7.6c0-3.2,0.9-5.7,2.6-7.6c1.8-1.9,4.1-2.8,7.1-2.8c1,0,2,0.1,2.9,0.4c0.9,0.3,1.8,0.6,2.7,1.1v4.1
			c-0.9-0.7-1.7-1.1-2.6-1.4c-0.8-0.3-1.7-0.5-2.6-0.5c-1.7,0-3,0.6-3.9,1.8c-0.9,1.2-1.4,2.8-1.4,4.9c0,2.1,0.5,3.7,1.4,4.9
			c0.9,1.2,2.3,1.8,3.9,1.8c0.9,0,1.8-0.2,2.6-0.5c0.8-0.3,1.7-0.8,2.6-1.4V335z"/>
		<path class="st0" d="M985,332.5h-7.3l-1.2,3.6h-4.7l6.7-20h5.5l6.7,20h-4.7L985,332.5z M978.9,328.7h4.9l-2.5-8L978.9,328.7z"/>
		<path class="st0" d="M993.2,316.1h5.2l6.6,13.7v-13.7h4.4v20h-5.2l-6.5-13.7v13.7h-4.4V316.1z"/>
	</g>
	<g>
		<path class="st0" d="M885.6,352.5h-1.4v-9.9h1.4V352.5z"/>
		<path class="st0" d="M887.9,345.4h1.4v7.1h-1.4V345.4z M892.2,348.2c0-0.5-0.1-0.9-0.4-1.2s-0.6-0.4-1.1-0.4
			c-0.5,0-0.8,0.1-1.1,0.4c-0.2,0.2-0.4,0.6-0.4,1l-0.1-1.4c0.2-0.4,0.5-0.8,0.9-1c0.4-0.2,0.7-0.3,1.2-0.3c0.8,0,1.4,0.3,1.8,0.8
			c0.4,0.5,0.6,1.2,0.6,2.1v4.3h-1.4V348.2z"/>
		<path class="st0" d="M896.7,352.3c-0.4-0.2-0.6-0.6-0.8-1s-0.3-1-0.3-1.6v-1.6c0-0.6,0.1-1.1,0.3-1.6c0.2-0.4,0.5-0.8,0.8-1
			c0.4-0.2,0.8-0.3,1.3-0.3c0.4,0,0.8,0.1,1.2,0.3s0.6,0.5,0.8,0.9l-0.1,1.4c0-0.3-0.1-0.6-0.2-0.8s-0.3-0.4-0.5-0.5
			c-0.2-0.1-0.5-0.2-0.8-0.2c-0.5,0-0.8,0.1-1.1,0.4s-0.4,0.7-0.4,1.2v1.5c0,0.5,0.1,0.9,0.4,1.2c0.3,0.3,0.6,0.4,1.1,0.4
			c0.3,0,0.5-0.1,0.8-0.2c0.2-0.1,0.4-0.3,0.5-0.5s0.2-0.5,0.2-0.8l0.1,1.5c-0.1,0.4-0.4,0.6-0.7,0.9s-0.7,0.4-1.2,0.4
			C897.5,352.6,897,352.5,896.7,352.3z M899.8,342.6h1.4v9.9h-1.4V342.6z"/>
		<path class="st0" d="M904.4,352.2c-0.4-0.2-0.8-0.6-1-1.1c-0.2-0.5-0.3-1-0.3-1.7v-1.2c0-0.6,0.1-1.2,0.3-1.7c0.2-0.5,0.6-0.8,1-1
			c0.4-0.2,1-0.4,1.6-0.4s1.1,0.1,1.6,0.4c0.4,0.2,0.8,0.6,1,1c0.2,0.5,0.3,1,0.3,1.7v1.2c0,0.6-0.1,1.2-0.3,1.7
			c-0.2,0.5-0.6,0.8-1,1s-1,0.4-1.6,0.4S904.9,352.5,904.4,352.2z M907.1,350.8c0.3-0.3,0.4-0.7,0.4-1.3v-1.2c0-0.6-0.1-1-0.4-1.3
			s-0.6-0.5-1.1-0.5c-0.5,0-0.9,0.2-1.1,0.5s-0.4,0.7-0.4,1.3v1.2c0,0.6,0.1,1,0.4,1.3s0.6,0.5,1.1,0.5
			C906.5,351.3,906.9,351.1,907.1,350.8z"/>
		<path class="st0" d="M912.1,352.2c-0.4-0.2-0.8-0.6-1-1.1c-0.2-0.5-0.3-1-0.3-1.7v-1.2c0-0.6,0.1-1.2,0.3-1.7c0.2-0.5,0.6-0.8,1-1
			c0.4-0.2,1-0.4,1.6-0.4s1.1,0.1,1.6,0.4c0.4,0.2,0.8,0.6,1,1c0.2,0.5,0.3,1,0.3,1.7v1.2c0,0.6-0.1,1.2-0.3,1.7
			c-0.2,0.5-0.6,0.8-1,1s-1,0.4-1.6,0.4S912.5,352.5,912.1,352.2z M914.8,350.8c0.3-0.3,0.4-0.7,0.4-1.3v-1.2c0-0.6-0.1-1-0.4-1.3
			s-0.6-0.5-1.1-0.5c-0.5,0-0.9,0.2-1.1,0.5s-0.4,0.7-0.4,1.3v1.2c0,0.6,0.1,1,0.4,1.3s0.6,0.5,1.1,0.5
			C914.1,351.3,914.5,351.1,914.8,350.8z"/>
		<path class="st0" d="M918.5,345.4h1.4v7.1h-1.4V345.4z M922,346.7c-0.2-0.1-0.4-0.1-0.6-0.1c-0.4,0-0.8,0.1-1,0.4
			c-0.2,0.2-0.4,0.6-0.4,1l-0.1-1.4c0.2-0.4,0.5-0.8,0.8-1c0.3-0.2,0.7-0.4,1.1-0.4c0.3,0,0.6,0,0.9,0.1c0.3,0.1,0.5,0.2,0.7,0.4
			l-0.9,1.2C922.3,346.9,922.2,346.8,922,346.7z"/>
		<path class="st0" d="M929.8,342.6h1.2l3.7,9.9h-1.5l-2.8-8l-2.8,8h-1.5L929.8,342.6z M927.8,349h5.2v1.3h-5.2V349z"/>
		<path class="st0" d="M937.9,352.6c0,0-0.2,0-0.6-0.1c-0.4-0.1-0.7-0.2-1-0.4c-0.3-0.2-0.6-0.4-0.9-0.6l0.8-1
			c0.4,0.3,0.8,0.5,1.1,0.7c0.4,0.1,0.8,0.2,1.1,0.2c0.6,0,1-0.1,1.2-0.3c0.3-0.2,0.4-0.4,0.4-0.8c0-0.2-0.1-0.4-0.2-0.5
			s-0.3-0.2-0.6-0.2c-0.2,0-0.5-0.1-0.9-0.1c0,0-0.1,0-0.1,0c0,0-0.1,0-0.1,0c0,0,0,0-0.1,0c0,0,0,0-0.1,0c-0.5,0-0.9-0.1-1.2-0.2
			c-0.3-0.1-0.6-0.3-0.8-0.5s-0.3-0.7-0.3-1.2s0.1-0.9,0.3-1.3s0.5-0.6,0.9-0.7c0.4-0.2,0.9-0.2,1.5-0.2c0.4,0,0.7,0,1.1,0.1
			s0.7,0.2,1,0.3c0.3,0.1,0.6,0.3,0.9,0.5l-0.8,1c-0.4-0.2-0.7-0.4-1-0.5c-0.3-0.1-0.7-0.2-1-0.2c-0.5,0-0.8,0.1-1.1,0.2
			c-0.2,0.2-0.4,0.4-0.4,0.7c0,0.2,0.1,0.3,0.2,0.4c0.1,0.1,0.3,0.2,0.5,0.2s0.5,0.1,0.9,0.1c0,0,0.1,0,0.1,0c0,0,0.1,0,0.1,0
			c0,0,0,0,0,0s0,0,0,0c0.5,0,0.9,0.1,1.3,0.2s0.6,0.3,0.9,0.6c0.2,0.3,0.4,0.7,0.4,1.3c0,0.5-0.1,0.9-0.3,1.3
			c-0.2,0.3-0.5,0.6-1,0.8s-1,0.3-1.7,0.3C938.1,352.6,937.9,352.6,937.9,352.6z"/>
		<path class="st0" d="M945.1,352.6c0,0-0.2,0-0.5-0.1c-0.4-0.1-0.7-0.2-1-0.4s-0.6-0.4-0.9-0.6l0.8-1c0.4,0.3,0.8,0.5,1.1,0.7
			s0.8,0.2,1.1,0.2c0.6,0,1-0.1,1.2-0.3c0.3-0.2,0.4-0.4,0.4-0.8c0-0.2-0.1-0.4-0.2-0.5s-0.3-0.2-0.6-0.2c-0.2,0-0.5-0.1-0.9-0.1
			c0,0-0.1,0-0.1,0c0,0-0.1,0-0.1,0c0,0,0,0-0.1,0c0,0,0,0-0.1,0c-0.5,0-0.8-0.1-1.2-0.2c-0.3-0.1-0.6-0.3-0.8-0.5
			c-0.2-0.3-0.3-0.7-0.3-1.2s0.1-0.9,0.3-1.3s0.5-0.6,0.9-0.7c0.4-0.2,0.9-0.2,1.5-0.2c0.4,0,0.7,0,1.1,0.1c0.3,0.1,0.7,0.2,1,0.3
			c0.3,0.1,0.6,0.3,0.9,0.5l-0.8,1c-0.4-0.2-0.7-0.4-1-0.5c-0.3-0.1-0.7-0.2-1-0.2c-0.5,0-0.8,0.1-1.1,0.2c-0.2,0.2-0.4,0.4-0.4,0.7
			c0,0.2,0.1,0.3,0.2,0.4c0.1,0.1,0.3,0.2,0.5,0.2s0.5,0.1,0.9,0.1c0,0,0.1,0,0.1,0c0,0,0.1,0,0.1,0c0,0,0,0,0,0s0,0,0,0
			c0.5,0,0.9,0.1,1.3,0.2c0.3,0.1,0.6,0.3,0.9,0.6s0.4,0.7,0.4,1.3c0,0.5-0.1,0.9-0.3,1.3c-0.2,0.3-0.5,0.6-1,0.8
			c-0.4,0.2-1,0.3-1.7,0.3C945.3,352.6,945.1,352.6,945.1,352.6z"/>
		<path class="st0" d="M952.4,352.6c0,0-0.2-0.1-0.7-0.4s-0.8-0.6-1.1-1.1c-0.2-0.5-0.4-1.1-0.4-1.7v-0.8c0-0.7,0.1-1.3,0.4-1.8
			c0.2-0.5,0.6-0.9,1-1.1s1-0.4,1.6-0.4c0.6,0,1.1,0.1,1.5,0.4s0.7,0.7,1,1.3c0.2,0.6,0.3,1.2,0.3,2v0.5h-4.8v-1.1h3.5
			c0-0.6-0.2-1-0.4-1.4c-0.3-0.3-0.6-0.5-1-0.5c-0.5,0-0.9,0.2-1.2,0.5c-0.3,0.3-0.4,0.8-0.4,1.5v0.9c0,0.6,0.2,1,0.5,1.4
			s0.8,0.5,1.3,0.5c0.3,0,0.6-0.1,0.8-0.2s0.5-0.3,0.7-0.5l0.9,0.9c-0.4,0.3-0.7,0.6-1.2,0.8c-0.4,0.2-0.9,0.3-1.3,0.3
			C952.7,352.6,952.4,352.6,952.4,352.6z"/>
		<path class="st0" d="M957.5,345.4h3.2v1.3h-3.2V345.4z M958.6,352c-0.3-0.3-0.4-0.8-0.4-1.4v-7.3h1.4v7.3c0,0.2,0,0.3,0.1,0.4
			c0.1,0.1,0.2,0.1,0.3,0.1h0.7v1.3h-0.8C959.3,352.5,958.8,352.4,958.6,352z"/>
		<path class="st0" d="M963.7,342.6h7v1.3h-7V342.6z M966.5,343.4h1.4v9.1h-1.4V343.4z"/>
		<path class="st0" d="M971.1,345.4h1.4v7.1h-1.4V345.4z M974.6,346.7c-0.2-0.1-0.4-0.1-0.6-0.1c-0.4,0-0.8,0.1-1,0.4
			c-0.2,0.2-0.4,0.6-0.4,1l-0.1-1.4c0.2-0.4,0.5-0.8,0.8-1c0.3-0.2,0.7-0.4,1.1-0.4c0.3,0,0.6,0,0.9,0.1c0.3,0.1,0.5,0.2,0.7,0.4
			l-0.9,1.2C974.9,346.9,974.8,346.8,974.6,346.7z"/>
		<path class="st0" d="M977.4,352c-0.4-0.4-0.6-0.9-0.6-1.7c0-0.7,0.2-1.2,0.6-1.6s1-0.5,1.8-0.5h2l0.1,1.1h-2.1
			c-0.4,0-0.6,0.1-0.8,0.2c-0.2,0.2-0.3,0.4-0.3,0.7c0,0.4,0.1,0.6,0.4,0.8c0.2,0.2,0.6,0.3,1.1,0.3c0.5,0,0.9-0.1,1.2-0.2
			c0.3-0.1,0.4-0.3,0.4-0.5l0.1,1c-0.1,0.2-0.3,0.3-0.5,0.5c-0.2,0.1-0.4,0.2-0.6,0.3c-0.2,0.1-0.5,0.1-0.8,0.1
			C978.5,352.6,977.9,352.4,977.4,352z M981.1,348c0-0.5-0.1-0.8-0.4-1.1c-0.2-0.3-0.6-0.4-1.1-0.4c-0.3,0-0.6,0-0.8,0.1
			c-0.3,0.1-0.5,0.2-0.7,0.4l-1-0.7c0.3-0.3,0.6-0.6,1.1-0.8c0.4-0.2,0.9-0.3,1.5-0.3c0.6,0,1.1,0.1,1.5,0.3c0.4,0.2,0.7,0.5,1,0.9
			c0.2,0.4,0.3,0.9,0.3,1.4v4.6h-1.3V348z"/>
		<path class="st0" d="M986.5,352.6c0,0-0.2-0.1-0.7-0.4c-0.5-0.2-0.8-0.6-1-1.1s-0.4-1-0.4-1.7v-1.2c0-0.6,0.1-1.2,0.4-1.6
			s0.6-0.8,1-1c0.5-0.2,1-0.4,1.7-0.4c0.4,0,0.7,0,1,0.1c0.3,0.1,0.6,0.2,0.9,0.4s0.5,0.4,0.6,0.6l-1,0.9c-0.2-0.2-0.4-0.4-0.7-0.5
			s-0.5-0.2-0.8-0.2c-0.5,0-1,0.2-1.3,0.5s-0.4,0.7-0.4,1.3v1.2c0,0.6,0.1,1,0.4,1.3c0.3,0.3,0.7,0.5,1.3,0.5c0.3,0,0.6-0.1,0.8-0.2
			s0.5-0.3,0.7-0.6l1,1c-0.2,0.2-0.4,0.4-0.7,0.6c-0.3,0.2-0.6,0.3-0.9,0.4c-0.3,0.1-0.7,0.1-1,0.1
			C986.8,352.6,986.5,352.6,986.5,352.6z"/>
		<path class="st0" d="M991.5,342.6h1.4v9.9h-1.4V342.6z M992.1,349.8l3.7-4.4h1.6l-5.4,6.1L992.1,349.8z M993.8,348.4l0.9-0.9
			l3.1,5h-1.5L993.8,348.4z"/>
		<path class="st0" d="M999,342.6h1.4v1.4H999V342.6z M999,345.4h1.4v7.1H999V345.4z"/>
		<path class="st0" d="M1002.5,345.4h1.4v7.1h-1.4V345.4z M1006.8,348.2c0-0.5-0.1-0.9-0.4-1.2s-0.6-0.4-1.1-0.4
			c-0.5,0-0.8,0.1-1.1,0.4c-0.2,0.2-0.4,0.6-0.4,1l-0.1-1.4c0.2-0.4,0.5-0.8,0.9-1c0.4-0.2,0.7-0.3,1.2-0.3c0.8,0,1.4,0.3,1.8,0.8
			c0.4,0.5,0.6,1.2,0.6,2.1v4.3h-1.4V348.2z"/>
		<path class="st0" d="M1011.2,352.3c-0.4-0.2-0.6-0.6-0.8-1s-0.3-1-0.3-1.6v-1.6c0-0.6,0.1-1.1,0.3-1.6s0.5-0.8,0.8-1
			c0.4-0.2,0.8-0.3,1.3-0.3c0.4,0,0.8,0.1,1.2,0.3c0.3,0.2,0.6,0.5,0.8,0.9l-0.1,1.4c0-0.3-0.1-0.6-0.2-0.8s-0.3-0.4-0.5-0.5
			c-0.2-0.1-0.5-0.2-0.8-0.2c-0.5,0-0.8,0.1-1.1,0.4c-0.3,0.3-0.4,0.7-0.4,1.2v1.5c0,0.5,0.1,0.9,0.4,1.2c0.3,0.3,0.6,0.4,1.1,0.4
			c0.3,0,0.5-0.1,0.8-0.2c0.2-0.1,0.4-0.3,0.5-0.5s0.2-0.5,0.2-0.8l0.1,1.5c-0.1,0.4-0.4,0.6-0.7,0.9c-0.3,0.2-0.7,0.4-1.2,0.4
			C1012,352.6,1011.6,352.5,1011.2,352.3z M1011.9,355.4c0,0-0.2-0.1-0.6-0.3c-0.4-0.2-0.7-0.5-1-0.8l0.9-0.9
			c0.2,0.3,0.4,0.4,0.7,0.6c0.3,0.1,0.5,0.2,0.8,0.2c0.5,0,0.9-0.1,1.2-0.4c0.3-0.3,0.4-0.7,0.4-1.2v-7.1h1.4v6.9
			c0,0.7-0.1,1.2-0.4,1.7c-0.2,0.5-0.6,0.8-1,1.1s-1,0.4-1.6,0.4C1012.1,355.4,1011.9,355.4,1011.9,355.4z"/>
	</g>
	<g>
		<g>
			<polygon class="st2" points="825.4,327.2 832.9,321.9 840.7,326.7 847.5,322.6 857,327.5 857,346.8 840.9,355.4 824.8,346.1 			
				"/>
		</g>
		<path class="st3" d="M876.2,327c-0.7-1.6-1.9-2.7-3.5-3.4c-5-1.9-13.2,1.4-15.6,2.4l-6.5-3.7l9.2-5.6c0.6-0.2,1-0.7,1-1.3
			c0-0.8-0.6-1.4-1.4-1.4c-0.2,0-0.3,0-0.4,0.1l0,0l0,0c-0.2,0.1-0.4,0.2-0.5,0.3l-10.5,6.4l-7.1-4.1l-7.2,4.2l-10.1-6.2
			c-0.2-0.3-0.6-0.4-1-0.4c-0.8,0-1.4,0.6-1.4,1.4c0,0.4,0.1,0.7,0.4,1l0,0l0,0c0.1,0.1,0.3,0.3,0.5,0.3l8.9,5.5l-6.4,3.7
			c-2.4-1-10.6-4.3-15.6-2.4c-1.7,0.6-2.9,1.8-3.5,3.4c-3.3,8,16.2,19,18.5,20.3l15.4,8.9v7.2l1.4,1.2l1.3-1.2v-7.2l15.4-8.9
			C860,346,879.5,334.9,876.2,327z M840.9,319.7l4.5,2.6l-4.7,2.8l-4.5-2.7L840.9,319.7z M833.6,323.9l7.1,4.3l7.3-4.4l6.4,3.7
			l-13.5,7.8l-13.5-7.8L833.6,323.9z M840.9,338.3l14.8-8.5v6.2l-15.4,9.3l-14.2-8.7v-6.9L840.9,338.3z M823.5,343.8
			c-7.9-4.7-17-12-15.4-15.8c0.4-0.9,1.1-1.5,2-1.9c3.6-1.4,10.3,0.9,13.4,2.3V343.8z M840.9,353.9l-14.8-8.5v-5.6l14.2,8.7
			l15.4-9.3v6.2L840.9,353.9z M858.3,343.8v-15.5c3.1-1.3,9.8-3.6,13.4-2.3c1,0.4,1.7,1,2,1.9C875.3,331.8,866.2,339.1,858.3,343.8z
			"/>
	</g>
</g>
<g>
	<defs>
		<rect id="SVGID_3_" x="755" y="595" width="229" height="74"/>
	</defs>
	<clipPath id="SVGID_4_">
		<use xlink:href="#SVGID_3_"  style="overflow:visible;"/>
	</clipPath>
	<g class="st4">
		<ellipse class="st0" cx="799.2" cy="632" rx="36" ry="37"/>
		<g>
			<g>
				<defs>
					<ellipse id="SVGID_5_" cx="798.9" cy="632.2" rx="35.9" ry="36.7"/>
				</defs>
				<clipPath id="SVGID_6_">
					<use xlink:href="#SVGID_5_"  style="overflow:visible;"/>
				</clipPath>
				<g class="st5">
					<path class="st2" d="M791.4,603c0-7-5.7-12.8-12.8-12.8c-7,0-12.8,5.7-12.8,12.8c0,7,5.7,12.8,12.8,12.8
						C785.6,615.8,791.4,610.1,791.4,603z M778.6,615.2c-6.7,0-12.2-5.5-12.2-12.2c0-6.7,5.5-12.2,12.2-12.2
						c6.7,0,12.2,5.5,12.2,12.2C790.8,609.8,785.3,615.2,778.6,615.2z"/>
					<path class="st2" d="M778.6,595.9c-4,0-7.2,3.2-7.2,7.2c0,4,3.2,7.2,7.2,7.2c4,0,7.2-3.2,7.2-7.2
						C785.8,599.1,782.6,595.9,778.6,595.9z M778.6,609.6c-3.6,0-6.6-3-6.6-6.6s3-6.6,6.6-6.6s6.6,3,6.6,6.6
						S782.2,609.6,778.6,609.6z"/>
					<path class="st2" d="M778.6,592.9c-5.6,0-10.2,4.6-10.2,10.1c0,5.6,4.6,10.2,10.2,10.2c5.6,0,10.1-4.6,10.1-10.2
						C788.7,597.4,784.2,592.9,778.6,592.9z M778.6,612.6c-5.3,0-9.6-4.3-9.6-9.6c0-5.3,4.3-9.6,9.6-9.6c5.3,0,9.6,4.3,9.6,9.6
						C788.2,608.3,783.9,612.6,778.6,612.6z"/>
					<path class="st2" d="M788.5,616.2c7.3-5.4,8.8-15.8,3.3-23.1c-5.4-7.3-15.8-8.8-23.1-3.3c-7.3,5.4-8.8,15.8-3.3,23.1
						c2.6,3.5,6.5,5.8,10.8,6.4c0.8,0.1,1.6,0.2,2.4,0.2C782.2,619.5,785.6,618.4,788.5,616.2z M765.9,612.6c-5.2-7-3.8-17,3.2-22.2
						c2.8-2.1,6.2-3.2,9.5-3.2c4.8,0,9.6,2.2,12.7,6.4c5.2,7,3.8,17-3.2,22.2c-3.4,2.5-7.6,3.6-11.8,3
						C772.1,618.2,768.4,616,765.9,612.6z"/>
					<path class="st2" d="M799,603c0-11.3-9.2-20.4-20.4-20.4c-11.3,0-20.4,9.2-20.4,20.4c0,11.3,9.2,20.4,20.4,20.4
						C789.9,623.5,799,614.3,799,603z M758.8,603c0-10.9,8.9-19.8,19.8-19.8c10.9,0,19.8,8.9,19.8,19.8c0,10.9-8.9,19.8-19.8,19.8
						C767.7,622.9,758.8,614,758.8,603z"/>
					<path class="st2" d="M804.8,603c0-14.4-11.7-26.2-26.2-26.2c-14.4,0-26.2,11.7-26.2,26.2c0,14.4,11.7,26.2,26.2,26.2
						C793,629.2,804.8,617.5,804.8,603z M753,603c0-14.1,11.5-25.6,25.6-25.6c14.1,0,25.6,11.5,25.6,25.6
						c0,14.1-11.5,25.6-25.6,25.6C764.5,628.6,753,617.2,753,603z"/>
					<path class="st2" d="M778.6,598.4c-2.6,0-4.7,2.1-4.7,4.7s2.1,4.7,4.7,4.7s4.7-2.1,4.7-4.7S781.2,598.4,778.6,598.4z
						 M778.6,607.1c-2.2,0-4.1-1.8-4.1-4.1c0-2.2,1.8-4.1,4.1-4.1s4.1,1.8,4.1,4.1C782.7,605.3,780.8,607.1,778.6,607.1z"/>
					<path class="st2" d="M834.8,615.8c-7,0-12.8,5.7-12.8,12.8s5.7,12.8,12.8,12.8c7,0,12.8-5.7,12.8-12.8S841.8,615.8,834.8,615.8
						z M834.8,640.7c-6.7,0-12.2-5.5-12.2-12.2s5.5-12.2,12.2-12.2c6.7,0,12.2,5.5,12.2,12.2S841.5,640.7,834.8,640.7z"/>
					<path class="st2" d="M834.8,621.4c-4,0-7.2,3.2-7.2,7.2s3.2,7.2,7.2,7.2c4,0,7.2-3.2,7.2-7.2S838.7,621.4,834.8,621.4z
						 M834.8,635.1c-3.6,0-6.6-3-6.6-6.6s3-6.6,6.6-6.6c3.6,0,6.6,3,6.6,6.6S838.4,635.1,834.8,635.1z"/>
					<path class="st2" d="M834.8,618.4c-5.6,0-10.1,4.6-10.1,10.1s4.6,10.1,10.1,10.1c5.6,0,10.2-4.6,10.2-10.1
						S840.4,618.4,834.8,618.4z M834.8,638.1c-5.3,0-9.6-4.3-9.6-9.6s4.3-9.6,9.6-9.6c5.3,0,9.6,4.3,9.6,9.6S840,638.1,834.8,638.1z
						"/>
					<path class="st2" d="M848,618.7c-5.4-7.3-15.8-8.8-23.1-3.3c-7.3,5.4-8.8,15.8-3.3,23.1c3.2,4.3,8.2,6.6,13.2,6.6
						c3.4,0,6.9-1.1,9.9-3.3C851.9,636.3,853.4,625.9,848,618.7z M844.3,641.3c-7,5.2-17,3.8-22.2-3.2c-5.2-7-3.8-17,3.2-22.2
						c2.8-2.1,6.2-3.2,9.5-3.2c4.8,0,9.6,2.2,12.7,6.4C852.7,626,851.3,636,844.3,641.3z"/>
					<path class="st2" d="M834.8,608.1c-11.3,0-20.4,9.2-20.4,20.4s9.2,20.4,20.4,20.4c11.3,0,20.4-9.2,20.4-20.4
						S846,608.1,834.8,608.1z M834.8,648.4c-10.9,0-19.8-8.9-19.8-19.8s8.9-19.8,19.8-19.8c10.9,0,19.8,8.9,19.8,19.8
						S845.7,648.4,834.8,648.4z"/>
					<path class="st2" d="M834.8,602.4c-14.4,0-26.2,11.7-26.2,26.2s11.7,26.2,26.2,26.2c14.4,0,26.2-11.7,26.2-26.2
						S849.2,602.4,834.8,602.4z M834.8,654.1c-14.1,0-25.6-11.5-25.6-25.6s11.5-25.6,25.6-25.6c14.1,0,25.6,11.5,25.6,25.6
						S848.9,654.1,834.8,654.1z"/>
					<path class="st2" d="M834.8,623.9c-2.6,0-4.7,2.1-4.7,4.7s2.1,4.7,4.7,4.7c2.6,0,4.7-2.1,4.7-4.7S837.3,623.9,834.8,623.9z
						 M834.8,632.6c-2.2,0-4.1-1.8-4.1-4.1s1.8-4.1,4.1-4.1c2.2,0,4.1,1.8,4.1,4.1S837,632.6,834.8,632.6z"/>
					<path class="st2" d="M782.3,651.5c-7,0-12.8,5.7-12.8,12.8c0,7,5.7,12.8,12.8,12.8s12.8-5.7,12.8-12.8
						C795.1,657.2,789.3,651.5,782.3,651.5z M782.3,676.5c-6.7,0-12.2-5.5-12.2-12.2c0-6.7,5.5-12.2,12.2-12.2
						c6.7,0,12.2,5.5,12.2,12.2C794.5,671,789,676.5,782.3,676.5z"/>
					<path class="st2" d="M782.3,657.1c-4,0-7.2,3.2-7.2,7.2c0,4,3.2,7.2,7.2,7.2c4,0,7.2-3.2,7.2-7.2
						C789.5,660.3,786.3,657.1,782.3,657.1z M782.3,670.9c-3.6,0-6.6-3-6.6-6.6c0-3.6,3-6.6,6.6-6.6s6.6,3,6.6,6.6
						C788.9,667.9,785.9,670.9,782.3,670.9z"/>
					<path class="st2" d="M782.3,654.1c-5.6,0-10.1,4.6-10.1,10.1c0,5.6,4.6,10.2,10.1,10.2s10.1-4.6,10.1-10.2
						C792.5,658.7,787.9,654.1,782.3,654.1z M782.3,673.8c-5.3,0-9.6-4.3-9.6-9.6c0-5.3,4.3-9.6,9.6-9.6c5.3,0,9.6,4.3,9.6,9.6
						C791.9,669.6,787.6,673.8,782.3,673.8z"/>
					<path class="st2" d="M772.4,651.1c-7.3,5.4-8.8,15.8-3.3,23.1c3.2,4.3,8.2,6.6,13.2,6.6c3.4,0,6.9-1.1,9.9-3.3
						c7.3-5.4,8.8-15.8,3.3-23.1C790.1,647.1,779.7,645.6,772.4,651.1z M791.8,677c-7,5.2-17,3.8-22.2-3.2c-5.2-7-3.8-17,3.2-22.2
						c2.8-2.1,6.2-3.2,9.5-3.2c4.8,0,9.6,2.2,12.7,6.4C800.3,661.8,798.8,671.8,791.8,677z"/>
					<path class="st2" d="M782.3,643.9c-11.3,0-20.4,9.2-20.4,20.4c0,11.3,9.2,20.4,20.4,20.4s20.4-9.2,20.4-20.4
						C802.7,653,793.6,643.9,782.3,643.9z M782.3,684.1c-10.9,0-19.8-8.9-19.8-19.8c0-10.9,8.9-19.8,19.8-19.8
						c10.9,0,19.8,8.9,19.8,19.8C802.1,675.2,793.2,684.1,782.3,684.1z"/>
					<path class="st2" d="M782.3,638.1c-14.4,0-26.2,11.7-26.2,26.2c0,14.4,11.7,26.2,26.2,26.2c14.4,0,26.2-11.7,26.2-26.2
						C808.5,649.8,796.7,638.1,782.3,638.1z M782.3,689.9c-14.1,0-25.6-11.5-25.6-25.6c0-14.1,11.5-25.6,25.6-25.6
						s25.6,11.5,25.6,25.6C807.9,678.4,796.4,689.9,782.3,689.9z"/>
					<path class="st2" d="M782.3,659.6c-2.6,0-4.7,2.1-4.7,4.7c0,2.6,2.1,4.7,4.7,4.7s4.7-2.1,4.7-4.7
						C787,661.7,784.9,659.6,782.3,659.6z M782.3,668.4c-2.2,0-4.1-1.8-4.1-4.1c0-2.2,1.8-4.1,4.1-4.1s4.1,1.8,4.1,4.1
						C786.4,666.5,784.5,668.4,782.3,668.4z"/>
					<path class="st2" d="M835,595c-9.2,0-17.6,3.8-23.7,9.9c0-0.6,0.1-1.2,0.1-1.8c0-18.4-15-33.4-33.4-33.4
						c-18.4,0-33.4,15-33.4,33.4c0,14.5,9.3,26.8,22.2,31.4c-10.6,5.6-17.8,16.7-17.8,29.5c0,18.4,15,33.4,33.4,33.4
						c18.4,0,33.4-15,33.4-33.4c0-3.3-0.5-6.4-1.3-9.4c5.7,4.5,12.8,7.1,20.6,7.1c18.4,0,33.4-15,33.4-33.4S853.4,595,835,595z
						 M745.2,603c0-18.1,14.7-32.8,32.8-32.8c18.1,0,32.8,14.7,32.8,32.8c0,0.8,0,1.7-0.1,2.5c-5,5.3-8.3,12.3-8.9,20.1
						c-2.6,2.7-5.6,5-9,6.7c-3.3-1.1-6.8-1.7-10.4-1.7c-5.3,0-10.4,1.3-14.8,3.5C754.6,629.7,745.2,617.5,745.2,603z M810.6,606.5
						c-0.7,7-3.7,13.4-8.2,18.4C803.1,617.9,806.1,611.5,810.6,606.5z M803,637.7c-2.8-2.2-6-4-9.4-5.2c3-1.6,5.7-3.6,8.1-6
						c0,0.6-0.1,1.2-0.1,1.8C801.6,631.6,802.1,634.8,803,637.7z M792,632.7c-4.2,2-9,3.1-14,3.1c-3.4,0-6.6-0.5-9.6-1.4
						c4.2-2,9-3.1,14-3.1C785.7,631.2,789,631.7,792,632.7z M815.1,664c0,18.1-14.7,32.8-32.8,32.8c-18.1,0-32.8-14.7-32.8-32.8
						c0-12.8,7.3-23.8,18-29.2c3.3,1.1,6.8,1.7,10.4,1.7c5.3,0,10.4-1.3,14.8-3.5c3.9,1.3,7.4,3.3,10.4,5.8c2,6,5.6,11.2,10.3,15.2
						C814.6,657.1,815.1,660.5,815.1,664z M804.2,639.5c4,3.6,7.1,8.1,9,13.3C809.2,649.2,806,644.7,804.2,639.5z M835,661.1
						c-7.9,0-15.2-2.8-20.9-7.6c-2-6-5.6-11.2-10.3-15.2c-1-3.2-1.6-6.5-1.6-10c0-0.8,0-1.7,0.1-2.5c5-5.3,8.3-12.3,8.9-20.1
						c6-6.3,14.4-10.2,23.7-10.2c18.1,0,32.8,14.7,32.8,32.8C867.7,646.4,853,661.1,835,661.1z"/>
				</g>
			</g>
			<g>
				<g>
					<path class="st0" d="M783.5,624.2l15.5-8.9l16.3,9.6c0,0,15.2-8.7,19.2,0.7c0,0-1.5,9-19.9,18.7c-18.4,9.7-15.3,8.8-15.3,8.8
						l-16.5-9.5c0,0-20.6-12.8-19-19.1C763.8,624.4,763.7,616.6,783.5,624.2z"/>
				</g>
			</g>
		</g>
		<g>
			<path class="st3" d="M861.6,614.7v4.2c-1-0.5-1.9-0.9-2.9-1.1c-0.9-0.3-1.8-0.4-2.7-0.4c-1.1,0-1.9,0.2-2.5,0.5
				c-0.5,0.3-0.8,0.9-0.8,1.6c0,0.5,0.2,1,0.5,1.3c0.4,0.3,1,0.6,2,0.8l2,0.4c2,0.4,3.4,1.1,4.3,2c0.8,0.9,1.3,2.2,1.3,3.9
				c0,2.2-0.6,3.9-1.8,4.9c-1.2,1.1-3,1.6-5.4,1.6c-1.1,0-2.3-0.1-3.4-0.4c-1.1-0.2-2.3-0.6-3.5-1.1v-4.4c1.2,0.7,2.3,1.2,3.3,1.5
				c1.1,0.3,2.1,0.5,3.1,0.5c1,0,1.8-0.2,2.3-0.6c0.5-0.4,0.8-0.9,0.8-1.6c0-0.6-0.2-1.1-0.6-1.4c-0.4-0.3-1.1-0.6-2.2-0.9l-1.8-0.4
				c-1.8-0.4-3.1-1.1-4-2.1c-0.8-0.9-1.3-2.2-1.3-3.8c0-2,0.6-3.5,1.7-4.6c1.2-1.1,2.8-1.6,5-1.6c1,0,2,0.1,3.1,0.2
				C859.4,614.1,860.5,614.4,861.6,614.7z"/>
			<path class="st3" d="M866.9,614.1h4.7v20h-4.7V614.1z"/>
			<path class="st3" d="M892.3,632.6c-1.2,0.6-2.4,1.1-3.6,1.4c-1.2,0.3-2.5,0.5-3.9,0.5c-3,0-5.4-0.9-7.1-2.8
				c-1.8-1.9-2.6-4.4-2.6-7.6c0-3.2,0.9-5.8,2.7-7.6c1.8-1.9,4.2-2.8,7.3-2.8c1.2,0,2.3,0.1,3.4,0.4c1.1,0.3,2.1,0.6,3.1,1.1v4.1
				c-1-0.6-2-1.1-3-1.4c-1-0.3-2-0.5-3-0.5c-1.9,0-3.3,0.6-4.3,1.7c-1,1.1-1.5,2.8-1.5,4.9c0,2.1,0.5,3.8,1.4,4.9
				c1,1.2,2.3,1.7,4.1,1.7c0.5,0,0.9,0,1.3-0.1c0.4-0.1,0.8-0.2,1.1-0.3v-3.9H885V623h7.2V632.6z"/>
			<path class="st3" d="M908.9,614.7v4.2c-1-0.5-1.9-0.9-2.9-1.1c-0.9-0.3-1.8-0.4-2.7-0.4c-1.1,0-1.9,0.2-2.5,0.5
				c-0.5,0.3-0.8,0.9-0.8,1.6c0,0.5,0.2,1,0.5,1.3c0.4,0.3,1,0.6,2,0.8l2,0.4c2,0.4,3.4,1.1,4.3,2c0.8,0.9,1.3,2.2,1.3,3.9
				c0,2.2-0.6,3.9-1.8,4.9c-1.2,1.1-3,1.6-5.4,1.6c-1.1,0-2.3-0.1-3.4-0.4c-1.1-0.2-2.3-0.6-3.5-1.1v-4.4c1.2,0.7,2.3,1.2,3.3,1.5
				c1.1,0.3,2.1,0.5,3.1,0.5c1,0,1.8-0.2,2.3-0.6c0.5-0.4,0.8-0.9,0.8-1.6c0-0.6-0.2-1.1-0.6-1.4c-0.4-0.3-1.1-0.6-2.2-0.9l-1.8-0.4
				c-1.8-0.4-3.1-1.1-4-2.1c-0.8-0.9-1.3-2.2-1.3-3.8c0-2,0.6-3.5,1.7-4.6c1.2-1.1,2.8-1.6,5-1.6c1,0,2,0.1,3.1,0.2
				C906.7,614.1,907.8,614.4,908.9,614.7z"/>
			<path class="st3" d="M928.5,633c-0.9,0.5-1.8,0.9-2.7,1.1c-0.9,0.3-1.9,0.4-2.9,0.4c-3,0-5.4-0.9-7.1-2.8
				c-1.8-1.9-2.6-4.4-2.6-7.6c0-3.2,0.9-5.7,2.6-7.6c1.8-1.9,4.1-2.8,7.1-2.8c1,0,2,0.1,2.9,0.4c0.9,0.3,1.8,0.6,2.7,1.1v4.1
				c-0.9-0.7-1.7-1.1-2.6-1.4c-0.8-0.3-1.7-0.5-2.6-0.5c-1.7,0-3,0.6-3.9,1.8c-0.9,1.2-1.4,2.8-1.4,4.9c0,2.1,0.5,3.7,1.4,4.9
				c0.9,1.2,2.3,1.8,3.9,1.8c0.9,0,1.8-0.2,2.6-0.5c0.8-0.3,1.7-0.8,2.6-1.4V633z"/>
			<path class="st3" d="M943.2,630.5H936l-1.2,3.6h-4.7l6.7-20h5.5l6.7,20h-4.7L943.2,630.5z M937.1,626.7h4.9l-2.5-8L937.1,626.7z"
				/>
			<path class="st3" d="M951.4,614.1h5.2l6.6,13.7v-13.7h4.4v20h-5.2l-6.5-13.7v13.7h-4.4V614.1z"/>
		</g>
		<g>
			<path class="st3" d="M843.8,650.5h-1.4v-9.9h1.4V650.5z"/>
			<path class="st3" d="M846.1,643.4h1.4v7.1h-1.4V643.4z M850.4,646.2c0-0.5-0.1-0.9-0.4-1.2s-0.6-0.4-1.1-0.4
				c-0.5,0-0.8,0.1-1.1,0.4c-0.2,0.2-0.4,0.6-0.4,1l-0.1-1.4c0.2-0.4,0.5-0.8,0.9-1c0.4-0.2,0.7-0.3,1.2-0.3c0.8,0,1.4,0.3,1.8,0.8
				c0.4,0.5,0.6,1.2,0.6,2.1v4.3h-1.4V646.2z"/>
			<path class="st3" d="M854.9,650.3c-0.4-0.2-0.6-0.6-0.8-1s-0.3-1-0.3-1.6v-1.6c0-0.6,0.1-1.1,0.3-1.6c0.2-0.4,0.5-0.8,0.8-1
				c0.4-0.2,0.8-0.3,1.3-0.3c0.4,0,0.8,0.1,1.2,0.3s0.6,0.5,0.8,0.9L858,646c0-0.3-0.1-0.6-0.2-0.8s-0.3-0.4-0.5-0.5
				c-0.2-0.1-0.5-0.2-0.8-0.2c-0.5,0-0.8,0.1-1.1,0.4s-0.4,0.7-0.4,1.2v1.5c0,0.5,0.1,0.9,0.4,1.2c0.3,0.3,0.6,0.4,1.1,0.4
				c0.3,0,0.5-0.1,0.8-0.2c0.2-0.1,0.4-0.3,0.5-0.5s0.2-0.5,0.2-0.8l0.1,1.5c-0.1,0.4-0.4,0.6-0.7,0.9s-0.7,0.4-1.2,0.4
				C855.7,650.6,855.2,650.5,854.9,650.3z M858,640.6h1.4v9.9H858V640.6z"/>
			<path class="st3" d="M862.6,650.2c-0.4-0.2-0.8-0.6-1-1.1c-0.2-0.5-0.3-1-0.3-1.7v-1.2c0-0.6,0.1-1.2,0.3-1.7
				c0.2-0.5,0.6-0.8,1-1c0.4-0.2,1-0.4,1.6-0.4s1.1,0.1,1.6,0.4c0.4,0.2,0.8,0.6,1,1c0.2,0.5,0.3,1,0.3,1.7v1.2
				c0,0.6-0.1,1.2-0.3,1.7c-0.2,0.5-0.6,0.8-1,1s-1,0.4-1.6,0.4S863.1,650.5,862.6,650.2z M865.4,648.8c0.3-0.3,0.4-0.7,0.4-1.3
				v-1.2c0-0.6-0.1-1-0.4-1.3s-0.6-0.5-1.1-0.5c-0.5,0-0.9,0.2-1.1,0.5s-0.4,0.7-0.4,1.3v1.2c0,0.6,0.1,1,0.4,1.3s0.6,0.5,1.1,0.5
				C864.7,649.3,865.1,649.1,865.4,648.8z"/>
			<path class="st3" d="M870.3,650.2c-0.4-0.2-0.8-0.6-1-1.1c-0.2-0.5-0.3-1-0.3-1.7v-1.2c0-0.6,0.1-1.2,0.3-1.7
				c0.2-0.5,0.6-0.8,1-1c0.4-0.2,1-0.4,1.6-0.4s1.1,0.1,1.6,0.4c0.4,0.2,0.8,0.6,1,1c0.2,0.5,0.3,1,0.3,1.7v1.2
				c0,0.6-0.1,1.2-0.3,1.7c-0.2,0.5-0.6,0.8-1,1s-1,0.4-1.6,0.4S870.7,650.5,870.3,650.2z M873,648.8c0.3-0.3,0.4-0.7,0.4-1.3v-1.2
				c0-0.6-0.1-1-0.4-1.3s-0.6-0.5-1.1-0.5c-0.5,0-0.9,0.2-1.1,0.5s-0.4,0.7-0.4,1.3v1.2c0,0.6,0.1,1,0.4,1.3s0.6,0.5,1.1,0.5
				C872.3,649.3,872.7,649.1,873,648.8z"/>
			<path class="st3" d="M876.8,643.4h1.4v7.1h-1.4V643.4z M880.2,644.7c-0.2-0.1-0.4-0.1-0.6-0.1c-0.4,0-0.8,0.1-1,0.4
				c-0.2,0.2-0.4,0.6-0.4,1l-0.1-1.4c0.2-0.4,0.5-0.8,0.8-1c0.3-0.2,0.7-0.4,1.1-0.4c0.3,0,0.6,0,0.9,0.1c0.3,0.1,0.5,0.2,0.7,0.4
				l-0.9,1.2C880.5,644.9,880.4,644.8,880.2,644.7z"/>
			<path class="st3" d="M888,640.6h1.2l3.7,9.9h-1.5l-2.8-8l-2.8,8h-1.5L888,640.6z M886,647h5.2v1.3H886V647z"/>
			<path class="st3" d="M896.1,650.6c0,0-0.2,0-0.6-0.1c-0.4-0.1-0.7-0.2-1-0.4c-0.3-0.2-0.6-0.4-0.9-0.6l0.8-1
				c0.4,0.3,0.8,0.5,1.1,0.7c0.4,0.1,0.8,0.2,1.1,0.2c0.6,0,1-0.1,1.2-0.3c0.3-0.2,0.4-0.4,0.4-0.8c0-0.2-0.1-0.4-0.2-0.5
				s-0.3-0.2-0.6-0.2c-0.2,0-0.5-0.1-0.9-0.1c0,0-0.1,0-0.1,0c0,0-0.1,0-0.1,0c0,0,0,0-0.1,0c0,0,0,0-0.1,0c-0.5,0-0.9-0.1-1.2-0.2
				c-0.3-0.1-0.6-0.3-0.8-0.5s-0.3-0.7-0.3-1.2s0.1-0.9,0.3-1.3s0.5-0.6,0.9-0.7c0.4-0.2,0.9-0.2,1.5-0.2c0.4,0,0.7,0,1.1,0.1
				s0.7,0.2,1,0.3c0.3,0.1,0.6,0.3,0.9,0.5l-0.8,1c-0.4-0.2-0.7-0.4-1-0.5c-0.3-0.1-0.7-0.2-1-0.2c-0.5,0-0.8,0.1-1.1,0.2
				c-0.2,0.2-0.4,0.4-0.4,0.7c0,0.2,0.1,0.3,0.2,0.4c0.1,0.1,0.3,0.2,0.5,0.2s0.5,0.1,0.9,0.1c0,0,0.1,0,0.1,0c0,0,0.1,0,0.1,0
				c0,0,0,0,0,0s0,0,0,0c0.5,0,0.9,0.1,1.3,0.2s0.6,0.3,0.9,0.6c0.2,0.3,0.4,0.7,0.4,1.3c0,0.5-0.1,0.9-0.3,1.3
				c-0.2,0.3-0.5,0.6-1,0.8s-1,0.3-1.7,0.3C896.3,650.6,896.1,650.6,896.1,650.6z"/>
			<path class="st3" d="M903.3,650.6c0,0-0.2,0-0.5-0.1c-0.4-0.1-0.7-0.2-1-0.4s-0.6-0.4-0.9-0.6l0.8-1c0.4,0.3,0.8,0.5,1.1,0.7
				s0.8,0.2,1.1,0.2c0.6,0,1-0.1,1.2-0.3c0.3-0.2,0.4-0.4,0.4-0.8c0-0.2-0.1-0.4-0.2-0.5s-0.3-0.2-0.6-0.2c-0.2,0-0.5-0.1-0.9-0.1
				c0,0-0.1,0-0.1,0c0,0-0.1,0-0.1,0c0,0,0,0-0.1,0c0,0,0,0-0.1,0c-0.5,0-0.8-0.1-1.2-0.2c-0.3-0.1-0.6-0.3-0.8-0.5
				c-0.2-0.3-0.3-0.7-0.3-1.2s0.1-0.9,0.3-1.3s0.5-0.6,0.9-0.7c0.4-0.2,0.9-0.2,1.5-0.2c0.4,0,0.7,0,1.1,0.1c0.3,0.1,0.7,0.2,1,0.3
				c0.3,0.1,0.6,0.3,0.9,0.5l-0.8,1c-0.4-0.2-0.7-0.4-1-0.5c-0.3-0.1-0.7-0.2-1-0.2c-0.5,0-0.8,0.1-1.1,0.2
				c-0.2,0.2-0.4,0.4-0.4,0.7c0,0.2,0.1,0.3,0.2,0.4c0.1,0.1,0.3,0.2,0.5,0.2s0.5,0.1,0.9,0.1c0,0,0.1,0,0.1,0c0,0,0.1,0,0.1,0
				c0,0,0,0,0,0s0,0,0,0c0.5,0,0.9,0.1,1.3,0.2c0.3,0.1,0.6,0.3,0.9,0.6s0.4,0.7,0.4,1.3c0,0.5-0.1,0.9-0.3,1.3
				c-0.2,0.3-0.5,0.6-1,0.8c-0.4,0.2-1,0.3-1.7,0.3C903.5,650.6,903.3,650.6,903.3,650.6z"/>
			<path class="st3" d="M910.6,650.6c0,0-0.2-0.1-0.7-0.4s-0.8-0.6-1.1-1.1c-0.2-0.5-0.4-1.1-0.4-1.7v-0.8c0-0.7,0.1-1.3,0.4-1.8
				c0.2-0.5,0.6-0.9,1-1.1s1-0.4,1.6-0.4c0.6,0,1.1,0.1,1.5,0.4s0.7,0.7,1,1.3c0.2,0.6,0.3,1.2,0.3,2v0.5h-4.8v-1.1h3.5
				c0-0.6-0.2-1-0.4-1.4c-0.3-0.3-0.6-0.5-1-0.5c-0.5,0-0.9,0.2-1.2,0.5c-0.3,0.3-0.4,0.8-0.4,1.5v0.9c0,0.6,0.2,1,0.5,1.4
				s0.8,0.5,1.3,0.5c0.3,0,0.6-0.1,0.8-0.2s0.5-0.3,0.7-0.5l0.9,0.9c-0.4,0.3-0.7,0.6-1.2,0.8c-0.4,0.2-0.9,0.3-1.3,0.3
				C911,650.6,910.6,650.6,910.6,650.6z"/>
			<path class="st3" d="M915.7,643.4h3.2v1.3h-3.2V643.4z M916.8,650c-0.3-0.3-0.4-0.8-0.4-1.4v-7.3h1.4v7.3c0,0.2,0,0.3,0.1,0.4
				c0.1,0.1,0.2,0.1,0.3,0.1h0.7v1.3h-0.8C917.5,650.5,917.1,650.4,916.8,650z"/>
			<path class="st3" d="M921.9,640.6h7v1.3h-7V640.6z M924.8,641.4h1.4v9.1h-1.4V641.4z"/>
			<path class="st3" d="M929.4,643.4h1.4v7.1h-1.4V643.4z M932.8,644.7c-0.2-0.1-0.4-0.1-0.6-0.1c-0.4,0-0.8,0.1-1,0.4
				c-0.2,0.2-0.4,0.6-0.4,1l-0.1-1.4c0.2-0.4,0.5-0.8,0.8-1c0.3-0.2,0.7-0.4,1.1-0.4c0.3,0,0.6,0,0.9,0.1c0.3,0.1,0.5,0.2,0.7,0.4
				l-0.9,1.2C933.1,644.9,933,644.8,932.8,644.7z"/>
			<path class="st3" d="M935.7,650c-0.4-0.4-0.6-0.9-0.6-1.7c0-0.7,0.2-1.2,0.6-1.6s1-0.5,1.8-0.5h2l0.1,1.1h-2.1
				c-0.4,0-0.6,0.1-0.8,0.2c-0.2,0.2-0.3,0.4-0.3,0.7c0,0.4,0.1,0.6,0.4,0.8c0.2,0.2,0.6,0.3,1.1,0.3c0.5,0,0.9-0.1,1.2-0.2
				c0.3-0.1,0.4-0.3,0.4-0.5l0.1,1c-0.1,0.2-0.3,0.3-0.5,0.5c-0.2,0.1-0.4,0.2-0.6,0.3c-0.2,0.1-0.5,0.1-0.8,0.1
				C936.7,650.6,936.1,650.4,935.7,650z M939.3,646c0-0.5-0.1-0.8-0.4-1.1c-0.2-0.3-0.6-0.4-1.1-0.4c-0.3,0-0.6,0-0.8,0.1
				c-0.3,0.1-0.5,0.2-0.7,0.4l-1-0.7c0.3-0.3,0.6-0.6,1.1-0.8c0.4-0.2,0.9-0.3,1.5-0.3c0.6,0,1.1,0.1,1.5,0.3c0.4,0.2,0.7,0.5,1,0.9
				c0.2,0.4,0.3,0.9,0.3,1.4v4.6h-1.3V646z"/>
			<path class="st3" d="M944.7,650.6c0,0-0.2-0.1-0.7-0.4c-0.5-0.2-0.8-0.6-1-1.1s-0.4-1-0.4-1.7v-1.2c0-0.6,0.1-1.2,0.4-1.6
				s0.6-0.8,1-1c0.5-0.2,1-0.4,1.7-0.4c0.4,0,0.7,0,1,0.1c0.3,0.1,0.6,0.2,0.9,0.4s0.5,0.4,0.6,0.6l-1,0.9c-0.2-0.2-0.4-0.4-0.7-0.5
				s-0.5-0.2-0.8-0.2c-0.5,0-1,0.2-1.3,0.5s-0.4,0.7-0.4,1.3v1.2c0,0.6,0.1,1,0.4,1.3c0.3,0.3,0.7,0.5,1.3,0.5
				c0.3,0,0.6-0.1,0.8-0.2s0.5-0.3,0.7-0.6l1,1c-0.2,0.2-0.4,0.4-0.7,0.6c-0.3,0.2-0.6,0.3-0.9,0.4c-0.3,0.1-0.7,0.1-1,0.1
				C945,650.6,944.7,650.6,944.7,650.6z"/>
			<path class="st3" d="M949.8,640.6h1.4v9.9h-1.4V640.6z M950.4,647.8l3.7-4.4h1.6l-5.4,6.1L950.4,647.8z M952,646.4l0.9-0.9l3.1,5
				h-1.5L952,646.4z"/>
			<path class="st3" d="M957.2,640.6h1.4v1.4h-1.4V640.6z M957.2,643.4h1.4v7.1h-1.4V643.4z"/>
			<path class="st3" d="M960.7,643.4h1.4v7.1h-1.4V643.4z M965,646.2c0-0.5-0.1-0.9-0.4-1.2s-0.6-0.4-1.1-0.4
				c-0.5,0-0.8,0.1-1.1,0.4c-0.2,0.2-0.4,0.6-0.4,1l-0.1-1.4c0.2-0.4,0.5-0.8,0.9-1c0.4-0.2,0.7-0.3,1.2-0.3c0.8,0,1.4,0.3,1.8,0.8
				c0.4,0.5,0.6,1.2,0.6,2.1v4.3H965V646.2z"/>
			<path class="st3" d="M969.4,650.3c-0.4-0.2-0.6-0.6-0.8-1s-0.3-1-0.3-1.6v-1.6c0-0.6,0.1-1.1,0.3-1.6s0.5-0.8,0.8-1
				c0.4-0.2,0.8-0.3,1.3-0.3c0.4,0,0.8,0.1,1.2,0.3c0.3,0.2,0.6,0.5,0.8,0.9l-0.1,1.4c0-0.3-0.1-0.6-0.2-0.8s-0.3-0.4-0.5-0.5
				c-0.2-0.1-0.5-0.2-0.8-0.2c-0.5,0-0.8,0.1-1.1,0.4c-0.3,0.3-0.4,0.7-0.4,1.2v1.5c0,0.5,0.1,0.9,0.4,1.2c0.3,0.3,0.6,0.4,1.1,0.4
				c0.3,0,0.5-0.1,0.8-0.2c0.2-0.1,0.4-0.3,0.5-0.5s0.2-0.5,0.2-0.8l0.1,1.5c-0.1,0.4-0.4,0.6-0.7,0.9c-0.3,0.2-0.7,0.4-1.2,0.4
				C970.2,650.6,969.8,650.5,969.4,650.3z M970.1,653.4c0,0-0.2-0.1-0.6-0.3c-0.4-0.2-0.7-0.5-1-0.8l0.9-0.9
				c0.2,0.3,0.4,0.4,0.7,0.6c0.3,0.1,0.5,0.2,0.8,0.2c0.5,0,0.9-0.1,1.2-0.4c0.3-0.3,0.4-0.7,0.4-1.2v-7.1h1.4v6.9
				c0,0.7-0.1,1.2-0.4,1.7c-0.2,0.5-0.6,0.8-1,1.1s-1,0.4-1.6,0.4C970.3,653.4,970.1,653.4,970.1,653.4z"/>
		</g>
		<g>
			<g>
				<polygon class="st2" points="783.6,625.2 791.1,619.9 798.9,624.7 805.8,620.6 815.2,625.5 815.2,644.8 799.1,653.4 783,644.1 
									"/>
			</g>
			<path class="st3" d="M834.4,625c-0.7-1.6-1.9-2.7-3.5-3.4c-5-1.9-13.2,1.4-15.6,2.4l-6.5-3.7l9.2-5.6c0.6-0.2,1-0.7,1-1.3
				c0-0.8-0.6-1.4-1.4-1.4c-0.2,0-0.3,0-0.4,0.1l0,0l0,0c-0.2,0.1-0.4,0.2-0.5,0.3l-10.5,6.4l-7.1-4.1l-7.2,4.2l-10.1-6.2
				c-0.2-0.3-0.6-0.4-1-0.4c-0.8,0-1.4,0.6-1.4,1.4c0,0.4,0.1,0.7,0.4,1l0,0l0,0c0.1,0.1,0.3,0.3,0.5,0.3l8.9,5.5l-6.4,3.7
				c-2.4-1-10.6-4.3-15.6-2.4c-1.7,0.6-2.9,1.8-3.5,3.4c-3.3,8,16.2,19,18.5,20.3l15.4,8.9v7.2l1.4,1.2l1.3-1.2v-7.2l15.4-8.9
				C818.2,644,837.7,632.9,834.4,625z M799.1,617.7l4.5,2.6l-4.7,2.8l-4.5-2.7L799.1,617.7z M791.9,621.9l7.1,4.3l7.3-4.4l6.4,3.7
				l-13.5,7.8l-13.5-7.8L791.9,621.9z M799.1,636.3l14.8-8.5v6.2l-15.4,9.3l-14.2-8.7v-6.9L799.1,636.3z M781.7,641.8
				c-7.9-4.7-17-12-15.4-15.8c0.4-0.9,1.1-1.5,2-1.9c3.6-1.4,10.3,0.9,13.4,2.3V641.8z M799.1,651.9l-14.8-8.5v-5.6l14.2,8.7
				l15.4-9.3v6.2L799.1,651.9z M816.5,641.8v-15.5c3.1-1.3,9.8-3.6,13.4-2.3c1,0.4,1.7,1,2,1.9C833.6,629.8,824.4,637.1,816.5,641.8
				z"/>
		</g>
	</g>
</g>
<g>
</g>
<g>
</g>
<g>
</g>
<g>
</g>
<g>
</g>
<g>
</g>
<g>
</g>
<g>
</g>
<g>
</g>
<g>
</g>
<g>
</g>
<g>
</g>
<g>
</g>
<g>
</g>
<g>
</g>
</svg>
