<?xml version="1.0" encoding="utf-8"?>
<!-- Generator: Adobe Illustrator 23.0.6, SVG Export Plug-In . SVG Version: 6.00 Build 0)  -->
<svg version="1.1" id="Calque_1" xmlns="http://www.w3.org/2000/svg" xmlns:xlink="http://www.w3.org/1999/xlink" x="0px" y="0px"
	 viewBox="0 0 1280 1024" style="enable-background:new 0 0 1280 1024;" xml:space="preserve">
<style type="text/css">
	.st0{clip-path:url(#SVGID_2_);}
	.st1{fill:#FFFFFF;}
	.st2{clip-path:url(#SVGID_4_);}
	.st3{fill:#DBB12A;}
	.st4{fill:#332F2F;}
</style>
<g>
	<g>
		<defs>
			<ellipse id="SVGID_1_" cx="202.1" cy="431.5" rx="175.3" ry="181.3"/>
		</defs>
		<use xlink:href="#SVGID_1_"  style="overflow:visible;fill:#FFFFFF;"/>
		<clipPath id="SVGID_2_">
			<use xlink:href="#SVGID_1_"  style="overflow:visible;"/>
		</clipPath>
		<g class="st0">
			<path class="st1" d="M165,287.5c0-34.8-28-63-62.3-63c-34.4,0-62.3,28.3-62.3,63c0,34.8,28,63,62.3,63
				C137.1,350.6,165,322.3,165,287.5z M102.7,347.6c-32.8,0-59.4-27-59.4-60.1s26.7-60.1,59.4-60.1s59.4,27,59.4,60.1
				S135.5,347.6,102.7,347.6z"/>
			<path class="st1" d="M102.7,252c-19.3,0-35.1,15.9-35.1,35.5S83.4,323,102.7,323c19.3,0,35.1-15.9,35.1-35.5S122.1,252,102.7,252
				z M102.7,320.1c-17.7,0-32.2-14.6-32.2-32.5S85,255,102.7,255c17.7,0,32.2,14.6,32.2,32.5S120.5,320.1,102.7,320.1z"/>
			<path class="st1" d="M102.7,237.4c-27.3,0-49.6,22.5-49.6,50.1c0,27.6,22.2,50.1,49.6,50.1c27.3,0,49.5-22.5,49.5-50.1
				C152.3,259.9,130,237.4,102.7,237.4z M102.7,334.7c-25.7,0-46.6-21.2-46.6-47.2s20.9-47.2,46.6-47.2c25.7,0,46.6,21.2,46.6,47.2
				S128.4,334.7,102.7,334.7z"/>
			<path class="st1" d="M150.9,352.7c35.5-26.9,42.8-78,16.2-113.9c-26.6-35.9-77.1-43.3-112.7-16.4s-42.8,78-16.2,113.9
				c12.9,17.4,31.7,28.7,53,31.8c3.9,0.6,7.8,0.8,11.6,0.8C120.1,368.9,136.9,363.3,150.9,352.7z M40.6,334.5
				C15,299.9,22,250.6,56.2,224.7c13.9-10.5,30.2-15.6,46.4-15.6c23.6,0,47,10.9,62.2,31.4c25.6,34.6,18.6,83.9-15.6,109.8
				c-16.6,12.6-37,17.8-57.5,14.8C71.1,362.2,53,351.3,40.6,334.5z"/>
			<path class="st1" d="M202.4,287.5c0-55.6-44.7-100.8-99.7-100.8c-55,0-99.7,45.2-99.7,100.8c0,55.6,44.7,100.8,99.7,100.8
				C157.7,388.4,202.4,343.1,202.4,287.5z M5.9,287.5c0-54,43.4-97.9,96.8-97.9s96.8,43.9,96.8,97.9s-43.4,97.9-96.8,97.9
				S5.9,341.5,5.9,287.5z"/>
			<path class="st1" d="M230.6,287.5c0-71.3-57.4-129.3-127.9-129.3c-70.5,0-127.9,58-127.9,129.3s57.4,129.3,127.9,129.3
				C173.2,416.8,230.6,358.8,230.6,287.5z M-22.2,287.5c0-69.7,56.1-126.3,125-126.3c68.9,0,124.9,56.7,124.9,126.3
				s-56.1,126.3-124.9,126.3C33.8,413.9-22.2,357.2-22.2,287.5z"/>
			<path class="st1" d="M102.7,264.5c-12.5,0-22.7,10.3-22.7,23s10.2,23,22.7,23c12.5,0,22.7-10.3,22.7-23S115.3,264.5,102.7,264.5z
				 M102.7,307.6c-10.9,0-19.8-9-19.8-20.1s8.9-20.1,19.8-20.1c10.9,0,19.8,9,19.8,20.1S113.6,307.6,102.7,307.6z"/>
			<path class="st1" d="M377,350.4c-34.4,0-62.3,28.3-62.3,63s28,63,62.3,63c34.4,0,62.3-28.3,62.3-63S411.3,350.4,377,350.4z
				 M377,473.5c-32.8,0-59.4-27-59.4-60.1s26.7-60.1,59.4-60.1s59.4,27,59.4,60.1S409.7,473.5,377,473.5z"/>
			<path class="st1" d="M377,377.9c-19.3,0-35.1,15.9-35.1,35.5s15.7,35.5,35.1,35.5c19.3,0,35.1-15.9,35.1-35.5
				S396.3,377.9,377,377.9z M377,445.9c-17.7,0-32.2-14.6-32.2-32.5c0-17.9,14.4-32.5,32.2-32.5c17.7,0,32.2,14.6,32.2,32.5
				C409.1,431.3,394.7,445.9,377,445.9z"/>
			<path class="st1" d="M377,363.3c-27.3,0-49.5,22.5-49.5,50.1c0,27.6,22.2,50.1,49.5,50.1c27.3,0,49.6-22.5,49.6-50.1
				C426.5,385.8,404.3,363.3,377,363.3z M377,460.6c-25.7,0-46.6-21.2-46.6-47.2c0-26,20.9-47.2,46.6-47.2s46.6,21.2,46.6,47.2
				C423.6,439.4,402.7,460.6,377,460.6z"/>
			<path class="st1" d="M441.4,364.7c-26.6-35.9-77.1-43.3-112.7-16.4c-35.5,26.9-42.8,78-16.2,113.9c15.8,21.3,40,32.6,64.5,32.6
				c16.8,0,33.7-5.3,48.1-16.2C460.7,451.7,468,400.6,441.4,364.7z M423.4,476.2c-34.3,25.9-83,18.8-108.6-15.8
				c-25.6-34.6-18.6-83.9,15.6-109.8c13.9-10.5,30.2-15.6,46.4-15.6c23.6,0,47,10.9,62.2,31.4C464.7,401.1,457.7,450.3,423.4,476.2z
				"/>
			<path class="st1" d="M377,312.6c-55,0-99.7,45.2-99.7,100.8S322,514.3,377,514.3c55,0,99.7-45.2,99.7-100.8S432,312.6,377,312.6z
				 M377,511.3c-53.4,0-96.8-43.9-96.8-97.9s43.4-97.9,96.8-97.9s96.8,43.9,96.8,97.9S430.3,511.3,377,511.3z"/>
			<path class="st1" d="M377,284.1c-70.5,0-127.9,58-127.9,129.3S306.5,542.7,377,542.7s127.9-58,127.9-129.3S447.5,284.1,377,284.1
				z M377,539.8c-68.9,0-124.9-56.7-124.9-126.3S308.1,287.1,377,287.1s124.9,56.7,124.9,126.3S445.9,539.8,377,539.8z"/>
			<path class="st1" d="M377,390.4c-12.5,0-22.7,10.3-22.7,23s10.2,23,22.7,23s22.7-10.3,22.7-23S389.5,390.4,377,390.4z M377,433.5
				c-10.9,0-19.8-9-19.8-20.1s8.9-20.1,19.8-20.1s19.8,9,19.8,20.1S387.9,433.5,377,433.5z"/>
			<path class="st1" d="M120.8,526.8c-34.4,0-62.3,28.3-62.3,63c0,34.8,28,63,62.3,63s62.3-28.3,62.3-63
				C183.1,555.1,155.2,526.8,120.8,526.8z M120.8,649.9c-32.8,0-59.4-27-59.4-60.1c0-33.1,26.7-60.1,59.4-60.1s59.4,27,59.4,60.1
				C180.2,623,153.6,649.9,120.8,649.9z"/>
			<path class="st1" d="M120.8,554.4c-19.3,0-35.1,15.9-35.1,35.5c0,19.6,15.7,35.5,35.1,35.5c19.3,0,35.1-15.9,35.1-35.5
				C155.9,570.3,140.1,554.4,120.8,554.4z M120.8,622.4c-17.7,0-32.2-14.6-32.2-32.5c0-17.9,14.4-32.5,32.2-32.5
				c17.7,0,32.2,14.6,32.2,32.5C153,607.8,138.5,622.4,120.8,622.4z"/>
			<path class="st1" d="M120.8,539.8c-27.3,0-49.5,22.5-49.5,50.1c0,27.6,22.2,50.1,49.5,50.1s49.5-22.5,49.5-50.1
				C170.3,562.2,148.1,539.8,120.8,539.8z M120.8,637c-25.7,0-46.6-21.2-46.6-47.2c0-26,20.9-47.2,46.6-47.2
				c25.7,0,46.6,21.2,46.6,47.2C167.4,615.9,146.5,637,120.8,637z"/>
			<path class="st1" d="M72.6,524.7c-35.5,26.9-42.8,78-16.2,113.9c15.8,21.3,40,32.6,64.5,32.6c16.8,0,33.7-5.3,48.1-16.2
				c35.5-26.9,42.8-78,16.2-113.9C158.7,505.2,108.1,497.8,72.6,524.7z M167.3,652.7c-34.2,25.9-83,18.8-108.6-15.8
				C33.1,602.2,40.1,553,74.3,527c13.9-10.5,30.2-15.6,46.4-15.6c23.6,0,47,10.9,62.2,31.4C208.5,577.5,201.5,626.7,167.3,652.7z"/>
			<path class="st1" d="M120.8,489c-55,0-99.7,45.2-99.7,100.8c0,55.6,44.7,100.8,99.7,100.8s99.7-45.2,99.7-100.8
				C220.5,534.2,175.8,489,120.8,489z M120.8,687.7c-53.4,0-96.8-43.9-96.8-97.9c0-54,43.4-97.9,96.8-97.9s96.8,43.9,96.8,97.9
				C217.6,643.8,174.2,687.7,120.8,687.7z"/>
			<path class="st1" d="M120.8,460.6c-70.5,0-127.9,58-127.9,129.3s57.4,129.3,127.9,129.3s127.9-58,127.9-129.3
				S191.3,460.6,120.8,460.6z M120.8,716.2c-68.9,0-124.9-56.7-124.9-126.3c0-69.7,56.1-126.3,124.9-126.3s124.9,56.7,124.9,126.3
				C245.7,659.5,189.7,716.2,120.8,716.2z"/>
			<path class="st1" d="M120.8,566.8c-12.5,0-22.7,10.3-22.7,23c0,12.7,10.2,23,22.7,23c12.5,0,22.7-10.3,22.7-23
				C143.5,577.2,133.3,566.8,120.8,566.8z M120.8,609.9c-10.9,0-19.8-9-19.8-20.1s8.9-20.1,19.8-20.1c10.9,0,19.8,9,19.8,20.1
				S131.7,609.9,120.8,609.9z"/>
			<path class="st1" d="M377.9,247.9c-45.1,0-86,18.7-115.5,48.7c0.2-3,0.2-6.1,0.2-9.1c0-90.8-73.1-164.7-162.9-164.7
				S-63.1,196.7-63.1,287.5c0,71.4,45.2,132.4,108.2,155.1c-51.6,27.6-86.9,82.6-86.9,145.6c0,90.8,73.1,164.7,162.9,164.7
				s162.9-73.9,162.9-164.7c0-16-2.3-31.6-6.5-46.2c27.7,22,62.6,35.2,100.5,35.2c89.8,0,162.9-73.9,162.9-164.7
				S467.7,247.9,377.9,247.9z M-60.1,287.5c0-89.2,71.7-161.7,159.9-161.7c88.2,0,159.9,72.5,159.9,161.7c0,4.2-0.2,8.3-0.5,12.4
				c-24.5,26.4-40.5,60.9-43.6,99c-12.5,13.3-27.3,24.5-43.7,32.9c-16-5.3-33.1-8.2-50.8-8.2c-26,0-50.5,6.2-72.4,17.2
				C-14.5,419.2-60.1,358.7-60.1,287.5z M258.8,304.8c-3.6,34.6-18.1,66-39.9,90.6C222.5,360.7,237,329.4,258.8,304.8z M221.6,458.8
				c-13.7-10.9-29.2-19.6-45.9-25.7c14.7-7.8,28-17.9,39.6-29.7c-0.2,3-0.2,6.1-0.2,9.1C215.1,428.6,217.4,444.2,221.6,458.8z
				 M168.2,433.7c-20.7,10-43.9,15.5-68.4,15.5c-16.4,0-32.2-2.5-47.1-7.1c20.7-10,43.9-15.5,68.4-15.5
				C137.5,426.6,153.3,429.1,168.2,433.7z M281,588.3c0,89.2-71.7,161.7-159.9,161.7c-88.2,0-159.9-72.5-159.9-161.7
				c0-63,35.8-117.6,87.8-144.3c16,5.3,33.1,8.2,50.8,8.2c26,0,50.5-6.2,72.4-17.2c18.8,6.4,36.1,16.3,51,28.9
				c9.6,29.5,27.2,55.3,50.2,74.8C278.3,554.3,281,571,281,588.3z M227.6,467.7c19.5,17.7,34.8,40.1,43.9,65.4
				C251.9,515.5,236.7,493.1,227.6,467.7z M377.9,574.3c-38.8,0-74.4-14-102.1-37.3c-9.6-29.5-27.2-55.3-50.2-74.8
				c-5-15.6-7.7-32.3-7.7-49.6c0-4.2,0.2-8.3,0.5-12.4c24.5-26.4,40.5-60.9,43.6-99c29.2-31,70.3-50.3,115.8-50.3
				c88.2,0,159.9,72.5,159.9,161.7C537.9,501.8,466.1,574.3,377.9,574.3z"/>
		</g>
	</g>
	<g>
		<g>
			<path class="st1" d="M126.4,391.8l75.6-44.1l79.5,47.5c0,0,74.1-42.8,93.9,3.2c0,0-7.2,44.5-97.1,92.5s-74.4,43.5-74.4,43.5
				l-80.4-46.9c0,0-100.6-63.1-92.8-94.2C30.7,393.1,29.8,354.4,126.4,391.8z"/>
		</g>
	</g>
</g>
<g>
	<g>
		<defs>
			<ellipse id="SVGID_3_" cx="201.3" cy="431.5" rx="175.3" ry="181.3"/>
		</defs>
		<clipPath id="SVGID_4_">
			<use xlink:href="#SVGID_3_"  style="overflow:visible;"/>
		</clipPath>
		<g class="st2">
			<path class="st3" d="M164.3,287.5c0-34.8-28-63-62.3-63c-34.4,0-62.3,28.3-62.3,63c0,34.8,28,63,62.3,63
				C136.3,350.6,164.3,322.3,164.3,287.5z M101.9,347.6c-32.8,0-59.4-27-59.4-60.1s26.7-60.1,59.4-60.1s59.4,27,59.4,60.1
				S134.7,347.6,101.9,347.6z"/>
			<path class="st3" d="M101.9,252c-19.3,0-35.1,15.9-35.1,35.5S82.6,323,101.9,323c19.3,0,35.1-15.9,35.1-35.5S121.3,252,101.9,252
				z M101.9,320.1c-17.7,0-32.2-14.6-32.2-32.5S84.2,255,101.9,255s32.2,14.6,32.2,32.5S119.7,320.1,101.9,320.1z"/>
			<path class="st3" d="M101.9,237.4c-27.3,0-49.6,22.5-49.6,50.1c0,27.6,22.2,50.1,49.6,50.1c27.3,0,49.5-22.5,49.5-50.1
				C151.5,259.9,129.3,237.4,101.9,237.4z M101.9,334.7c-25.7,0-46.6-21.2-46.6-47.2s20.9-47.2,46.6-47.2s46.6,21.2,46.6,47.2
				S127.7,334.7,101.9,334.7z"/>
			<path class="st3" d="M150.1,352.7c35.5-26.9,42.8-78,16.2-113.9c-26.6-35.9-77.1-43.3-112.7-16.4s-42.8,78-16.2,113.9
				c12.9,17.4,31.7,28.7,53,31.8c3.9,0.6,7.8,0.8,11.6,0.8C119.4,368.9,136.1,363.3,150.1,352.7z M39.8,334.5
				c-25.6-34.6-18.6-83.9,15.6-109.8c13.9-10.5,30.2-15.6,46.4-15.6c23.6,0,47,10.9,62.2,31.4c25.6,34.6,18.6,83.9-15.6,109.8
				c-16.6,12.6-37,17.8-57.5,14.8C70.4,362.2,52.2,351.3,39.8,334.5z"/>
			<path class="st3" d="M201.7,287.5c0-55.6-44.7-100.8-99.7-100.8c-55,0-99.7,45.2-99.7,100.8c0,55.6,44.7,100.8,99.7,100.8
				C156.9,388.4,201.7,343.1,201.7,287.5z M5.1,287.5c0-54,43.4-97.9,96.8-97.9s96.8,43.9,96.8,97.9s-43.4,97.9-96.8,97.9
				S5.1,341.5,5.1,287.5z"/>
			<path class="st3" d="M229.8,287.5c0-71.3-57.4-129.3-127.9-129.3c-70.5,0-127.9,58-127.9,129.3s57.4,129.3,127.9,129.3
				C172.4,416.8,229.8,358.8,229.8,287.5z M-23,287.5c0-69.7,56.1-126.3,125-126.3c68.9,0,124.9,56.7,124.9,126.3
				s-56.1,126.3-124.9,126.3C33,413.9-23,357.2-23,287.5z"/>
			<path class="st3" d="M101.9,264.5c-12.5,0-22.7,10.3-22.7,23s10.2,23,22.7,23c12.5,0,22.7-10.3,22.7-23S114.5,264.5,101.9,264.5z
				 M101.9,307.6c-10.9,0-19.8-9-19.8-20.1s8.9-20.1,19.8-20.1c10.9,0,19.8,9,19.8,20.1S112.9,307.6,101.9,307.6z"/>
			<path class="st3" d="M376.2,350.4c-34.4,0-62.3,28.3-62.3,63s28,63,62.3,63c34.4,0,62.3-28.3,62.3-63S410.6,350.4,376.2,350.4z
				 M376.2,473.5c-32.8,0-59.4-27-59.4-60.1s26.7-60.1,59.4-60.1s59.4,27,59.4,60.1S409,473.5,376.2,473.5z"/>
			<path class="st3" d="M376.2,377.9c-19.3,0-35.1,15.9-35.1,35.5s15.7,35.5,35.1,35.5c19.3,0,35.1-15.9,35.1-35.5
				S395.5,377.9,376.2,377.9z M376.2,445.9c-17.7,0-32.2-14.6-32.2-32.5c0-17.9,14.4-32.5,32.2-32.5c17.7,0,32.2,14.6,32.2,32.5
				C408.4,431.3,393.9,445.9,376.2,445.9z"/>
			<path class="st3" d="M376.2,363.3c-27.3,0-49.5,22.5-49.5,50.1c0,27.6,22.2,50.1,49.5,50.1c27.3,0,49.6-22.5,49.6-50.1
				C425.7,385.8,403.5,363.3,376.2,363.3z M376.2,460.6c-25.7,0-46.6-21.2-46.6-47.2c0-26,20.9-47.2,46.6-47.2
				c25.7,0,46.6,21.2,46.6,47.2C422.8,439.4,401.9,460.6,376.2,460.6z"/>
			<path class="st3" d="M440.6,364.7c-26.6-35.9-77.1-43.3-112.7-16.4c-35.5,26.9-42.8,78-16.2,113.9c15.8,21.3,40,32.6,64.5,32.6
				c16.8,0,33.7-5.3,48.1-16.2C459.9,451.7,467.2,400.6,440.6,364.7z M422.7,476.2c-34.3,25.9-83,18.8-108.6-15.8
				c-25.6-34.6-18.6-83.9,15.6-109.8c13.9-10.5,30.2-15.6,46.4-15.6c23.6,0,47,10.9,62.2,31.4C463.9,401.1,456.9,450.3,422.7,476.2z
				"/>
			<path class="st3" d="M376.2,312.6c-55,0-99.7,45.2-99.7,100.8s44.7,100.8,99.7,100.8c55,0,99.7-45.2,99.7-100.8
				S431.2,312.6,376.2,312.6z M376.2,511.3c-53.4,0-96.8-43.9-96.8-97.9s43.4-97.9,96.8-97.9s96.8,43.9,96.8,97.9
				S429.6,511.3,376.2,511.3z"/>
			<path class="st3" d="M376.2,284.1c-70.5,0-127.9,58-127.9,129.3s57.4,129.3,127.9,129.3S504,484.7,504,413.4
				S446.7,284.1,376.2,284.1z M376.2,539.8c-68.9,0-124.9-56.7-124.9-126.3s56.1-126.3,124.9-126.3s124.9,56.7,124.9,126.3
				S445.1,539.8,376.2,539.8z"/>
			<path class="st3" d="M376.2,390.4c-12.5,0-22.7,10.3-22.7,23s10.2,23,22.7,23s22.7-10.3,22.7-23S388.7,390.4,376.2,390.4z
				 M376.2,433.5c-10.9,0-19.8-9-19.8-20.1s8.9-20.1,19.8-20.1s19.8,9,19.8,20.1S387.1,433.5,376.2,433.5z"/>
			<path class="st3" d="M120,526.8c-34.4,0-62.3,28.3-62.3,63c0,34.8,28,63,62.3,63s62.3-28.3,62.3-63
				C182.3,555.1,154.4,526.8,120,526.8z M120,649.9c-32.8,0-59.4-27-59.4-60.1c0-33.1,26.7-60.1,59.4-60.1s59.4,27,59.4,60.1
				C179.4,623,152.8,649.9,120,649.9z"/>
			<path class="st3" d="M120,554.4c-19.3,0-35.1,15.9-35.1,35.5c0,19.6,15.7,35.5,35.1,35.5s35.1-15.9,35.1-35.5
				C155.1,570.3,139.4,554.4,120,554.4z M120,622.4c-17.7,0-32.2-14.6-32.2-32.5c0-17.9,14.4-32.5,32.2-32.5
				c17.7,0,32.2,14.6,32.2,32.5C152.2,607.8,137.8,622.4,120,622.4z"/>
			<path class="st3" d="M120,539.8c-27.3,0-49.5,22.5-49.5,50.1c0,27.6,22.2,50.1,49.5,50.1c27.3,0,49.5-22.5,49.5-50.1
				C169.6,562.2,147.3,539.8,120,539.8z M120,637c-25.7,0-46.6-21.2-46.6-47.2c0-26,20.9-47.2,46.6-47.2s46.6,21.2,46.6,47.2
				C166.6,615.9,145.7,637,120,637z"/>
			<path class="st3" d="M71.8,524.7c-35.5,26.9-42.8,78-16.2,113.9c15.8,21.3,40,32.6,64.5,32.6c16.8,0,33.7-5.3,48.1-16.2
				c35.5-26.9,42.8-78,16.2-113.9C157.9,505.2,107.3,497.8,71.8,524.7z M166.5,652.7c-34.2,25.9-83,18.8-108.6-15.8
				C32.3,602.2,39.3,553,73.5,527c13.9-10.5,30.2-15.6,46.4-15.6c23.6,0,47,10.9,62.2,31.4C207.7,577.5,200.7,626.7,166.5,652.7z"/>
			<path class="st3" d="M120,489c-55,0-99.7,45.2-99.7,100.8c0,55.6,44.7,100.8,99.7,100.8s99.7-45.2,99.7-100.8
				C219.7,534.2,175,489,120,489z M120,687.7c-53.4,0-96.8-43.9-96.8-97.9c0-54,43.4-97.9,96.8-97.9s96.8,43.9,96.8,97.9
				C216.8,643.8,173.4,687.7,120,687.7z"/>
			<path class="st3" d="M120,460.6c-70.5,0-127.9,58-127.9,129.3S49.5,719.1,120,719.1s127.9-58,127.9-129.3S190.5,460.6,120,460.6z
				 M120,716.2c-68.9,0-124.9-56.7-124.9-126.3c0-69.7,56.1-126.3,124.9-126.3S245,520.2,245,589.9C245,659.5,188.9,716.2,120,716.2
				z"/>
			<path class="st3" d="M120,566.8c-12.5,0-22.7,10.3-22.7,23c0,12.7,10.2,23,22.7,23c12.5,0,22.7-10.3,22.7-23
				C142.8,577.2,132.6,566.8,120,566.8z M120,609.9c-10.9,0-19.8-9-19.8-20.1s8.9-20.1,19.8-20.1c10.9,0,19.8,9,19.8,20.1
				S130.9,609.9,120,609.9z"/>
			<path class="st3" d="M377.2,247.9c-45.1,0-86,18.7-115.5,48.7c0.2-3,0.2-6.1,0.2-9.1c0-90.8-73.1-164.7-162.9-164.7
				S-63.8,196.7-63.8,287.5c0,71.4,45.2,132.4,108.2,155.1c-51.6,27.6-86.9,82.6-86.9,145.6c0,90.8,73.1,164.7,162.9,164.7
				s162.9-73.9,162.9-164.7c0-16-2.3-31.6-6.5-46.2c27.7,22,62.6,35.2,100.5,35.2c89.8,0,162.9-73.9,162.9-164.7
				S467,247.9,377.2,247.9z M-60.9,287.5c0-89.2,71.7-161.7,159.9-161.7c88.2,0,159.9,72.5,159.9,161.7c0,4.2-0.2,8.3-0.5,12.4
				c-24.5,26.4-40.5,60.9-43.6,99c-12.5,13.3-27.3,24.5-43.7,32.9c-16-5.3-33.1-8.2-50.8-8.2c-26,0-50.5,6.2-72.4,17.2
				C-15.3,419.2-60.9,358.7-60.9,287.5z M258.1,304.8c-3.6,34.6-18.1,66-39.9,90.6C221.8,360.7,236.2,329.4,258.1,304.8z
				 M220.8,458.8c-13.7-10.9-29.2-19.6-45.9-25.7c14.7-7.8,28-17.9,39.6-29.7c-0.2,3-0.2,6.1-0.2,9.1
				C214.3,428.6,216.6,444.2,220.8,458.8z M167.4,433.7c-20.7,10-43.9,15.5-68.4,15.5c-16.4,0-32.2-2.5-47.1-7.1
				c20.7-10,43.9-15.5,68.4-15.5C136.7,426.6,152.5,429.1,167.4,433.7z M280.3,588.3c0,89.2-71.7,161.7-159.9,161.7
				c-88.2,0-159.9-72.5-159.9-161.7c0-63,35.8-117.6,87.8-144.3c16,5.3,33.1,8.2,50.8,8.2c26,0,50.5-6.2,72.4-17.2
				c18.8,6.4,36.1,16.3,51,28.9c9.6,29.5,27.2,55.3,50.2,74.8C277.6,554.3,280.3,571,280.3,588.3z M226.8,467.7
				c19.5,17.7,34.8,40.1,43.9,65.4C251.1,515.5,235.9,493.1,226.8,467.7z M377.2,574.3c-38.8,0-74.4-14-102.1-37.3
				c-9.6-29.5-27.2-55.3-50.2-74.8c-5-15.6-7.7-32.3-7.7-49.6c0-4.2,0.2-8.3,0.5-12.4c24.5-26.4,40.5-60.9,43.6-99
				c29.2-31,70.3-50.3,115.8-50.3c88.2,0,159.9,72.5,159.9,161.7C537.1,501.8,465.3,574.3,377.2,574.3z"/>
		</g>
	</g>
	<g>
		<g>
			<path class="st1" d="M125.7,391.8l75.6-44.1l79.5,47.5c0,0,74.1-42.8,93.9,3.2c0,0-7.2,44.5-97.1,92.5s-74.4,43.5-74.4,43.5
				l-80.4-46.9c0,0-100.6-63.1-92.8-94.2C29.9,393.1,29,354.4,125.7,391.8z"/>
		</g>
	</g>
</g>
<g>
	<g>
		<polygon class="st3" points="126.3,396.7 163.1,370.8 201.1,394.3 234.5,374 280.7,398.3 280.7,493.6 202.1,536.1 123.4,490.2 		
			"/>
	</g>
	<path class="st4" d="M374.3,395.8c-3.3-7.9-9.1-13.5-17.3-16.7c-24.5-9.5-64.5,6.8-76,11.9l-31.7-18.5l45.1-27.5
		c2.8-0.8,4.9-3.4,4.9-6.5c0-3.7-3-6.8-6.7-6.8c-0.7,0-1.4,0.1-2.1,0.4l0,0l-0.1,0c-0.9,0.3-1.8,0.8-2.4,1.5l-51.5,31.4l-34.5-20.2
		l-35.2,20.6l-49.4-30.6c-1.2-1.3-2.9-2.1-4.9-2.1c-3.7,0-6.7,3-6.7,6.8c0,1.8,0.7,3.5,1.9,4.7l0,0l0.1,0c0.7,0.7,1.6,1.3,2.6,1.6
		l43.7,27l-31,18.1c-11.5-5.1-51.5-21.3-76-11.9c-8.2,3.2-14,8.8-17.3,16.7c-16.3,39.3,79,93.6,90.4,100l75.4,44v35.4l6.6,6l6.3-6
		v-35.4l75.4-44C295.4,489.5,390.6,435.1,374.3,395.8z M202.1,360l21.9,12.8l-22.8,13.9l-21.8-13.5L202.1,360z M166.6,380.7
		l34.4,21.3l35.7-21.8l31,18.1l-65.7,38.3l-65.7-38.3L166.6,380.7z M202.1,451.7l72.2-42v30.8l-75,45.9l-69.3-42.8v-33.8
		L202.1,451.7z M117,478.9c-38.6-23-83.1-59.1-75.2-78c1.9-4.5,5.1-7.7,10-9.5c17.5-6.8,50.2,4.6,65.3,11.2V478.9z M202.1,528.5
		l-72.2-42.1v-27.6l69.3,42.8l75.1-45.9v30.6L202.1,528.5z M287.1,478.9v-76.3c15.1-6.6,47.8-18,65.3-11.2c4.8,1.9,8.1,5,10,9.5
		C370.2,419.8,325.7,455.9,287.1,478.9z"/>
</g>
<g>
	<path class="st4" d="M558.1,301.8v25.9c-6-3-11.9-5.3-17.6-6.8c-5.8-1.5-11.2-2.3-16.3-2.3c-6.8,0-11.8,1-15,3.1
		c-3.2,2.1-4.9,5.3-4.9,9.7c0,3.3,1.1,5.8,3.3,7.7c2.2,1.8,6.2,3.4,12,4.7l12,2.7c12.3,2.7,21,6.9,26.1,12.4
		c5.1,5.6,7.7,13.5,7.7,23.7c0,13.5-3.6,23.5-10.8,30.1c-7.2,6.6-18.2,9.9-33,9.9c-7,0-14-0.7-21-2.2c-7-1.5-14-3.7-21.1-6.6v-26.6
		c7,4.1,13.8,7.3,20.4,9.4c6.5,2.1,12.9,3.2,19,3.2c6.2,0,10.9-1.1,14.2-3.4c3.3-2.3,5-5.6,5-9.8c0-3.8-1.1-6.8-3.4-8.8
		c-2.2-2.1-6.7-3.9-13.4-5.6l-11-2.7c-11-2.6-19-6.8-24.1-12.5c-5.1-5.7-7.7-13.5-7.7-23.2c0-12.2,3.5-21.5,10.6-28.1
		c7.1-6.6,17.2-9.8,30.5-9.8c6.1,0,12.3,0.5,18.7,1.5C544.7,298.2,551.3,299.7,558.1,301.8z"/>
	<path class="st4" d="M590.2,297.9h28.4v122.2h-28.4V297.9z"/>
	<path class="st4" d="M745.2,411.1c-7.1,3.8-14.4,6.7-22.1,8.6c-7.6,1.9-15.5,2.9-23.5,2.9c-18.3,0-32.9-5.7-43.6-17.1
		c-10.7-11.4-16-26.8-16-46.3c0-19.7,5.4-35.2,16.3-46.5c10.9-11.3,25.8-16.9,44.8-16.9c7.3,0,14.3,0.8,21,2.3
		c6.7,1.5,13,3.8,19,6.8v25.3c-6.2-3.9-12.3-6.8-18.3-8.7c-6.1-1.9-12.1-2.9-18.3-2.9c-11.3,0-20,3.5-26.1,10.5
		c-6.1,7-9.2,17-9.2,30.1c0,12.9,2.9,22.9,8.8,30c5.9,7,14.3,10.6,25.1,10.6c2.9,0,5.7-0.2,8.2-0.6c2.5-0.4,4.8-1,6.8-1.9v-23.7H701
		v-21.1h44.2V411.1z"/>
	<path class="st4" d="M846.6,301.8v25.9c-6-3-11.9-5.3-17.6-6.8c-5.8-1.5-11.2-2.3-16.3-2.3c-6.8,0-11.8,1-15,3.1
		c-3.2,2.1-4.9,5.3-4.9,9.7c0,3.3,1.1,5.8,3.3,7.7c2.2,1.8,6.2,3.4,12,4.7l12,2.7c12.3,2.7,21,6.9,26.1,12.4
		c5.1,5.6,7.7,13.5,7.7,23.7c0,13.5-3.6,23.5-10.8,30.1c-7.2,6.6-18.2,9.9-33,9.9c-7,0-14-0.7-21-2.2c-7-1.5-14-3.7-21.1-6.6v-26.6
		c7,4.1,13.8,7.3,20.4,9.4c6.5,2.1,12.9,3.2,19,3.2c6.2,0,10.9-1.1,14.2-3.4c3.3-2.3,5-5.6,5-9.8c0-3.8-1.1-6.8-3.4-8.8
		c-2.2-2.1-6.7-3.9-13.4-5.6l-11-2.7c-11-2.6-19-6.8-24.1-12.5c-5.1-5.7-7.7-13.5-7.7-23.2c0-12.2,3.5-21.5,10.6-28.1
		c7.1-6.6,17.2-9.8,30.5-9.8c6.1,0,12.3,0.5,18.7,1.5C833.2,298.2,839.8,299.7,846.6,301.8z"/>
	<path class="st4" d="M966,413.4c-5.2,3-10.7,5.3-16.3,6.8c-5.6,1.5-11.5,2.3-17.6,2.3c-18.3,0-32.9-5.7-43.6-17.1
		c-10.7-11.4-16-26.8-16-46.3c0-19.5,5.3-35,16-46.4c10.7-11.4,25.2-17.1,43.6-17.1c6.1,0,12,0.8,17.6,2.3
		c5.6,1.5,11.1,3.8,16.3,6.8v25.3c-5.3-4-10.5-6.9-15.6-8.8c-5.1-1.9-10.5-2.8-16.1-2.8c-10.2,0-18.1,3.6-23.9,10.8
		c-5.8,7.2-8.7,17.1-8.7,29.8c0,12.6,2.9,22.5,8.7,29.7c5.8,7.2,13.8,10.8,23.9,10.8c5.6,0,11-0.9,16.1-2.8
		c5.1-1.9,10.3-4.8,15.6-8.8V413.4z"/>
	<path class="st4" d="M1056.2,397.9h-44.4l-7,22.3h-28.5l40.8-122.2h33.8l40.8,122.2h-28.6L1056.2,397.9z M1018.8,375.2h30.1
		l-15-48.6L1018.8,375.2z"/>
	<path class="st4" d="M1106.1,297.9h31.7l40,83.8v-83.8h26.9v122.2H1173l-39.9-83.8v83.8h-26.9V297.9z"/>
</g>
<g>
	<path class="st4" d="M434,521.1h-8.4v-59.8h8.4V521.1z"/>
	<path class="st4" d="M447.2,478.4h8.4v42.7h-8.4V478.4z M473.1,495.3c0-3-0.8-5.3-2.3-7c-1.6-1.6-3.8-2.5-6.6-2.5
		c-2.7,0-4.9,0.7-6.4,2.2c-1.5,1.5-2.2,3.5-2.2,6.1l-0.9-8.2c1.3-2.6,3-4.6,5.2-6c2.1-1.4,4.5-2.1,7.1-2.1c4.6,0,8.2,1.5,10.8,4.5
		c2.5,3,3.8,7.3,3.8,12.9v25.9h-8.4V495.3z"/>
	<path class="st4" d="M498.9,519.8c-2.2-1.4-3.9-3.3-5-5.9c-1.2-2.6-1.7-5.7-1.7-9.4v-9.4c0-3.7,0.6-6.8,1.7-9.4
		c1.1-2.6,2.8-4.6,4.9-5.9c2.2-1.4,4.7-2,7.8-2c2.5,0,4.8,0.7,6.9,2c2.1,1.3,3.8,3.2,5.1,5.6l-0.9,8.7c0-1.8-0.3-3.4-1-4.6
		c-0.7-1.3-1.6-2.3-2.9-2.9c-1.2-0.7-2.8-1-4.5-1c-2.8,0-4.9,0.9-6.4,2.6s-2.3,4.2-2.3,7.3v9.3c0,3.1,0.8,5.5,2.3,7.2
		c1.5,1.7,3.7,2.5,6.4,2.5c1.8,0,3.3-0.3,4.5-1c1.2-0.7,2.2-1.7,2.9-3c0.7-1.3,1-2.9,1-4.7l0.6,9c-0.9,2.1-2.2,3.9-4.2,5.3
		c-1.9,1.4-4.3,2.1-7.1,2.1C503.8,521.9,501.1,521.2,498.9,519.8z M517.7,461.3h8.4v59.8h-8.4V461.3z"/>
	<path class="st4" d="M544.9,519.6c-2.6-1.5-4.6-3.6-6-6.4c-1.4-2.8-2.1-6.1-2.1-10.1v-7c0-3.9,0.7-7.2,2.1-9.9
		c1.4-2.8,3.4-4.9,6-6.3s5.8-2.2,9.5-2.2c3.7,0,6.9,0.7,9.5,2.2s4.6,3.5,6,6.3c1.4,2.8,2.1,6.1,2.1,9.9v7.1c0,3.9-0.7,7.2-2.1,10
		c-1.4,2.8-3.4,4.9-6,6.3c-2.6,1.5-5.8,2.2-9.5,2.2C550.7,521.8,547.5,521,544.9,519.6z M561.2,511c1.6-1.8,2.4-4.4,2.4-7.7v-7.1
		c0-3.3-0.8-5.9-2.4-7.7c-1.6-1.8-3.9-2.7-6.8-2.7s-5.2,0.9-6.8,2.7c-1.6,1.8-2.4,4.4-2.4,7.7v7.1c0,3.3,0.8,5.9,2.4,7.7
		c1.6,1.8,3.9,2.8,6.8,2.8S559.6,512.9,561.2,511z"/>
	<path class="st4" d="M589.9,519.6c-2.6-1.5-4.6-3.6-6-6.4c-1.4-2.8-2.1-6.1-2.1-10.1v-7c0-3.9,0.7-7.2,2.1-9.9
		c1.4-2.8,3.4-4.9,6-6.3s5.8-2.2,9.5-2.2c3.7,0,6.9,0.7,9.5,2.2s4.6,3.5,6,6.3c1.4,2.8,2.1,6.1,2.1,9.9v7.1c0,3.9-0.7,7.2-2.1,10
		c-1.4,2.8-3.4,4.9-6,6.3c-2.6,1.5-5.8,2.2-9.5,2.2C595.7,521.8,592.6,521,589.9,519.6z M606.2,511c1.6-1.8,2.4-4.4,2.4-7.7v-7.1
		c0-3.3-0.8-5.9-2.4-7.7c-1.6-1.8-3.9-2.7-6.8-2.7s-5.2,0.9-6.8,2.7c-1.6,1.8-2.4,4.4-2.4,7.7v7.1c0,3.3,0.8,5.9,2.4,7.7
		c1.6,1.8,3.9,2.8,6.8,2.8S604.6,512.9,606.2,511z"/>
	<path class="st4" d="M628.1,478.4h8.4v42.7h-8.4V478.4z M648.8,486.5c-1.1-0.5-2.4-0.7-3.9-0.7c-2.7,0-4.7,0.7-6.2,2.2
		c-1.5,1.5-2.2,3.5-2.2,6.1l-0.9-8.2c1.3-2.6,3-4.5,5.1-5.9c2.1-1.4,4.4-2.1,6.9-2.1c1.9,0,3.7,0.3,5.3,0.8c1.6,0.6,3,1.4,4.1,2.5
		l-5.5,7.4C650.9,487.6,650,487,648.8,486.5z"/>
	<path class="st4" d="M702.2,461.3h7.2l22.1,59.8h-9.1l-16.6-48.3l-16.6,48.3h-9.1L702.2,461.3z M690.3,500h31.5v8h-31.5V500z"/>
	<path class="st4" d="M750.1,521.8c0,0-1.1-0.2-3.3-0.7c-2.2-0.5-4.3-1.2-6.2-2.2c-1.9-1-3.7-2.2-5.3-3.7l5-6.1
		c2.3,1.8,4.6,3.1,6.9,3.9c2.3,0.9,4.5,1.3,6.7,1.3c3.3,0,5.8-0.5,7.5-1.5c1.7-1,2.5-2.6,2.5-4.6c0-1.4-0.5-2.4-1.4-3.1
		c-0.9-0.7-2-1.1-3.4-1.4c-1.3-0.2-3.2-0.4-5.7-0.6c-0.2,0-0.5,0-0.7,0c-0.2,0-0.5,0-0.7-0.1c-0.1,0-0.2,0-0.3,0c-0.1,0-0.2,0-0.3,0
		c-2.8-0.2-5.1-0.6-7-1.2s-3.5-1.7-4.8-3.3c-1.3-1.6-1.9-3.9-1.9-7c0-3,0.6-5.5,1.9-7.5c1.2-2,3.1-3.5,5.5-4.5
		c2.4-1,5.5-1.5,9.2-1.5c2.2,0,4.3,0.2,6.4,0.6c2,0.4,3.9,1,5.8,1.8s3.6,1.8,5.3,3.1l-5.1,6.1c-2.1-1.4-4.2-2.4-6.3-3.1
		c-2.1-0.7-4.1-1-6.1-1c-2.9,0-5,0.5-6.4,1.5c-1.4,1-2.1,2.4-2.1,4.4c0,1.2,0.4,2,1.2,2.6c0.8,0.6,1.8,1,3.1,1.2s3,0.4,5.3,0.5
		c0.2,0,0.3,0,0.5,0s0.4,0,0.6,0c0.1,0,0.2,0,0.2,0s0.2,0,0.2,0c3,0.2,5.5,0.6,7.6,1.2c2.1,0.6,3.9,1.8,5.3,3.6
		c1.4,1.8,2.1,4.4,2.1,7.7c0,3.1-0.7,5.6-2,7.6c-1.3,2-3.3,3.5-5.9,4.5c-2.6,1-6,1.5-10,1.5C751.3,521.8,750.1,521.8,750.1,521.8z"
		/>
	<path class="st4" d="M792.9,521.8c0,0-1.1-0.2-3.3-0.7c-2.2-0.5-4.3-1.2-6.2-2.2c-1.9-1-3.7-2.2-5.3-3.7l5-6.1
		c2.3,1.8,4.6,3.1,6.9,3.9c2.3,0.9,4.5,1.3,6.7,1.3c3.3,0,5.8-0.5,7.5-1.5c1.7-1,2.5-2.6,2.5-4.6c0-1.4-0.5-2.4-1.4-3.1
		c-0.9-0.7-2-1.1-3.4-1.4c-1.3-0.2-3.2-0.4-5.7-0.6c-0.2,0-0.5,0-0.7,0c-0.2,0-0.5,0-0.7-0.1c-0.1,0-0.2,0-0.3,0c-0.1,0-0.2,0-0.3,0
		c-2.8-0.2-5.1-0.6-7-1.2s-3.5-1.7-4.8-3.3c-1.3-1.6-1.9-3.9-1.9-7c0-3,0.6-5.5,1.9-7.5c1.2-2,3.1-3.5,5.5-4.5
		c2.4-1,5.5-1.5,9.2-1.5c2.2,0,4.3,0.2,6.4,0.6c2,0.4,3.9,1,5.8,1.8s3.6,1.8,5.3,3.1l-5.1,6.1c-2.1-1.4-4.2-2.4-6.3-3.1
		c-2.1-0.7-4.1-1-6.1-1c-2.9,0-5,0.5-6.4,1.5c-1.4,1-2.1,2.4-2.1,4.4c0,1.2,0.4,2,1.2,2.6c0.8,0.6,1.8,1,3.1,1.2s3,0.4,5.3,0.5
		c0.2,0,0.3,0,0.5,0s0.4,0,0.6,0c0.1,0,0.2,0,0.2,0s0.2,0,0.2,0c3,0.2,5.5,0.6,7.6,1.2c2.1,0.6,3.9,1.8,5.3,3.6
		c1.4,1.8,2.1,4.4,2.1,7.7c0,3.1-0.7,5.6-2,7.6c-1.3,2-3.3,3.5-5.9,4.5c-2.6,1-6,1.5-10,1.5C794.2,521.8,792.9,521.8,792.9,521.8z"
		/>
	<path class="st4" d="M836,521.8c0,0-1.4-0.7-4.2-2.2s-4.9-3.7-6.4-6.5c-1.5-2.9-2.2-6.3-2.2-10.4v-4.8c0-4.2,0.7-7.8,2.1-10.8
		c1.4-3,3.5-5.3,6.2-6.8c2.7-1.6,5.9-2.3,9.7-2.3c3.6,0,6.6,0.9,9.1,2.7c2.5,1.8,4.5,4.4,5.8,7.7c1.3,3.4,2,7.4,2,12.1v2.8h-28.8
		v-6.7h20.8c-0.2-3.5-1.1-6.2-2.7-8.1c-1.5-1.9-3.6-2.9-6.2-2.9c-3.2,0-5.6,1-7.4,3.1s-2.6,5-2.6,8.8v5.4c0,3.5,0.9,6.3,2.8,8.1
		c1.9,1.9,4.5,2.8,7.9,2.8c1.7,0,3.4-0.3,5.1-1c1.7-0.7,3.2-1.6,4.5-2.9l5.5,5.5c-2.1,2-4.5,3.6-7.1,4.7c-2.6,1.1-5.3,1.7-7.9,1.7
		C838,521.8,836,521.8,836,521.8z"/>
	<path class="st4" d="M865.5,478.4h19.3v7.6h-19.3V478.4z M872.3,518.5c-1.6-1.9-2.4-4.7-2.4-8.5v-44h8.4v44.1c0,1,0.2,1.8,0.6,2.4
		c0.4,0.6,1,0.8,1.8,0.8h4v8h-4.9C876.4,521.3,873.9,520.4,872.3,518.5z"/>
	<path class="st4" d="M906.7,521.8c0,0-1.1-0.2-3.3-0.7c-2.2-0.5-4.3-1.2-6.2-2.2c-1.9-1-3.7-2.2-5.3-3.7l5-6.1
		c2.3,1.8,4.6,3.1,6.9,3.9c2.3,0.9,4.5,1.3,6.7,1.3c3.3,0,5.8-0.5,7.5-1.5c1.7-1,2.5-2.6,2.5-4.6c0-1.4-0.5-2.4-1.4-3.1
		c-0.9-0.7-2-1.1-3.4-1.4c-1.3-0.2-3.2-0.4-5.7-0.6c-0.2,0-0.5,0-0.7,0c-0.2,0-0.5,0-0.7-0.1c-0.1,0-0.2,0-0.3,0c-0.1,0-0.2,0-0.3,0
		c-2.8-0.2-5.1-0.6-7-1.2s-3.5-1.7-4.8-3.3c-1.3-1.6-1.9-3.9-1.9-7c0-3,0.6-5.5,1.9-7.5c1.2-2,3.1-3.5,5.5-4.5
		c2.4-1,5.5-1.5,9.2-1.5c2.2,0,4.3,0.2,6.4,0.6c2,0.4,3.9,1,5.8,1.8s3.6,1.8,5.3,3.1l-5.1,6.1c-2.1-1.4-4.2-2.4-6.3-3.1
		c-2.1-0.7-4.1-1-6.1-1c-2.9,0-5,0.5-6.4,1.5c-1.4,1-2.1,2.4-2.1,4.4c0,1.2,0.4,2,1.2,2.6c0.8,0.6,1.8,1,3.1,1.2s3,0.4,5.3,0.5
		c0.2,0,0.3,0,0.5,0s0.4,0,0.6,0c0.1,0,0.2,0,0.2,0s0.2,0,0.2,0c3,0.2,5.5,0.6,7.6,1.2c2.1,0.6,3.9,1.8,5.3,3.6
		c1.4,1.8,2.1,4.4,2.1,7.7c0,3.1-0.7,5.6-2,7.6c-1.3,2-3.3,3.5-5.9,4.5c-2.6,1-6,1.5-10,1.5C908,521.8,906.7,521.8,906.7,521.8z"/>
	<path class="st4" d="M952.7,461.3h42.2v8h-42.2V461.3z M969.6,466.2h8.4v54.9h-8.4V466.2z"/>
	<path class="st4" d="M996.5,478.4h8.4v42.7h-8.4V478.4z M1017.2,486.5c-1.1-0.5-2.4-0.7-3.9-0.7c-2.7,0-4.7,0.7-6.2,2.2
		c-1.5,1.5-2.2,3.5-2.2,6.1l-0.9-8.2c1.3-2.6,3-4.5,5.1-5.9c2.1-1.4,4.4-2.1,6.9-2.1c1.9,0,3.7,0.3,5.3,0.8c1.6,0.6,3,1.4,4.1,2.5
		l-5.5,7.4C1019.3,487.6,1018.3,487,1017.2,486.5z"/>
	<path class="st4" d="M1033.5,518.5c-2.6-2.2-3.9-5.5-3.9-9.9c0-4.2,1.2-7.4,3.6-9.5c2.4-2.1,6-3.2,10.8-3.2h12.1l0.6,6.7H1044
		c-2.2,0-3.8,0.5-4.9,1.5c-1.1,1-1.6,2.5-1.6,4.5c0,2.2,0.7,3.8,2.2,4.8c1.4,1,3.6,1.6,6.6,1.6c3.2,0,5.6-0.3,7.2-1
		c1.6-0.7,2.4-1.8,2.4-3.2l0.9,6c-0.7,1.2-1.7,2.1-2.7,2.8c-1.1,0.7-2.3,1.3-3.8,1.7c-1.4,0.4-3,0.6-4.8,0.6
		C1040,521.8,1036.1,520.7,1033.5,518.5z M1055.7,494.1c0-2.8-0.7-5-2.2-6.5c-1.5-1.5-3.6-2.3-6.4-2.3c-1.7,0-3.4,0.3-5,0.8
		c-1.6,0.5-3.1,1.2-4.3,2.2l-6.1-4.2c1.6-1.9,3.8-3.5,6.4-4.5c2.6-1.1,5.6-1.6,8.8-1.6c3.5,0,6.6,0.6,9.1,1.9
		c2.5,1.2,4.4,3.1,5.8,5.4c1.3,2.4,2,5.2,2,8.6v27.4h-8V494.1z"/>
	<path class="st4" d="M1087,521.8c0,0-1.4-0.7-4.1-2.2c-2.8-1.5-4.9-3.6-6.3-6.3s-2.2-6.1-2.2-10v-7c0-3.9,0.7-7.2,2.2-9.9
		c1.5-2.7,3.6-4.8,6.3-6.3c2.8-1.4,6.1-2.2,10-2.2c2.2,0,4.3,0.3,6.3,0.8c2,0.5,3.7,1.3,5.3,2.3c1.6,1,2.9,2.2,3.9,3.7l-6,5.4
		c-1.2-1.4-2.6-2.4-4.2-3.2c-1.6-0.7-3.3-1.1-5.1-1.1c-3.2,0-5.7,0.9-7.5,2.7c-1.8,1.8-2.7,4.4-2.7,7.7v7c0,3.4,0.9,6,2.7,7.8
		c1.8,1.8,4.3,2.8,7.5,2.8c1.8,0,3.5-0.4,5.1-1.2c1.6-0.8,3-1.9,4.2-3.4l6,5.8c-1.1,1.4-2.4,2.6-4,3.6c-1.6,1-3.3,1.8-5.3,2.3
		c-2,0.5-4,0.8-6.2,0.8C1089,521.8,1087,521.8,1087,521.8z"/>
	<path class="st4" d="M1116.8,461.3h8.4v59.8h-8.4V461.3z M1120.4,504.9l22-26.5h9.9l-32.4,36.5L1120.4,504.9z M1130.3,496.5
		l5.4-5.6l18.6,30.2h-9.1L1130.3,496.5z"/>
	<path class="st4" d="M1160.5,461.3h8.4v8.4h-8.4V461.3z M1160.5,478.4h8.4v42.7h-8.4V478.4z"/>
	<path class="st4" d="M1180.8,478.4h8.4v42.7h-8.4V478.4z M1206.7,495.3c0-3-0.8-5.3-2.3-7s-3.8-2.5-6.6-2.5c-2.7,0-4.9,0.7-6.4,2.2
		c-1.5,1.5-2.2,3.5-2.2,6.1l-0.9-8.2c1.3-2.6,3-4.6,5.2-6c2.1-1.4,4.5-2.1,7.1-2.1c4.6,0,8.2,1.5,10.8,4.5c2.5,3,3.8,7.3,3.8,12.9
		v25.9h-8.4V495.3z"/>
	<path class="st4" d="M1232.5,519.8c-2.2-1.4-3.9-3.3-5-5.9c-1.2-2.6-1.7-5.7-1.7-9.4v-9.4c0-3.7,0.6-6.8,1.7-9.4
		c1.1-2.6,2.8-4.6,4.9-5.9c2.2-1.4,4.7-2,7.8-2c2.5,0,4.8,0.7,6.9,2c2.1,1.3,3.8,3.2,5.1,5.6l-0.9,8.7c0-1.8-0.3-3.4-1-4.6
		c-0.7-1.3-1.6-2.3-2.9-2.9c-1.2-0.7-2.8-1-4.5-1c-2.8,0-4.9,0.9-6.4,2.6c-1.5,1.7-2.3,4.2-2.3,7.3v9.3c0,3.1,0.8,5.5,2.3,7.2
		c1.5,1.7,3.7,2.5,6.4,2.5c1.8,0,3.3-0.3,4.5-1c1.2-0.7,2.2-1.7,2.9-3c0.7-1.3,1-2.9,1-4.7l0.6,9c-0.9,2.1-2.2,3.9-4.2,5.3
		c-1.9,1.4-4.3,2.1-7.1,2.1C1237.4,521.9,1234.7,521.2,1232.5,519.8z M1236.5,538.5c0,0-1.3-0.6-3.8-1.8s-4.5-2.9-5.9-5l5.7-5.1
		c1.1,1.5,2.4,2.7,3.9,3.5c1.5,0.8,3.1,1.2,4.8,1.2c3.2,0,5.7-0.9,7.4-2.7c1.8-1.8,2.6-4.3,2.6-7.5v-42.7h8.4v41.4
		c0,3.9-0.7,7.3-2.2,10.1s-3.5,4.9-6.3,6.4c-2.7,1.5-6,2.2-9.9,2.2C1238.1,538.5,1236.5,538.5,1236.5,538.5z"/>
</g>
<g>
</g>
<g>
</g>
<g>
</g>
<g>
</g>
<g>
</g>
<g>
</g>
<g>
</g>
<g>
</g>
<g>
</g>
<g>
</g>
<g>
</g>
<g>
</g>
<g>
</g>
<g>
</g>
<g>
</g>
</svg>
