<?xml version="1.0" encoding="utf-8"?>
<!-- Generator: Adobe Illustrator 23.0.6, SVG Export Plug-In . SVG Version: 6.00 Build 0)  -->
<svg version="1.1" id="Calque_1" xmlns="http://www.w3.org/2000/svg" xmlns:xlink="http://www.w3.org/1999/xlink" x="0px" y="0px"
	 viewBox="0 0 1280 1024" style="enable-background:new 0 0 1280 1024;" xml:space="preserve">
<style type="text/css">
	.st0{clip-path:url(#SVGID_2_);}
	.st1{fill:#FFFFFF;}
	.st2{clip-path:url(#SVGID_4_);}
	.st3{fill:#DBB12A;}
	.st4{fill:#332F2F;}
</style>
<g>
	<g>
		<defs>
			<ellipse id="SVGID_1_" cx="468.4" cy="191.8" rx="41.5" ry="42.9"/>
		</defs>
		<use xlink:href="#SVGID_1_"  style="overflow:visible;fill:#FFFFFF;"/>
		<clipPath id="SVGID_2_">
			<use xlink:href="#SVGID_1_"  style="overflow:visible;"/>
		</clipPath>
		<g class="st0">
			<path class="st1" d="M459.7,157.8c0-8.2-6.6-14.9-14.8-14.9c-8.1,0-14.8,6.7-14.8,14.9c0,8.2,6.6,14.9,14.8,14.9
				C453,172.7,459.7,166,459.7,157.8z M444.9,172c-7.8,0-14.1-6.4-14.1-14.2c0-7.8,6.3-14.2,14.1-14.2s14.1,6.4,14.1,14.2
				C459,165.6,452.7,172,444.9,172z"/>
			<path class="st1" d="M444.9,149.4c-4.6,0-8.3,3.8-8.3,8.4s3.7,8.4,8.3,8.4c4.6,0,8.3-3.8,8.3-8.4S449.5,149.4,444.9,149.4z
				 M444.9,165.5c-4.2,0-7.6-3.5-7.6-7.7s3.4-7.7,7.6-7.7c4.2,0,7.6,3.5,7.6,7.7S449.1,165.5,444.9,165.5z"/>
			<path class="st1" d="M444.9,145.9c-6.5,0-11.7,5.3-11.7,11.9c0,6.5,5.3,11.9,11.7,11.9c6.5,0,11.7-5.3,11.7-11.9
				C456.6,151.2,451.4,145.9,444.9,145.9z M444.9,168.9c-6.1,0-11-5-11-11.2c0-6.2,5-11.2,11-11.2c6.1,0,11,5,11,11.2
				C455.9,163.9,451,168.9,444.9,168.9z"/>
			<path class="st1" d="M456.3,173.2c8.4-6.4,10.1-18.5,3.8-27c-6.3-8.5-18.3-10.2-26.7-3.9c-8.4,6.4-10.1,18.5-3.8,27
				c3,4.1,7.5,6.8,12.5,7.5c0.9,0.1,1.8,0.2,2.8,0.2C449,177,453,175.7,456.3,173.2z M430.2,168.9c-6.1-8.2-4.4-19.9,3.7-26
				c3.3-2.5,7.1-3.7,11-3.7c5.6,0,11.1,2.6,14.7,7.4c6.1,8.2,4.4,19.9-3.7,26c-3.9,3-8.8,4.2-13.6,3.5
				C437.4,175.4,433.1,172.9,430.2,168.9z"/>
			<path class="st1" d="M468.5,157.8c0-13.2-10.6-23.9-23.6-23.9c-13,0-23.6,10.7-23.6,23.9c0,13.2,10.6,23.9,23.6,23.9
				C457.9,181.6,468.5,170.9,468.5,157.8z M422,157.8c0-12.8,10.3-23.2,22.9-23.2s22.9,10.4,22.9,23.2c0,12.8-10.3,23.2-22.9,23.2
				S422,170.5,422,157.8z"/>
			<path class="st1" d="M475.2,157.8c0-16.9-13.6-30.6-30.3-30.6c-16.7,0-30.3,13.7-30.3,30.6s13.6,30.6,30.3,30.6
				C461.6,188.4,475.2,174.6,475.2,157.8z M415.3,157.8c0-16.5,13.3-29.9,29.6-29.9c16.3,0,29.6,13.4,29.6,29.9
				s-13.3,29.9-29.6,29.9C428.6,187.7,415.3,174.2,415.3,157.8z"/>
			<path class="st1" d="M444.9,152.3c-3,0-5.4,2.4-5.4,5.4s2.4,5.4,5.4,5.4c3,0,5.4-2.4,5.4-5.4S447.9,152.3,444.9,152.3z
				 M444.9,162.5c-2.6,0-4.7-2.1-4.7-4.7c0-2.6,2.1-4.7,4.7-4.7c2.6,0,4.7,2.1,4.7,4.7C449.6,160.4,447.5,162.5,444.9,162.5z"/>
			<path class="st1" d="M509.8,172.6c-8.1,0-14.8,6.7-14.8,14.9c0,8.2,6.6,14.9,14.8,14.9c8.1,0,14.8-6.7,14.8-14.9
				C524.6,179.3,517.9,172.6,509.8,172.6z M509.8,201.8c-7.8,0-14.1-6.4-14.1-14.2c0-7.8,6.3-14.2,14.1-14.2s14.1,6.4,14.1,14.2
				C523.9,195.4,517.6,201.8,509.8,201.8z"/>
			<path class="st1" d="M509.8,179.2c-4.6,0-8.3,3.8-8.3,8.4s3.7,8.4,8.3,8.4c4.6,0,8.3-3.8,8.3-8.4S514.4,179.2,509.8,179.2z
				 M509.8,195.3c-4.2,0-7.6-3.5-7.6-7.7s3.4-7.7,7.6-7.7s7.6,3.5,7.6,7.7S514,195.3,509.8,195.3z"/>
			<path class="st1" d="M509.8,175.7c-6.5,0-11.7,5.3-11.7,11.9s5.3,11.9,11.7,11.9c6.5,0,11.7-5.3,11.7-11.9
				S516.3,175.7,509.8,175.7z M509.8,198.7c-6.1,0-11-5-11-11.2s5-11.2,11-11.2s11,5,11,11.2S515.9,198.7,509.8,198.7z"/>
			<path class="st1" d="M525.1,176c-6.3-8.5-18.3-10.2-26.7-3.9c-8.4,6.4-10.1,18.5-3.8,27c3.7,5.1,9.5,7.7,15.3,7.7
				c4,0,8-1.2,11.4-3.8C529.6,196.6,531.4,184.5,525.1,176z M520.8,202.4c-8.1,6.1-19.6,4.5-25.7-3.7c-6.1-8.2-4.4-19.9,3.7-26
				c3.3-2.5,7.1-3.7,11-3.7c5.6,0,11.1,2.6,14.7,7.4C530.6,184.6,528.9,196.3,520.8,202.4z"/>
			<path class="st1" d="M509.8,163.7c-13,0-23.6,10.7-23.6,23.9s10.6,23.9,23.6,23.9c13,0,23.6-10.7,23.6-23.9
				S522.8,163.7,509.8,163.7z M509.8,210.7c-12.6,0-22.9-10.4-22.9-23.2c0-12.8,10.3-23.2,22.9-23.2s22.9,10.4,22.9,23.2
				C532.7,200.3,522.4,210.7,509.8,210.7z"/>
			<path class="st1" d="M509.8,157c-16.7,0-30.3,13.7-30.3,30.6s13.6,30.6,30.3,30.6c16.7,0,30.3-13.7,30.3-30.6
				S526.5,157,509.8,157z M509.8,217.5c-16.3,0-29.6-13.4-29.6-29.9s13.3-29.9,29.6-29.9s29.6,13.4,29.6,29.9
				S526.1,217.5,509.8,217.5z"/>
			<path class="st1" d="M509.8,182.1c-3,0-5.4,2.4-5.4,5.4s2.4,5.4,5.4,5.4s5.4-2.4,5.4-5.4S512.8,182.1,509.8,182.1z M509.8,192.3
				c-2.6,0-4.7-2.1-4.7-4.7s2.1-4.7,4.7-4.7c2.6,0,4.7,2.1,4.7,4.7S512.4,192.3,509.8,192.3z"/>
			<path class="st1" d="M449.2,214.4c-8.1,0-14.8,6.7-14.8,14.9c0,8.2,6.6,14.9,14.8,14.9c8.1,0,14.8-6.7,14.8-14.9
				C463.9,221.1,457.3,214.4,449.2,214.4z M449.2,243.5c-7.8,0-14.1-6.4-14.1-14.2s6.3-14.2,14.1-14.2c7.8,0,14.1,6.4,14.1,14.2
				S456.9,243.5,449.2,243.5z"/>
			<path class="st1" d="M449.2,220.9c-4.6,0-8.3,3.8-8.3,8.4c0,4.6,3.7,8.4,8.3,8.4c4.6,0,8.3-3.8,8.3-8.4
				C457.5,224.7,453.8,220.9,449.2,220.9z M449.2,237c-4.2,0-7.6-3.5-7.6-7.7s3.4-7.7,7.6-7.7c4.2,0,7.6,3.5,7.6,7.7
				S453.4,237,449.2,237z"/>
			<path class="st1" d="M449.2,217.5c-6.5,0-11.7,5.3-11.7,11.9c0,6.5,5.3,11.9,11.7,11.9c6.5,0,11.7-5.3,11.7-11.9
				C460.9,222.8,455.6,217.5,449.2,217.5z M449.2,240.5c-6.1,0-11-5-11-11.2s5-11.2,11-11.2c6.1,0,11,5,11,11.2
				S455.3,240.5,449.2,240.5z"/>
			<path class="st1" d="M437.8,213.9c-8.4,6.4-10.1,18.5-3.8,27c3.7,5.1,9.5,7.7,15.3,7.7c4,0,8-1.2,11.4-3.8
				c8.4-6.4,10.1-18.5,3.8-27C458.1,209.3,446.2,207.5,437.8,213.9z M460.2,244.2c-8.1,6.1-19.6,4.5-25.7-3.7
				c-6.1-8.2-4.4-19.9,3.7-26c3.3-2.5,7.1-3.7,11-3.7c5.6,0,11.1,2.6,14.7,7.4C469.9,226.4,468.3,238.1,460.2,244.2z"/>
			<path class="st1" d="M449.2,205.5c-13,0-23.6,10.7-23.6,23.9c0,13.2,10.6,23.9,23.6,23.9c13,0,23.6-10.7,23.6-23.9
				C472.8,216.2,462.2,205.5,449.2,205.5z M449.2,252.5c-12.6,0-22.9-10.4-22.9-23.2c0-12.8,10.3-23.2,22.9-23.2
				c12.6,0,22.9,10.4,22.9,23.2C472.1,242.1,461.8,252.5,449.2,252.5z"/>
			<path class="st1" d="M449.2,198.7c-16.7,0-30.3,13.7-30.3,30.6s13.6,30.6,30.3,30.6c16.7,0,30.3-13.7,30.3-30.6
				S465.9,198.7,449.2,198.7z M449.2,259.2c-16.3,0-29.6-13.4-29.6-29.9s13.3-29.9,29.6-29.9c16.3,0,29.6,13.4,29.6,29.9
				S465.5,259.2,449.2,259.2z"/>
			<path class="st1" d="M449.2,223.9c-3,0-5.4,2.4-5.4,5.4c0,3,2.4,5.4,5.4,5.4c3,0,5.4-2.4,5.4-5.4
				C454.6,226.3,452.1,223.9,449.2,223.9z M449.2,234.1c-2.6,0-4.7-2.1-4.7-4.7s2.1-4.7,4.7-4.7c2.6,0,4.7,2.1,4.7,4.7
				S451.8,234.1,449.2,234.1z"/>
			<path class="st1" d="M510,148.4c-10.7,0-20.4,4.4-27.3,11.5c0-0.7,0.1-1.4,0.1-2.2c0-21.5-17.3-39-38.5-39s-38.5,17.5-38.5,39
				c0,16.9,10.7,31.3,25.6,36.7C419,201,410.7,214,410.7,229c0,21.5,17.3,39,38.5,39c21.3,0,38.5-17.5,38.5-39
				c0-3.8-0.5-7.5-1.5-10.9c6.6,5.2,14.8,8.3,23.8,8.3c21.3,0,38.5-17.5,38.5-39S531.3,148.4,510,148.4z M406.4,157.8
				c0-21.1,17-38.3,37.9-38.3c20.9,0,37.9,17.2,37.9,38.3c0,1,0,2-0.1,2.9c-5.8,6.2-9.6,14.4-10.3,23.4c-3,3.2-6.5,5.8-10.3,7.8
				c-3.8-1.3-7.8-1.9-12-1.9c-6.1,0-12,1.5-17.1,4.1C417.2,188.9,406.4,174.6,406.4,157.8z M481.9,161.8c-0.9,8.2-4.3,15.6-9.5,21.4
				C473.3,175.1,476.7,167.7,481.9,161.8z M473,198.3c-3.2-2.6-6.9-4.6-10.9-6.1c3.5-1.9,6.6-4.2,9.4-7c0,0.7-0.1,1.4-0.1,2.2
				C471.5,191.2,472,194.8,473,198.3z M460.4,192.4c-4.9,2.4-10.4,3.7-16.2,3.7c-3.9,0-7.6-0.6-11.1-1.7c4.9-2.4,10.4-3.7,16.2-3.7
				C453.1,190.7,456.9,191.3,460.4,192.4z M487.1,229c0,21.1-17,38.3-37.9,38.3c-20.9,0-37.9-17.2-37.9-38.3
				c0-14.9,8.5-27.8,20.8-34.2c3.8,1.3,7.8,1.9,12,1.9c6.1,0,12-1.5,17.1-4.1c4.5,1.5,8.5,3.9,12.1,6.8c2.3,7,6.4,13.1,11.9,17.7
				C486.5,220.9,487.1,224.9,487.1,229z M474.4,200.4c4.6,4.2,8.2,9.5,10.4,15.5C480.2,211.7,476.6,206.4,474.4,200.4z M510,225.6
				c-9.2,0-17.6-3.3-24.2-8.8c-2.3-7-6.4-13.1-11.9-17.7c-1.2-3.7-1.8-7.6-1.8-11.7c0-1,0-2,0.1-2.9c5.8-6.2,9.6-14.4,10.3-23.4
				c6.9-7.3,16.6-11.9,27.4-11.9c20.9,0,37.9,17.2,37.9,38.3C547.9,208.5,530.9,225.6,510,225.6z"/>
		</g>
	</g>
	<g>
		<g>
			<path class="st1" d="M450.5,182.4l17.9-10.4l18.8,11.2c0,0,17.5-10.1,22.2,0.8c0,0-1.7,10.5-23,21.9
				c-21.3,11.4-17.6,10.3-17.6,10.3l-19-11.1c0,0-23.8-14.9-22-22.3C427.8,182.8,427.6,173.6,450.5,182.4z"/>
		</g>
	</g>
</g>
<g>
	<g>
		<defs>
			<ellipse id="SVGID_3_" cx="468.2" cy="191.8" rx="41.5" ry="42.9"/>
		</defs>
		<clipPath id="SVGID_4_">
			<use xlink:href="#SVGID_3_"  style="overflow:visible;"/>
		</clipPath>
		<g class="st2">
			<path class="st3" d="M459.5,157.8c0-8.2-6.6-14.9-14.8-14.9c-8.1,0-14.8,6.7-14.8,14.9c0,8.2,6.6,14.9,14.8,14.9
				C452.8,172.7,459.5,166,459.5,157.8z M444.7,172c-7.8,0-14.1-6.4-14.1-14.2c0-7.8,6.3-14.2,14.1-14.2s14.1,6.4,14.1,14.2
				C458.8,165.6,452.5,172,444.7,172z"/>
			<path class="st3" d="M444.7,149.4c-4.6,0-8.3,3.8-8.3,8.4s3.7,8.4,8.3,8.4c4.6,0,8.3-3.8,8.3-8.4S449.3,149.4,444.7,149.4z
				 M444.7,165.5c-4.2,0-7.6-3.5-7.6-7.7s3.4-7.7,7.6-7.7c4.2,0,7.6,3.5,7.6,7.7S448.9,165.5,444.7,165.5z"/>
			<path class="st3" d="M444.7,145.9c-6.5,0-11.7,5.3-11.7,11.9c0,6.5,5.3,11.9,11.7,11.9c6.5,0,11.7-5.3,11.7-11.9
				C456.4,151.2,451.2,145.9,444.7,145.9z M444.7,168.9c-6.1,0-11-5-11-11.2c0-6.2,5-11.2,11-11.2c6.1,0,11,5,11,11.2
				C455.8,163.9,450.8,168.9,444.7,168.9z"/>
			<path class="st3" d="M456.1,173.2c8.4-6.4,10.1-18.5,3.8-27c-6.3-8.5-18.3-10.2-26.7-3.9c-8.4,6.4-10.1,18.5-3.8,27
				c3,4.1,7.5,6.8,12.5,7.5c0.9,0.1,1.8,0.2,2.8,0.2C448.8,177,452.8,175.7,456.1,173.2z M430,168.9c-6.1-8.2-4.4-19.9,3.7-26
				c3.3-2.5,7.1-3.7,11-3.7c5.6,0,11.1,2.6,14.7,7.4c6.1,8.2,4.4,19.9-3.7,26c-3.9,3-8.8,4.2-13.6,3.5
				C437.2,175.4,432.9,172.9,430,168.9z"/>
			<path class="st3" d="M468.3,157.8c0-13.2-10.6-23.9-23.6-23.9c-13,0-23.6,10.7-23.6,23.9c0,13.2,10.6,23.9,23.6,23.9
				C457.7,181.6,468.3,170.9,468.3,157.8z M421.8,157.8c0-12.8,10.3-23.2,22.9-23.2s22.9,10.4,22.9,23.2c0,12.8-10.3,23.2-22.9,23.2
				S421.8,170.5,421.8,157.8z"/>
			<path class="st3" d="M475,157.8c0-16.9-13.6-30.6-30.3-30.6c-16.7,0-30.3,13.7-30.3,30.6s13.6,30.6,30.3,30.6
				C461.4,188.4,475,174.6,475,157.8z M415.1,157.8c0-16.5,13.3-29.9,29.6-29.9c16.3,0,29.6,13.4,29.6,29.9s-13.3,29.9-29.6,29.9
				C428.4,187.7,415.1,174.2,415.1,157.8z"/>
			<path class="st3" d="M444.7,152.3c-3,0-5.4,2.4-5.4,5.4s2.4,5.4,5.4,5.4c3,0,5.4-2.4,5.4-5.4S447.7,152.3,444.7,152.3z
				 M444.7,162.5c-2.6,0-4.7-2.1-4.7-4.7c0-2.6,2.1-4.7,4.7-4.7c2.6,0,4.7,2.1,4.7,4.7C449.4,160.4,447.3,162.5,444.7,162.5z"/>
			<path class="st3" d="M509.6,172.6c-8.1,0-14.8,6.7-14.8,14.9c0,8.2,6.6,14.9,14.8,14.9c8.1,0,14.8-6.7,14.8-14.9
				C524.4,179.3,517.8,172.6,509.6,172.6z M509.6,201.8c-7.8,0-14.1-6.4-14.1-14.2c0-7.8,6.3-14.2,14.1-14.2
				c7.8,0,14.1,6.4,14.1,14.2C523.7,195.4,517.4,201.8,509.6,201.8z"/>
			<path class="st3" d="M509.6,179.2c-4.6,0-8.3,3.8-8.3,8.4s3.7,8.4,8.3,8.4s8.3-3.8,8.3-8.4S514.2,179.2,509.6,179.2z
				 M509.6,195.3c-4.2,0-7.6-3.5-7.6-7.7s3.4-7.7,7.6-7.7c4.2,0,7.6,3.5,7.6,7.7S513.8,195.3,509.6,195.3z"/>
			<path class="st3" d="M509.6,175.7c-6.5,0-11.7,5.3-11.7,11.9s5.3,11.9,11.7,11.9c6.5,0,11.7-5.3,11.7-11.9
				S516.1,175.7,509.6,175.7z M509.6,198.7c-6.1,0-11-5-11-11.2s5-11.2,11-11.2c6.1,0,11,5,11,11.2S515.7,198.7,509.6,198.7z"/>
			<path class="st3" d="M524.9,176c-6.3-8.5-18.3-10.2-26.7-3.9c-8.4,6.4-10.1,18.5-3.8,27c3.7,5.1,9.5,7.7,15.3,7.7
				c4,0,8-1.2,11.4-3.8C529.4,196.6,531.2,184.5,524.9,176z M520.6,202.4c-8.1,6.1-19.6,4.5-25.7-3.7c-6.1-8.2-4.4-19.9,3.7-26
				c3.3-2.5,7.1-3.7,11-3.7c5.6,0,11.1,2.6,14.7,7.4C530.4,184.6,528.7,196.3,520.6,202.4z"/>
			<path class="st3" d="M509.6,163.7c-13,0-23.6,10.7-23.6,23.9s10.6,23.9,23.6,23.9c13,0,23.6-10.7,23.6-23.9
				S522.6,163.7,509.6,163.7z M509.6,210.7c-12.6,0-22.9-10.4-22.9-23.2c0-12.8,10.3-23.2,22.9-23.2c12.6,0,22.9,10.4,22.9,23.2
				C532.5,200.3,522.3,210.7,509.6,210.7z"/>
			<path class="st3" d="M509.6,157c-16.7,0-30.3,13.7-30.3,30.6s13.6,30.6,30.3,30.6s30.3-13.7,30.3-30.6S526.3,157,509.6,157z
				 M509.6,217.5c-16.3,0-29.6-13.4-29.6-29.9s13.3-29.9,29.6-29.9c16.3,0,29.6,13.4,29.6,29.9S525.9,217.5,509.6,217.5z"/>
			<path class="st3" d="M509.6,182.1c-3,0-5.4,2.4-5.4,5.4s2.4,5.4,5.4,5.4c3,0,5.4-2.4,5.4-5.4S512.6,182.1,509.6,182.1z
				 M509.6,192.3c-2.6,0-4.7-2.1-4.7-4.7s2.1-4.7,4.7-4.7s4.7,2.1,4.7,4.7S512.2,192.3,509.6,192.3z"/>
			<path class="st3" d="M449,214.4c-8.1,0-14.8,6.7-14.8,14.9c0,8.2,6.6,14.9,14.8,14.9c8.1,0,14.8-6.7,14.8-14.9
				C463.7,221.1,457.1,214.4,449,214.4z M449,243.5c-7.8,0-14.1-6.4-14.1-14.2s6.3-14.2,14.1-14.2c7.8,0,14.1,6.4,14.1,14.2
				S456.7,243.5,449,243.5z"/>
			<path class="st3" d="M449,220.9c-4.6,0-8.3,3.8-8.3,8.4c0,4.6,3.7,8.4,8.3,8.4c4.6,0,8.3-3.8,8.3-8.4
				C457.3,224.7,453.6,220.9,449,220.9z M449,237c-4.2,0-7.6-3.5-7.6-7.7s3.4-7.7,7.6-7.7c4.2,0,7.6,3.5,7.6,7.7S453.2,237,449,237z
				"/>
			<path class="st3" d="M449,217.5c-6.5,0-11.7,5.3-11.7,11.9c0,6.5,5.3,11.9,11.7,11.9c6.5,0,11.7-5.3,11.7-11.9
				C460.7,222.8,455.5,217.5,449,217.5z M449,240.5c-6.1,0-11-5-11-11.2s5-11.2,11-11.2c6.1,0,11,5,11,11.2S455.1,240.5,449,240.5z"
				/>
			<path class="st3" d="M437.6,213.9c-8.4,6.4-10.1,18.5-3.8,27c3.7,5.1,9.5,7.7,15.3,7.7c4,0,8-1.2,11.4-3.8
				c8.4-6.4,10.1-18.5,3.8-27C458,209.3,446,207.5,437.6,213.9z M460,244.2c-8.1,6.1-19.6,4.5-25.7-3.7c-6.1-8.2-4.4-19.9,3.7-26
				c3.3-2.5,7.1-3.7,11-3.7c5.6,0,11.1,2.6,14.7,7.4C469.8,226.4,468.1,238.1,460,244.2z"/>
			<path class="st3" d="M449,205.5c-13,0-23.6,10.7-23.6,23.9c0,13.2,10.6,23.9,23.6,23.9c13,0,23.6-10.7,23.6-23.9
				C472.6,216.2,462,205.5,449,205.5z M449,252.5c-12.6,0-22.9-10.4-22.9-23.2c0-12.8,10.3-23.2,22.9-23.2
				c12.6,0,22.9,10.4,22.9,23.2C471.9,242.1,461.6,252.5,449,252.5z"/>
			<path class="st3" d="M449,198.7c-16.7,0-30.3,13.7-30.3,30.6s13.6,30.6,30.3,30.6c16.7,0,30.3-13.7,30.3-30.6
				S465.7,198.7,449,198.7z M449,259.2c-16.3,0-29.6-13.4-29.6-29.9s13.3-29.9,29.6-29.9c16.3,0,29.6,13.4,29.6,29.9
				S465.3,259.2,449,259.2z"/>
			<path class="st3" d="M449,223.9c-3,0-5.4,2.4-5.4,5.4c0,3,2.4,5.4,5.4,5.4c3,0,5.4-2.4,5.4-5.4C454.4,226.3,452,223.9,449,223.9z
				 M449,234.1c-2.6,0-4.7-2.1-4.7-4.7s2.1-4.7,4.7-4.7c2.6,0,4.7,2.1,4.7,4.7S451.6,234.1,449,234.1z"/>
			<path class="st3" d="M509.9,148.4c-10.7,0-20.4,4.4-27.3,11.5c0-0.7,0.1-1.4,0.1-2.2c0-21.5-17.3-39-38.5-39s-38.5,17.5-38.5,39
				c0,16.9,10.7,31.3,25.6,36.7c-12.2,6.5-20.6,19.5-20.6,34.5c0,21.5,17.3,39,38.5,39c21.3,0,38.5-17.5,38.5-39
				c0-3.8-0.5-7.5-1.5-10.9c6.6,5.2,14.8,8.3,23.8,8.3c21.3,0,38.5-17.5,38.5-39S531.1,148.4,509.9,148.4z M406.2,157.8
				c0-21.1,17-38.3,37.9-38.3c20.9,0,37.9,17.2,37.9,38.3c0,1,0,2-0.1,2.9c-5.8,6.2-9.6,14.4-10.3,23.4c-3,3.2-6.5,5.8-10.3,7.8
				c-3.8-1.3-7.8-1.9-12-1.9c-6.1,0-12,1.5-17.1,4.1C417,188.9,406.2,174.6,406.2,157.8z M481.7,161.8c-0.9,8.2-4.3,15.6-9.5,21.4
				C473.1,175.1,476.5,167.7,481.7,161.8z M472.9,198.3c-3.2-2.6-6.9-4.6-10.9-6.1c3.5-1.9,6.6-4.2,9.4-7c0,0.7-0.1,1.4-0.1,2.2
				C471.3,191.2,471.9,194.8,472.9,198.3z M460.2,192.4c-4.9,2.4-10.4,3.7-16.2,3.7c-3.9,0-7.6-0.6-11.1-1.7
				c4.9-2.4,10.4-3.7,16.2-3.7C452.9,190.7,456.7,191.3,460.2,192.4z M486.9,229c0,21.1-17,38.3-37.9,38.3
				c-20.9,0-37.9-17.2-37.9-38.3c0-14.9,8.5-27.8,20.8-34.2c3.8,1.3,7.8,1.9,12,1.9c6.1,0,12-1.5,17.1-4.1c4.5,1.5,8.5,3.9,12.1,6.8
				c2.3,7,6.4,13.1,11.9,17.7C486.3,220.9,486.9,224.9,486.9,229z M474.3,200.4c4.6,4.2,8.2,9.5,10.4,15.5
				C480,211.7,476.4,206.4,474.3,200.4z M509.9,225.6c-9.2,0-17.6-3.3-24.2-8.8c-2.3-7-6.4-13.1-11.9-17.7
				c-1.2-3.7-1.8-7.6-1.8-11.7c0-1,0-2,0.1-2.9c5.8-6.2,9.6-14.4,10.3-23.4c6.9-7.3,16.6-11.9,27.4-11.9c20.9,0,37.9,17.2,37.9,38.3
				C547.7,208.5,530.7,225.6,509.9,225.6z"/>
		</g>
	</g>
	<g>
		<g>
			<path class="st1" d="M450.3,182.4l17.9-10.4l18.8,11.2c0,0,17.5-10.1,22.2,0.8c0,0-1.7,10.5-23,21.9
				c-21.3,11.4-17.6,10.3-17.6,10.3l-19-11.1c0,0-23.8-14.9-22-22.3C427.7,182.8,427.5,173.6,450.3,182.4z"/>
		</g>
	</g>
</g>
<g>
	<g>
		<polygon class="st3" points="450.5,183.6 459.2,177.5 468.2,183 476.1,178.2 487,184 487,206.5 468.4,216.6 449.8,205.7 		"/>
	</g>
	<path class="st4" d="M509.2,183.4c-0.8-1.9-2.2-3.2-4.1-3.9c-5.8-2.2-15.3,1.6-18,2.8l-7.5-4.4l10.7-6.5c0.7-0.2,1.2-0.8,1.2-1.5
		c0-0.9-0.7-1.6-1.6-1.6c-0.2,0-0.3,0-0.5,0.1l0,0l0,0c-0.2,0.1-0.4,0.2-0.6,0.4l-12.2,7.4l-8.2-4.8l-8.3,4.9l-11.7-7.2
		c-0.3-0.3-0.7-0.5-1.2-0.5c-0.9,0-1.6,0.7-1.6,1.6c0,0.4,0.2,0.8,0.5,1.1l0,0l0,0c0.2,0.2,0.4,0.3,0.6,0.4l10.3,6.4l-7.3,4.3
		c-2.7-1.2-12.2-5-18-2.8c-1.9,0.7-3.3,2.1-4.1,3.9c-3.9,9.3,18.7,22.2,21.4,23.7l17.8,10.4v8.4l1.6,1.4l1.5-1.4v-8.4l17.8-10.4
		C490.5,205.6,513,192.7,509.2,183.4z M468.4,174.9l5.2,3l-5.4,3.3L463,178L468.4,174.9z M460,179.8l8.2,5l8.4-5.1l7.3,4.3
		l-15.5,9.1l-15.6-9.1L460,179.8z M468.4,196.6l17.1-10v7.3l-17.8,10.9l-16.4-10.1v-8L468.4,196.6z M448.3,203.1
		c-9.1-5.5-19.7-14-17.8-18.5c0.4-1.1,1.2-1.8,2.4-2.3c4.2-1.6,11.9,1.1,15.4,2.7V203.1z M468.4,214.8l-17.1-10v-6.5l16.4,10.1
		l17.8-10.9v7.3L468.4,214.8z M488.6,203.1V185c3.6-1.6,11.3-4.3,15.4-2.7c1.1,0.4,1.9,1.2,2.4,2.3
		C508.2,189.1,497.7,197.6,488.6,203.1z"/>
</g>
<g>
	<path class="st1" d="M552.7,161.1v6.1c-1.4-0.7-2.8-1.2-4.2-1.6c-1.4-0.4-2.7-0.5-3.9-0.5c-1.6,0-2.8,0.2-3.6,0.7
		c-0.8,0.5-1.2,1.3-1.2,2.3c0,0.8,0.3,1.4,0.8,1.8c0.5,0.4,1.5,0.8,2.8,1.1l2.8,0.6c2.9,0.6,5,1.6,6.2,2.9c1.2,1.3,1.8,3.2,1.8,5.6
		c0,3.2-0.8,5.6-2.5,7.1c-1.7,1.6-4.3,2.3-7.8,2.3c-1.7,0-3.3-0.2-5-0.5c-1.7-0.3-3.3-0.9-5-1.6v-6.3c1.7,1,3.3,1.7,4.8,2.2
		c1.6,0.5,3,0.7,4.5,0.7c1.5,0,2.6-0.3,3.4-0.8c0.8-0.5,1.2-1.3,1.2-2.3c0-0.9-0.3-1.6-0.8-2.1c-0.5-0.5-1.6-0.9-3.2-1.3l-2.6-0.6
		c-2.6-0.6-4.5-1.6-5.7-3c-1.2-1.4-1.8-3.2-1.8-5.5c0-2.9,0.8-5.1,2.5-6.6c1.7-1.6,4.1-2.3,7.2-2.3c1.4,0,2.9,0.1,4.4,0.4
		C549.5,160.3,551.1,160.7,552.7,161.1z"/>
	<path class="st1" d="M560.3,160.2h6.7v28.9h-6.7V160.2z"/>
	<path class="st1" d="M597,187c-1.7,0.9-3.4,1.6-5.2,2c-1.8,0.5-3.7,0.7-5.6,0.7c-4.3,0-7.8-1.3-10.3-4c-2.5-2.7-3.8-6.3-3.8-11
		c0-4.7,1.3-8.3,3.9-11c2.6-2.7,6.1-4,10.6-4c1.7,0,3.4,0.2,5,0.5c1.6,0.4,3.1,0.9,4.5,1.6v6c-1.5-0.9-2.9-1.6-4.3-2.1
		c-1.4-0.5-2.9-0.7-4.3-0.7c-2.7,0-4.7,0.8-6.2,2.5c-1.4,1.7-2.2,4-2.2,7.1c0,3.1,0.7,5.4,2.1,7.1c1.4,1.7,3.4,2.5,5.9,2.5
		c0.7,0,1.3,0,1.9-0.1c0.6-0.1,1.1-0.2,1.6-0.5v-5.6h-4.1v-5H597V187z"/>
	<path class="st1" d="M621,161.1v6.1c-1.4-0.7-2.8-1.2-4.2-1.6c-1.4-0.4-2.7-0.5-3.9-0.5c-1.6,0-2.8,0.2-3.6,0.7
		c-0.8,0.5-1.2,1.3-1.2,2.3c0,0.8,0.3,1.4,0.8,1.8c0.5,0.4,1.5,0.8,2.8,1.1l2.8,0.6c2.9,0.6,5,1.6,6.2,2.9c1.2,1.3,1.8,3.2,1.8,5.6
		c0,3.2-0.8,5.6-2.5,7.1c-1.7,1.6-4.3,2.3-7.8,2.3c-1.7,0-3.3-0.2-5-0.5c-1.7-0.3-3.3-0.9-5-1.6v-6.3c1.7,1,3.3,1.7,4.8,2.2
		c1.6,0.5,3,0.7,4.5,0.7c1.5,0,2.6-0.3,3.4-0.8c0.8-0.5,1.2-1.3,1.2-2.3c0-0.9-0.3-1.6-0.8-2.1c-0.5-0.5-1.6-0.9-3.2-1.3l-2.6-0.6
		c-2.6-0.6-4.5-1.6-5.7-3c-1.2-1.4-1.8-3.2-1.8-5.5c0-2.9,0.8-5.1,2.5-6.6c1.7-1.6,4.1-2.3,7.2-2.3c1.4,0,2.9,0.1,4.4,0.4
		C617.8,160.3,619.4,160.7,621,161.1z"/>
	<path class="st1" d="M649.2,187.6c-1.2,0.7-2.5,1.2-3.9,1.6c-1.3,0.4-2.7,0.5-4.2,0.5c-4.3,0-7.8-1.3-10.3-4
		c-2.5-2.7-3.8-6.3-3.8-11c0-4.6,1.3-8.3,3.8-11c2.5-2.7,6-4,10.3-4c1.4,0,2.8,0.2,4.2,0.5c1.3,0.4,2.6,0.9,3.9,1.6v6
		c-1.3-0.9-2.5-1.6-3.7-2.1c-1.2-0.4-2.5-0.7-3.8-0.7c-2.4,0-4.3,0.9-5.7,2.6c-1.4,1.7-2.1,4.1-2.1,7.1c0,3,0.7,5.3,2.1,7
		c1.4,1.7,3.3,2.6,5.7,2.6c1.3,0,2.6-0.2,3.8-0.7c1.2-0.4,2.4-1.1,3.7-2.1V187.6z"/>
	<path class="st1" d="M670.6,183.9h-10.5l-1.7,5.3h-6.7l9.6-28.9h8l9.6,28.9h-6.8L670.6,183.9z M661.7,178.5h7.1l-3.5-11.5
		L661.7,178.5z"/>
	<path class="st1" d="M682.4,160.2h7.5l9.5,19.8v-19.8h6.4v28.9h-7.5l-9.5-19.8v19.8h-6.4V160.2z"/>
</g>
<g>
	<path class="st1" d="M523.3,213.1h-2v-14.2h2V213.1z"/>
	<path class="st1" d="M526.4,202.9h2v10.1h-2V202.9z M532.6,206.9c0-0.7-0.2-1.3-0.6-1.7c-0.4-0.4-0.9-0.6-1.6-0.6
		c-0.6,0-1.2,0.2-1.5,0.5c-0.4,0.3-0.5,0.8-0.5,1.5l-0.2-1.9c0.3-0.6,0.7-1.1,1.2-1.4c0.5-0.3,1.1-0.5,1.7-0.5
		c1.1,0,1.9,0.4,2.5,1.1c0.6,0.7,0.9,1.7,0.9,3v6.1h-2V206.9z"/>
	<path class="st1" d="M538.7,212.7c-0.5-0.3-0.9-0.8-1.2-1.4c-0.3-0.6-0.4-1.4-0.4-2.2v-2.2c0-0.9,0.1-1.6,0.4-2.2
		c0.3-0.6,0.7-1.1,1.2-1.4s1.1-0.5,1.8-0.5c0.6,0,1.1,0.2,1.6,0.5s0.9,0.8,1.2,1.3l-0.2,2.1c0-0.4-0.1-0.8-0.2-1.1s-0.4-0.5-0.7-0.7
		c-0.3-0.2-0.7-0.2-1.1-0.2c-0.7,0-1.2,0.2-1.5,0.6c-0.4,0.4-0.5,1-0.5,1.7v2.2c0,0.7,0.2,1.3,0.5,1.7c0.4,0.4,0.9,0.6,1.5,0.6
		c0.4,0,0.8-0.1,1.1-0.2c0.3-0.2,0.5-0.4,0.7-0.7s0.2-0.7,0.2-1.1l0.1,2.1c-0.2,0.5-0.5,0.9-1,1.3c-0.5,0.3-1,0.5-1.7,0.5
		C539.8,213.2,539.2,213.1,538.7,212.7z M543.1,198.9h2v14.2h-2V198.9z"/>
	<path class="st1" d="M549.5,212.7c-0.6-0.3-1.1-0.8-1.4-1.5c-0.3-0.7-0.5-1.5-0.5-2.4v-1.6c0-0.9,0.2-1.7,0.5-2.4
		c0.3-0.7,0.8-1.1,1.4-1.5c0.6-0.3,1.4-0.5,2.2-0.5s1.6,0.2,2.2,0.5c0.6,0.3,1.1,0.8,1.4,1.5s0.5,1.4,0.5,2.4v1.7
		c0,0.9-0.2,1.7-0.5,2.4c-0.3,0.7-0.8,1.2-1.4,1.5c-0.6,0.3-1.4,0.5-2.2,0.5S550.2,213,549.5,212.7z M553.4,210.7
		c0.4-0.4,0.6-1,0.6-1.8v-1.7c0-0.8-0.2-1.4-0.6-1.8s-0.9-0.6-1.6-0.6s-1.2,0.2-1.6,0.6s-0.6,1-0.6,1.8v1.7c0,0.8,0.2,1.4,0.6,1.8
		s0.9,0.7,1.6,0.7S553,211.1,553.4,210.7z"/>
	<path class="st1" d="M560.2,212.7c-0.6-0.3-1.1-0.8-1.4-1.5c-0.3-0.7-0.5-1.5-0.5-2.4v-1.6c0-0.9,0.2-1.7,0.5-2.4
		c0.3-0.7,0.8-1.1,1.4-1.5c0.6-0.3,1.4-0.5,2.2-0.5s1.6,0.2,2.2,0.5c0.6,0.3,1.1,0.8,1.4,1.5s0.5,1.4,0.5,2.4v1.7
		c0,0.9-0.2,1.7-0.5,2.4c-0.3,0.7-0.8,1.2-1.4,1.5c-0.6,0.3-1.4,0.5-2.2,0.5S560.8,213,560.2,212.7z M564.1,210.7
		c0.4-0.4,0.6-1,0.6-1.8v-1.7c0-0.8-0.2-1.4-0.6-1.8s-0.9-0.6-1.6-0.6s-1.2,0.2-1.6,0.6s-0.6,1-0.6,1.8v1.7c0,0.8,0.2,1.4,0.6,1.8
		s0.9,0.7,1.6,0.7S563.7,211.1,564.1,210.7z"/>
	<path class="st1" d="M569.3,202.9h2v10.1h-2V202.9z M574.2,204.9c-0.3-0.1-0.6-0.2-0.9-0.2c-0.6,0-1.1,0.2-1.5,0.5
		c-0.3,0.3-0.5,0.8-0.5,1.4l-0.2-1.9c0.3-0.6,0.7-1.1,1.2-1.4c0.5-0.3,1-0.5,1.6-0.5c0.5,0,0.9,0.1,1.3,0.2c0.4,0.1,0.7,0.3,1,0.6
		l-1.3,1.8C574.6,205.1,574.4,205,574.2,204.9z"/>
	<path class="st1" d="M586.8,198.9h1.7l5.2,14.2h-2.1l-3.9-11.4l-3.9,11.4h-2.1L586.8,198.9z M584,208.1h7.5v1.9H584V208.1z"/>
	<path class="st1" d="M598.1,213.2c0,0-0.3-0.1-0.8-0.2c-0.5-0.1-1-0.3-1.5-0.5c-0.5-0.2-0.9-0.5-1.3-0.9l1.2-1.5
		c0.5,0.4,1.1,0.7,1.6,0.9c0.5,0.2,1.1,0.3,1.6,0.3c0.8,0,1.4-0.1,1.8-0.4c0.4-0.2,0.6-0.6,0.6-1.1c0-0.3-0.1-0.6-0.3-0.7
		s-0.5-0.3-0.8-0.3c-0.3-0.1-0.8-0.1-1.3-0.2c-0.1,0-0.1,0-0.2,0c-0.1,0-0.1,0-0.2,0c0,0-0.1,0-0.1,0c0,0-0.1,0-0.1,0
		c-0.7-0.1-1.2-0.1-1.7-0.3c-0.5-0.1-0.8-0.4-1.1-0.8c-0.3-0.4-0.5-0.9-0.5-1.6c0-0.7,0.1-1.3,0.4-1.8c0.3-0.5,0.7-0.8,1.3-1.1
		c0.6-0.2,1.3-0.4,2.2-0.4c0.5,0,1,0,1.5,0.1c0.5,0.1,0.9,0.2,1.4,0.4s0.9,0.4,1.3,0.7l-1.2,1.5c-0.5-0.3-1-0.6-1.5-0.7
		s-1-0.2-1.4-0.2c-0.7,0-1.2,0.1-1.5,0.3s-0.5,0.6-0.5,1c0,0.3,0.1,0.5,0.3,0.6s0.4,0.2,0.7,0.3c0.3,0,0.7,0.1,1.2,0.1
		c0,0,0.1,0,0.1,0c0,0,0.1,0,0.1,0c0,0,0,0,0.1,0s0,0,0.1,0c0.7,0,1.3,0.1,1.8,0.3c0.5,0.1,0.9,0.4,1.3,0.8c0.3,0.4,0.5,1,0.5,1.8
		c0,0.7-0.2,1.3-0.5,1.8c-0.3,0.5-0.8,0.8-1.4,1.1s-1.4,0.4-2.4,0.4C598.4,213.2,598.1,213.2,598.1,213.2z"/>
	<path class="st1" d="M608.3,213.2c0,0-0.3-0.1-0.8-0.2c-0.5-0.1-1-0.3-1.5-0.5c-0.5-0.2-0.9-0.5-1.3-0.9l1.2-1.5
		c0.5,0.4,1.1,0.7,1.6,0.9c0.5,0.2,1.1,0.3,1.6,0.3c0.8,0,1.4-0.1,1.8-0.4c0.4-0.2,0.6-0.6,0.6-1.1c0-0.3-0.1-0.6-0.3-0.7
		s-0.5-0.3-0.8-0.3c-0.3-0.1-0.8-0.1-1.3-0.2c-0.1,0-0.1,0-0.2,0c-0.1,0-0.1,0-0.2,0c0,0-0.1,0-0.1,0c0,0-0.1,0-0.1,0
		c-0.7-0.1-1.2-0.1-1.7-0.3c-0.5-0.1-0.8-0.4-1.1-0.8c-0.3-0.4-0.5-0.9-0.5-1.6c0-0.7,0.1-1.3,0.4-1.8c0.3-0.5,0.7-0.8,1.3-1.1
		c0.6-0.2,1.3-0.4,2.2-0.4c0.5,0,1,0,1.5,0.1c0.5,0.1,0.9,0.2,1.4,0.4s0.9,0.4,1.3,0.7l-1.2,1.5c-0.5-0.3-1-0.6-1.5-0.7
		s-1-0.2-1.4-0.2c-0.7,0-1.2,0.1-1.5,0.3s-0.5,0.6-0.5,1c0,0.3,0.1,0.5,0.3,0.6s0.4,0.2,0.7,0.3c0.3,0,0.7,0.1,1.2,0.1
		c0,0,0.1,0,0.1,0c0,0,0.1,0,0.1,0c0,0,0,0,0.1,0s0,0,0.1,0c0.7,0,1.3,0.1,1.8,0.3c0.5,0.1,0.9,0.4,1.3,0.8c0.3,0.4,0.5,1,0.5,1.8
		c0,0.7-0.2,1.3-0.5,1.8c-0.3,0.5-0.8,0.8-1.4,1.1s-1.4,0.4-2.4,0.4C608.6,213.2,608.3,213.2,608.3,213.2z"/>
	<path class="st1" d="M618.5,213.2c0,0-0.3-0.2-1-0.5s-1.2-0.9-1.5-1.5c-0.3-0.7-0.5-1.5-0.5-2.5v-1.1c0-1,0.2-1.9,0.5-2.6
		s0.8-1.2,1.5-1.6c0.6-0.4,1.4-0.6,2.3-0.6c0.8,0,1.6,0.2,2.2,0.6s1.1,1,1.4,1.8c0.3,0.8,0.5,1.8,0.5,2.9v0.7h-6.8v-1.6h4.9
		c-0.1-0.8-0.3-1.5-0.6-1.9c-0.4-0.5-0.9-0.7-1.5-0.7c-0.8,0-1.3,0.2-1.7,0.7c-0.4,0.5-0.6,1.2-0.6,2.1v1.3c0,0.8,0.2,1.5,0.7,1.9
		c0.4,0.4,1.1,0.7,1.9,0.7c0.4,0,0.8-0.1,1.2-0.2c0.4-0.2,0.7-0.4,1.1-0.7l1.3,1.3c-0.5,0.5-1.1,0.9-1.7,1.1
		c-0.6,0.3-1.3,0.4-1.9,0.4C618.9,213.2,618.5,213.2,618.5,213.2z"/>
	<path class="st1" d="M625.4,202.9h4.6v1.8h-4.6V202.9z M627.1,212.4c-0.4-0.5-0.6-1.1-0.6-2V200h2v10.4c0,0.2,0,0.4,0.1,0.6
		c0.1,0.1,0.2,0.2,0.4,0.2h1v1.9h-1.1C628,213.1,627.4,212.9,627.1,212.4z"/>
	<path class="st1" d="M635.2,213.2c0,0-0.3-0.1-0.8-0.2c-0.5-0.1-1-0.3-1.5-0.5c-0.5-0.2-0.9-0.5-1.3-0.9l1.2-1.5
		c0.5,0.4,1.1,0.7,1.6,0.9c0.5,0.2,1.1,0.3,1.6,0.3c0.8,0,1.4-0.1,1.8-0.4c0.4-0.2,0.6-0.6,0.6-1.1c0-0.3-0.1-0.6-0.3-0.7
		s-0.5-0.3-0.8-0.3c-0.3-0.1-0.8-0.1-1.3-0.2c-0.1,0-0.1,0-0.2,0c-0.1,0-0.1,0-0.2,0c0,0-0.1,0-0.1,0c0,0-0.1,0-0.1,0
		c-0.7-0.1-1.2-0.1-1.7-0.3c-0.5-0.1-0.8-0.4-1.1-0.8c-0.3-0.4-0.5-0.9-0.5-1.6c0-0.7,0.1-1.3,0.4-1.8c0.3-0.5,0.7-0.8,1.3-1.1
		c0.6-0.2,1.3-0.4,2.2-0.4c0.5,0,1,0,1.5,0.1c0.5,0.1,0.9,0.2,1.4,0.4s0.9,0.4,1.3,0.7l-1.2,1.5c-0.5-0.3-1-0.6-1.5-0.7
		s-1-0.2-1.4-0.2c-0.7,0-1.2,0.1-1.5,0.3s-0.5,0.6-0.5,1c0,0.3,0.1,0.5,0.3,0.6s0.4,0.2,0.7,0.3c0.3,0,0.7,0.1,1.2,0.1
		c0,0,0.1,0,0.1,0c0,0,0.1,0,0.1,0c0,0,0,0,0.1,0s0,0,0.1,0c0.7,0,1.3,0.1,1.8,0.3c0.5,0.1,0.9,0.4,1.3,0.8c0.3,0.4,0.5,1,0.5,1.8
		c0,0.7-0.2,1.3-0.5,1.8c-0.3,0.5-0.8,0.8-1.4,1.1s-1.4,0.4-2.4,0.4C635.5,213.2,635.2,213.2,635.2,213.2z"/>
	<path class="st1" d="M646.1,198.9h10v1.9h-10V198.9z M650.1,200.1h2v13h-2V200.1z"/>
	<path class="st1" d="M656.5,202.9h2v10.1h-2V202.9z M661.3,204.9c-0.3-0.1-0.6-0.2-0.9-0.2c-0.6,0-1.1,0.2-1.5,0.5
		c-0.3,0.3-0.5,0.8-0.5,1.4l-0.2-1.9c0.3-0.6,0.7-1.1,1.2-1.4s1-0.5,1.6-0.5c0.5,0,0.9,0.1,1.3,0.2c0.4,0.1,0.7,0.3,1,0.6l-1.3,1.8
		C661.8,205.1,661.6,205,661.3,204.9z"/>
	<path class="st1" d="M665.2,212.4c-0.6-0.5-0.9-1.3-0.9-2.4c0-1,0.3-1.7,0.8-2.2c0.6-0.5,1.4-0.8,2.6-0.8h2.9l0.1,1.6h-3
		c-0.5,0-0.9,0.1-1.2,0.3c-0.3,0.2-0.4,0.6-0.4,1.1c0,0.5,0.2,0.9,0.5,1.1c0.3,0.2,0.9,0.4,1.6,0.4c0.8,0,1.3-0.1,1.7-0.2
		s0.6-0.4,0.6-0.8l0.2,1.4c-0.2,0.3-0.4,0.5-0.6,0.7c-0.3,0.2-0.6,0.3-0.9,0.4c-0.3,0.1-0.7,0.1-1.1,0.1
		C666.7,213.2,665.8,212.9,665.2,212.4z M670.5,206.6c0-0.7-0.2-1.2-0.5-1.5c-0.4-0.4-0.9-0.6-1.5-0.6c-0.4,0-0.8,0.1-1.2,0.2
		c-0.4,0.1-0.7,0.3-1,0.5l-1.5-1c0.4-0.5,0.9-0.8,1.5-1.1c0.6-0.3,1.3-0.4,2.1-0.4c0.8,0,1.6,0.1,2.2,0.4s1.1,0.7,1.4,1.3
		s0.5,1.2,0.5,2v6.5h-1.9V206.6z"/>
	<path class="st1" d="M677.9,213.2c0,0-0.3-0.2-1-0.5c-0.7-0.3-1.2-0.8-1.5-1.5c-0.3-0.7-0.5-1.4-0.5-2.4v-1.7
		c0-0.9,0.2-1.7,0.5-2.3c0.3-0.6,0.8-1.1,1.5-1.5c0.7-0.3,1.4-0.5,2.4-0.5c0.5,0,1,0.1,1.5,0.2c0.5,0.1,0.9,0.3,1.3,0.6
		s0.7,0.5,0.9,0.9l-1.4,1.3c-0.3-0.3-0.6-0.6-1-0.8c-0.4-0.2-0.8-0.3-1.2-0.3c-0.8,0-1.4,0.2-1.8,0.6s-0.6,1-0.6,1.8v1.7
		c0,0.8,0.2,1.4,0.6,1.9s1,0.7,1.8,0.7c0.4,0,0.8-0.1,1.2-0.3c0.4-0.2,0.7-0.5,1-0.8l1.4,1.4c-0.3,0.3-0.6,0.6-0.9,0.9
		c-0.4,0.2-0.8,0.4-1.3,0.5c-0.5,0.1-1,0.2-1.5,0.2C678.3,213.2,677.9,213.2,677.9,213.2z"/>
	<path class="st1" d="M684.9,198.9h2v14.2h-2V198.9z M685.8,209.2l5.2-6.3h2.3l-7.7,8.6L685.8,209.2z M688.1,207.2l1.3-1.3l4.4,7.2
		h-2.2L688.1,207.2z"/>
	<path class="st1" d="M695.3,198.9h2v2h-2V198.9z M695.3,202.9h2v10.1h-2V202.9z"/>
	<path class="st1" d="M700.1,202.9h2v10.1h-2V202.9z M706.2,206.9c0-0.7-0.2-1.3-0.6-1.7c-0.4-0.4-0.9-0.6-1.6-0.6
		c-0.6,0-1.2,0.2-1.5,0.5c-0.4,0.3-0.5,0.8-0.5,1.5l-0.2-1.9c0.3-0.6,0.7-1.1,1.2-1.4c0.5-0.3,1.1-0.5,1.7-0.5
		c1.1,0,1.9,0.4,2.5,1.1c0.6,0.7,0.9,1.7,0.9,3v6.1h-2V206.9z"/>
	<path class="st1" d="M712.3,212.7c-0.5-0.3-0.9-0.8-1.2-1.4s-0.4-1.4-0.4-2.2v-2.2c0-0.9,0.1-1.6,0.4-2.2c0.3-0.6,0.7-1.1,1.2-1.4
		s1.1-0.5,1.8-0.5c0.6,0,1.1,0.2,1.6,0.5s0.9,0.8,1.2,1.3l-0.2,2.1c0-0.4-0.1-0.8-0.2-1.1c-0.2-0.3-0.4-0.5-0.7-0.7
		c-0.3-0.2-0.7-0.2-1.1-0.2c-0.7,0-1.2,0.2-1.5,0.6c-0.4,0.4-0.5,1-0.5,1.7v2.2c0,0.7,0.2,1.3,0.5,1.7c0.4,0.4,0.9,0.6,1.5,0.6
		c0.4,0,0.8-0.1,1.1-0.2c0.3-0.2,0.5-0.4,0.7-0.7c0.2-0.3,0.2-0.7,0.2-1.1l0.1,2.1c-0.2,0.5-0.5,0.9-1,1.3c-0.5,0.3-1,0.5-1.7,0.5
		C713.5,213.2,712.8,213.1,712.3,212.7z M713.3,217.2c0,0-0.3-0.1-0.9-0.4s-1.1-0.7-1.4-1.2l1.3-1.2c0.3,0.4,0.6,0.6,0.9,0.8
		s0.7,0.3,1.1,0.3c0.8,0,1.3-0.2,1.8-0.6c0.4-0.4,0.6-1,0.6-1.8v-10.1h2v9.8c0,0.9-0.2,1.7-0.5,2.4s-0.8,1.2-1.5,1.5
		c-0.6,0.3-1.4,0.5-2.3,0.5C713.6,217.2,713.3,217.2,713.3,217.2z"/>
</g>
<g>
</g>
<g>
</g>
<g>
</g>
<g>
</g>
<g>
</g>
<g>
</g>
<g>
</g>
<g>
</g>
<g>
</g>
<g>
</g>
<g>
</g>
<g>
</g>
<g>
</g>
<g>
</g>
<g>
</g>
</svg>
